<svg width="658" height="674" viewBox="0 0 658 674" fill="none" xmlns="http://www.w3.org/2000/svg">
<path d="M104.706 276.186L312.864 390.236L212.143 454.182L1.68871 333.411L104.706 276.186Z" fill="#4E71BA"/>
<path d="M114.102 417.924L212.138 472.641L322.932 407.376L320.917 516.151L320.917 563.616C330.431 579.092 339.719 577.461 349.119 559.002C358.52 540.543 553.249 489.781 553.249 489.781L334.652 610.116L115.445 489.781L114.102 417.924Z" fill="#4E71BA"/>
<path d="M453.484 451.08L658.001 334.859L562.652 277.506L354.493 390.236L453.484 451.08Z" fill="#4E71BA"/>
<path d="M343.75 406.716L454.544 473.959L551.908 419.241V489.78L343.75 591.963C345.242 571.145 344.189 494.252 343.75 406.716Z" fill="#4E71BA"/>
<path d="M333.538 7.21404L357.851 19.7394C282.79 59.97 227.986 92.0864 136.935 144.336L136.935 121.815L333.538 7.21404Z" fill="#4E71BA"/>
<path d="M528.774 115.818L526.582 146.401C458.636 104.148 406.429 75.1134 320.743 26.1421L342.07 11.2517L528.774 115.818Z" fill="#4E71BA"/>
<path d="M528.978 237.329L501 244.863C503.771 203.745 502.887 173.104 502.593 122.447L526.458 127.545L528.978 237.329Z" fill="#4E71BA"/>
<path d="M162.353 237.329L134.375 244.863C137.146 203.745 136.262 173.104 135.968 122.447L159.833 127.545L162.353 237.329Z" fill="#4E71BA"/>
<path d="M529.082 214.875L567.926 237.862L332.373 363.723L304.137 348.042C408.216 289.369 494.088 251.806 529.082 214.875Z" fill="#4E71BA"/>
<path d="M141.283 209.734L97.9966 236.629L319.841 357.467L349.05 338.431C252.635 282.08 172.039 247.369 141.283 209.734Z" fill="#4E71BA"/>
<path d="M330.32 288.049L286.003 314.419" stroke="#4E71BA" stroke-width="15" stroke-linecap="round"/>
<path d="M375.984 314.42L337.039 288.05" stroke="#4E71BA" stroke-width="15" stroke-linecap="round"/>
<path d="M471.332 262.998L424.329 231.354" stroke="#4E71BA" stroke-width="15" stroke-linecap="round"/>
<path d="M240.961 232.675L193.34 263.415" stroke="#4E71BA" stroke-width="15" stroke-linecap="round"/>
<path d="M333.012 137.744L333.012 190.484" stroke="#4E71BA" stroke-width="15" stroke-linecap="round"/>
<path d="M276.598 107.417L329.656 134.206" stroke="#4E71BA" stroke-width="15" stroke-linecap="round"/>
<path d="M337.035 190.482L390.094 217.272" stroke="#4E71BA" stroke-width="15" stroke-linecap="round"/>
<path d="M333.012 231.356L386.07 258.146" stroke="#4E71BA" stroke-width="15" stroke-linecap="round"/>
<path d="M389.41 103.462L337.035 133.787" stroke="#4E71BA" stroke-width="15" stroke-linecap="round"/>
<path d="M328.977 190.482L276.601 220.808" stroke="#4E71BA" stroke-width="15" stroke-linecap="round"/>
<path d="M330.32 231.356L277.945 261.682" stroke="#4E71BA" stroke-width="15" stroke-linecap="round"/>
<path d="M330.32 231.356L277.945 261.682" stroke="#4E71BA" stroke-width="15" stroke-linecap="round"/>
<path d="M332.973 283.436L332.973 272.888" stroke="#4E71BA" stroke-width="15" stroke-linecap="round"/>
<path d="M463.75 208.928L463.273 157.521" stroke="#4E71BA" stroke-width="15" stroke-linecap="round"/>
<path d="M197.848 208.928L197.37 157.521" stroke="#4E71BA" stroke-width="15" stroke-linecap="round"/>
<path d="M384.043 161.476L459.249 103.462" stroke="#4E71BA" stroke-width="15" stroke-linecap="round"/>
<path d="M402.836 160.157L427.009 187.845" stroke="#4E71BA" stroke-width="15" stroke-linecap="round"/>
<path d="M389.41 57.3154L367.923 75.7742" stroke="#4E71BA" stroke-width="15" stroke-linecap="round"/>
<path d="M333.538 7.21404L357.851 19.7394C282.79 59.97 227.986 92.0864 136.935 144.336L136.935 121.815L333.538 7.21404Z" fill="#4E71BA"/>
<path d="M528.774 115.818L526.582 146.401C458.636 104.148 406.429 75.1134 320.743 26.1421L342.07 11.2517L528.774 115.818Z" fill="#4E71BA"/>
<path d="M528.978 237.329L501 244.863C503.771 203.745 502.887 173.104 502.593 122.447L526.458 127.545L528.978 237.329Z" fill="#4E71BA"/>
<path d="M162.353 237.329L134.375 244.863C137.146 203.745 136.262 173.104 135.968 122.447L159.833 127.545L162.353 237.329Z" fill="#4E71BA"/>
<path d="M529.082 214.875L567.926 237.862L332.373 363.723L304.137 348.042C408.216 289.369 494.088 251.806 529.082 214.875Z" fill="#4E71BA"/>
<path d="M141.283 209.734L97.9966 236.629L319.841 357.467L349.05 338.431C252.635 282.08 172.039 247.369 141.283 209.734Z" fill="#4E71BA"/>
<path d="M330.32 288.049L286.003 314.419" stroke="#4E71BA" stroke-width="15" stroke-linecap="round"/>
<path d="M375.984 314.42L337.039 288.05" stroke="#4E71BA" stroke-width="15" stroke-linecap="round"/>
<path d="M471.332 262.998L424.329 231.354" stroke="#4E71BA" stroke-width="15" stroke-linecap="round"/>
<path d="M240.961 232.675L193.34 263.415" stroke="#4E71BA" stroke-width="15" stroke-linecap="round"/>
<path d="M333.012 137.744L333.012 190.484" stroke="#4E71BA" stroke-width="15" stroke-linecap="round"/>
<path d="M276.598 107.417L329.656 134.206" stroke="#4E71BA" stroke-width="15" stroke-linecap="round"/>
<path d="M337.035 190.482L390.094 217.272" stroke="#4E71BA" stroke-width="15" stroke-linecap="round"/>
<path d="M333.012 231.356L386.07 258.146" stroke="#4E71BA" stroke-width="15" stroke-linecap="round"/>
<path d="M389.41 103.462L337.035 133.787" stroke="#4E71BA" stroke-width="15" stroke-linecap="round"/>
<path d="M328.977 190.482L276.601 220.808" stroke="#4E71BA" stroke-width="15" stroke-linecap="round"/>
<path d="M330.32 231.356L277.945 261.682" stroke="#4E71BA" stroke-width="15" stroke-linecap="round"/>
<path d="M330.32 231.356L277.945 261.682" stroke="#4E71BA" stroke-width="15" stroke-linecap="round"/>
<path d="M332.973 283.436L332.973 272.888" stroke="#4E71BA" stroke-width="15" stroke-linecap="round"/>
<path d="M463.75 208.928L463.273 157.521" stroke="#4E71BA" stroke-width="15" stroke-linecap="round"/>
<path d="M197.848 208.928L197.37 157.521" stroke="#4E71BA" stroke-width="15" stroke-linecap="round"/>
<path d="M384.043 161.476L459.249 103.462" stroke="#4E71BA" stroke-width="15" stroke-linecap="round"/>
<path d="M402.836 160.157L427.009 187.845" stroke="#4E71BA" stroke-width="15" stroke-linecap="round"/>
<path d="M389.41 57.3154L367.923 75.7742" stroke="#4E71BA" stroke-width="15" stroke-linecap="round"/>
<path d="M299.25 78.5674L280.632 57.3159" stroke="#4E71BA" stroke-width="15" stroke-linecap="round"/>
<ellipse cx="269.887" cy="265.637" rx="13.4296" ry="13.1849" fill="#4E71BA"/>
<ellipse cx="333.012" cy="81.0481" rx="13.4296" ry="13.1849" fill="#4E71BA"/>
<ellipse cx="276.601" cy="106.099" rx="13.4296" ry="13.1849" fill="#4E71BA"/>
<ellipse cx="390.758" cy="103.461" rx="13.4296" ry="13.1849" fill="#4E71BA"/>
<ellipse cx="463.273" cy="153.565" rx="13.4296" ry="13.1849" fill="#4E71BA"/>
<ellipse cx="463.273" cy="208.942" rx="13.4296" ry="13.1849" fill="#4E71BA"/>
<ellipse cx="197.371" cy="208.942" rx="13.4296" ry="13.1849" fill="#4E71BA"/>
<ellipse cx="197.371" cy="157.52" rx="13.4296" ry="13.1849" fill="#4E71BA"/>
<ellipse cx="392.094" cy="263" rx="13.4296" ry="13.1849" fill="#4E71BA"/>
<path d="M283.324 160.157L197.375 103.462" stroke="#4E71BA" stroke-width="15" stroke-linecap="round"/>
<path d="M240.344 187.847L264.517 150.929" stroke="#4E71BA" stroke-width="15" stroke-linecap="round"/>
<path d="M299.25 78.5674L280.632 57.3159" stroke="#4E71BA" stroke-width="15" stroke-linecap="round"/>
<ellipse cx="269.887" cy="265.637" rx="13.4296" ry="13.1849" fill="#4E71BA"/>
<ellipse cx="392.094" cy="263" rx="13.4296" ry="13.1849" fill="#4E71BA"/>
<path d="M283.324 160.157L197.375 103.462" stroke="#4E71BA" stroke-width="15" stroke-linecap="round"/>
<path d="M240.344 187.847L264.517 150.929" stroke="#4E71BA" stroke-width="15" stroke-linecap="round"/>
</svg>
