<svg width="784" height="391" viewBox="0 0 784 391" fill="none" xmlns="http://www.w3.org/2000/svg">
<rect x="6" y="137" width="778" height="252" rx="25" fill="#6893EF"/>
<path d="M567.741 217.924C567.741 217.923 567.741 217.922 567.741 217.921C567.736 217.896 567.717 217.789 567.97 217.558C568.249 217.303 568.733 217.022 569.461 216.709C570.433 216.29 571.65 215.89 573.051 215.428C573.763 215.194 574.522 214.944 575.321 214.668C579.913 213.082 585.561 210.719 588.383 205.86C589.792 203.434 590.532 200.324 590.92 197.097C591.31 193.858 591.354 190.422 591.321 187.301C591.31 186.249 591.29 185.24 591.272 184.286C591.235 182.378 591.202 180.692 591.25 179.33C591.284 178.349 591.359 177.615 591.48 177.129C591.749 177.58 592.049 178.279 592.387 179.227C592.856 180.542 593.348 182.187 593.904 184.047C594.182 184.978 594.476 185.962 594.792 186.987C595.728 190.025 596.837 193.357 598.221 196.435C599.6 199.501 601.285 202.392 603.407 204.497C607.658 208.715 613.88 210.001 618.835 210.722C619.697 210.847 620.512 210.954 621.277 211.055C622.782 211.253 624.089 211.425 625.163 211.657C625.968 211.831 626.526 212.018 626.876 212.216C627.193 212.395 627.208 212.503 627.212 212.528C627.212 212.529 627.212 212.53 627.212 212.531C627.212 212.531 627.212 212.532 627.212 212.533C627.217 212.558 627.235 212.666 626.983 212.897C626.704 213.152 626.22 213.433 625.492 213.746C624.52 214.164 623.303 214.565 621.902 215.026C621.19 215.261 620.431 215.511 619.632 215.787C615.04 217.373 609.392 219.735 606.57 224.595C605.161 227.021 604.421 230.131 604.033 233.358C603.643 236.597 603.599 240.033 603.632 243.153C603.643 244.205 603.663 245.215 603.681 246.169C603.718 248.076 603.751 249.762 603.703 251.125C603.669 252.106 603.594 252.839 603.473 253.325C603.204 252.874 602.904 252.175 602.566 251.228C602.097 249.912 601.605 248.268 601.049 246.407C600.771 245.477 600.477 244.492 600.161 243.468C599.225 240.429 598.116 237.098 596.732 234.02C595.353 230.953 593.668 228.063 591.546 225.957C587.295 221.739 581.074 220.453 576.118 219.733C575.256 219.607 574.441 219.5 573.676 219.4C572.172 219.202 570.864 219.03 569.79 218.797C568.985 218.623 568.427 218.437 568.077 218.239C567.76 218.059 567.745 217.952 567.741 217.926C567.741 217.925 567.741 217.924 567.741 217.924Z" fill="url(#paint0_linear_214_3826)" stroke="url(#paint1_linear_214_3826)" stroke-width="2" stroke-linecap="round"/>
<path d="M671.334 256.641C671.334 256.64 671.334 256.639 671.334 256.638C671.338 256.613 671.353 256.505 671.665 256.364C672.009 256.208 672.557 256.092 673.346 256.02C674.4 255.925 675.681 255.922 677.156 255.919C677.906 255.918 678.705 255.916 679.55 255.902C684.408 255.822 690.51 255.332 694.703 251.591C696.796 249.723 698.466 246.997 699.838 244.05C701.216 241.093 702.325 237.841 703.264 234.865C703.58 233.861 703.875 232.896 704.154 231.983C704.712 230.159 705.205 228.546 705.674 227.266C706.012 226.344 706.311 225.67 706.577 225.246C706.692 225.758 706.76 226.516 706.787 227.521C706.824 228.918 706.78 230.633 706.73 232.574C706.705 233.545 706.679 234.573 706.661 235.644C706.606 238.823 706.625 242.335 706.984 245.69C707.341 249.034 708.044 252.305 709.406 254.966C712.135 260.296 717.649 263.452 722.135 265.677C722.915 266.064 723.657 266.42 724.353 266.753C725.721 267.409 726.91 267.978 727.859 268.533C728.57 268.949 729.042 269.3 729.313 269.597C729.559 269.866 729.54 269.973 729.535 269.998C729.535 269.999 729.535 270 729.535 270C729.535 270.001 729.535 270.002 729.535 270.003C729.531 270.028 729.515 270.136 729.204 270.277C728.86 270.433 728.312 270.55 727.523 270.621C726.469 270.716 725.187 270.719 723.713 270.722C722.963 270.723 722.163 270.725 721.318 270.739C716.461 270.819 710.359 271.309 706.166 275.051C704.073 276.919 702.403 279.645 701.03 282.591C699.653 285.548 698.543 288.8 697.605 291.777C697.288 292.78 696.993 293.746 696.714 294.658C696.157 296.483 695.664 298.095 695.195 299.375C694.857 300.297 694.558 300.971 694.292 301.395C694.177 300.883 694.108 300.125 694.082 299.12C694.045 297.724 694.089 296.008 694.138 294.067C694.163 293.096 694.19 292.069 694.208 290.997C694.262 287.818 694.244 284.307 693.885 280.951C693.528 277.607 692.825 274.337 691.462 271.675C688.733 266.345 683.22 263.189 678.734 260.964C677.954 260.577 677.212 260.222 676.516 259.888C675.148 259.233 673.958 258.663 673.009 258.108C672.299 257.692 671.826 257.341 671.555 257.044C671.31 256.775 671.329 256.668 671.333 256.643C671.334 256.642 671.334 256.641 671.334 256.641Z" fill="url(#paint2_linear_214_3826)" stroke="url(#paint3_linear_214_3826)" stroke-width="2" stroke-linecap="round"/>
<path d="M581.123 361.409C581.119 361.405 581.118 361.403 581.118 361.402L581.118 361.402C581.117 361.4 581.111 361.389 581.107 361.361C581.099 361.298 581.1 361.173 581.159 360.962C581.281 360.528 581.588 359.934 582.093 359.159C582.766 358.128 583.684 356.934 584.732 355.571C585.26 354.883 585.821 354.153 586.401 353.378C589.766 348.885 593.645 343.051 593.498 337.098C593.423 334.107 592.333 331.005 590.844 328.046C589.351 325.08 587.422 322.192 585.605 319.623C584.99 318.755 584.393 317.929 583.83 317.149C582.705 315.593 581.714 314.222 580.981 313.061C580.43 312.188 580.078 311.515 579.925 311.03C579.888 310.912 579.867 310.823 579.857 310.757C579.927 310.771 580.021 310.796 580.144 310.839C580.649 311.015 581.343 311.389 582.235 311.964C583.422 312.728 584.816 313.748 586.397 314.904C587.19 315.484 588.029 316.098 588.913 316.731C591.526 318.604 594.472 320.603 597.531 322.2C600.582 323.793 603.813 325.023 606.995 325.296C613.329 325.841 619.81 322.616 624.828 319.779C625.693 319.291 626.509 318.816 627.278 318.369C628.802 317.484 630.137 316.708 631.282 316.15C632.142 315.731 632.796 315.485 633.267 315.401C633.496 315.36 633.629 315.367 633.695 315.38C633.725 315.385 633.737 315.391 633.739 315.392C633.74 315.393 633.741 315.393 633.745 315.397C633.75 315.402 633.75 315.403 633.751 315.404C633.751 315.406 633.757 315.417 633.761 315.445C633.77 315.508 633.768 315.633 633.709 315.844C633.587 316.278 633.281 316.872 632.775 317.647C632.102 318.679 631.184 319.872 630.137 321.235C629.608 321.923 629.047 322.653 628.467 323.428C625.102 327.922 621.223 333.755 621.371 339.708C621.445 342.699 622.535 345.801 624.024 348.76C625.517 351.726 627.446 354.614 629.264 357.183C629.878 358.051 630.475 358.877 631.039 359.657C632.163 361.213 633.155 362.584 633.888 363.746C634.439 364.618 634.791 365.292 634.943 365.776C634.981 365.894 635.001 365.983 635.012 366.05C634.942 366.035 634.848 366.01 634.725 365.967C634.219 365.791 633.526 365.417 632.633 364.842C631.446 364.078 630.052 363.058 628.471 361.902C627.679 361.322 626.839 360.708 625.956 360.075C623.342 358.202 620.397 356.203 617.338 354.606C614.287 353.013 611.055 351.783 607.873 351.51C601.54 350.965 595.059 354.19 590.041 357.027C589.176 357.515 588.359 357.99 587.59 358.437C586.067 359.322 584.732 360.098 583.586 360.656C582.727 361.075 582.072 361.321 581.601 361.405C581.373 361.446 581.239 361.439 581.173 361.426C581.143 361.421 581.131 361.415 581.13 361.414C581.129 361.413 581.127 361.413 581.123 361.409ZM579.851 310.59C579.851 310.591 579.851 310.595 579.848 310.602C579.849 310.594 579.851 310.59 579.851 310.59ZM579.693 310.738C579.685 310.74 579.68 310.74 579.68 310.74C579.68 310.74 579.684 310.738 579.693 310.738ZM635.017 366.216C635.017 366.215 635.018 366.211 635.021 366.204C635.019 366.212 635.018 366.216 635.017 366.216ZM635.176 366.068C635.184 366.066 635.188 366.066 635.189 366.066C635.189 366.066 635.185 366.068 635.176 366.068Z" fill="url(#paint4_linear_214_3826)" stroke="url(#paint5_linear_214_3826)" stroke-width="2" stroke-linecap="round"/>
<path d="M659.944 176.569C660.377 176.66 660.755 176.739 661.087 176.823C660.77 176.92 660.407 177.014 659.991 177.122C659.688 177.201 659.357 177.287 658.996 177.386C657.071 177.917 654.499 178.784 653.086 180.928C652.384 181.993 651.978 183.362 651.723 184.737C651.467 186.124 651.352 187.597 651.278 188.917C651.259 189.253 651.244 189.576 651.229 189.884C651.161 189.577 651.09 189.257 651.013 188.923C650.713 187.61 650.344 186.146 649.85 184.775C649.36 183.415 648.72 182.068 647.837 181.034C646.06 178.955 643.348 178.195 641.338 177.745C640.961 177.66 640.616 177.588 640.301 177.522C639.868 177.431 639.49 177.352 639.158 177.268C639.474 177.171 639.837 177.077 640.253 176.969C640.556 176.89 640.887 176.804 641.248 176.705C643.174 176.174 645.746 175.307 647.158 173.164C647.86 172.098 648.267 170.729 648.521 169.354C648.778 167.967 648.893 166.494 648.966 165.174C648.985 164.838 649.001 164.515 649.016 164.207C649.083 164.514 649.155 164.834 649.231 165.168C649.532 166.481 649.9 167.945 650.394 169.316C650.884 170.676 651.525 172.023 652.408 173.057C654.184 175.136 656.896 175.896 658.906 176.346C659.284 176.431 659.628 176.503 659.944 176.569Z" fill="url(#paint6_linear_214_3826)" stroke="url(#paint7_linear_214_3826)" stroke-width="2" stroke-linecap="round"/>
<path d="M550.944 355.569C551.377 355.66 551.755 355.739 552.087 355.823C551.77 355.92 551.407 356.014 550.991 356.122C550.688 356.201 550.357 356.287 549.996 356.386C548.071 356.917 545.499 357.784 544.086 359.928C543.384 360.993 542.978 362.362 542.723 363.737C542.467 365.124 542.352 366.597 542.278 367.917C542.259 368.253 542.244 368.576 542.229 368.884C542.161 368.577 542.09 368.257 542.013 367.923C541.713 366.61 541.344 365.146 540.85 363.775C540.36 362.415 539.72 361.068 538.837 360.034C537.06 357.955 534.348 357.195 532.338 356.745C531.961 356.66 531.616 356.588 531.301 356.522C530.868 356.431 530.49 356.352 530.158 356.268C530.474 356.171 530.837 356.077 531.253 355.969C531.556 355.89 531.887 355.804 532.248 355.705C534.174 355.174 536.746 354.307 538.158 352.164C538.86 351.098 539.267 349.729 539.521 348.354C539.778 346.967 539.893 345.494 539.966 344.174C539.985 343.838 540.001 343.515 540.016 343.207C540.083 343.514 540.155 343.834 540.231 344.168C540.532 345.481 540.9 346.945 541.394 348.316C541.884 349.676 542.525 351.023 543.408 352.057C545.184 354.136 547.896 354.896 549.906 355.346C550.284 355.431 550.628 355.503 550.944 355.569Z" fill="url(#paint8_linear_214_3826)" stroke="url(#paint9_linear_214_3826)" stroke-width="2" stroke-linecap="round"/>
<path d="M731.113 173.314C731.526 173.155 731.887 173.016 732.211 172.906C731.998 173.16 731.745 173.436 731.454 173.753C731.242 173.983 731.011 174.235 730.761 174.515C729.432 176.006 727.743 178.13 727.721 180.697C727.71 181.973 728.111 183.343 728.644 184.636C729.182 185.94 729.885 187.24 730.54 188.388C730.706 188.681 730.868 188.96 731.023 189.227C730.8 189.006 730.566 188.776 730.32 188.537C729.355 187.597 728.251 186.568 727.092 185.685C725.942 184.809 724.673 184.025 723.37 183.636C720.749 182.855 718.059 183.689 716.127 184.402C715.764 184.536 715.435 184.662 715.135 184.778C714.722 184.937 714.361 185.076 714.037 185.185C714.25 184.932 714.503 184.656 714.794 184.339C715.006 184.109 715.237 183.857 715.487 183.577C716.816 182.086 718.505 179.962 718.527 177.395C718.538 176.119 718.137 174.749 717.604 173.456C717.066 172.152 716.363 170.852 715.708 169.703C715.542 169.411 715.38 169.132 715.225 168.865C715.448 169.086 715.682 169.316 715.928 169.555C716.893 170.494 717.997 171.524 719.156 172.407C720.306 173.283 721.575 174.067 722.878 174.455C725.499 175.237 728.189 174.403 730.121 173.69C730.484 173.556 730.813 173.43 731.113 173.314Z" fill="url(#paint10_linear_214_3826)" stroke="url(#paint11_linear_214_3826)" stroke-width="2" stroke-linecap="round"/>
<path d="M692.851 359.107C693.135 359.446 693.383 359.742 693.592 360.014C693.284 359.894 692.94 359.744 692.546 359.572C692.259 359.446 691.946 359.309 691.601 359.164C689.759 358.391 687.202 357.482 684.766 358.295C683.555 358.699 682.39 359.523 681.34 360.447C680.281 361.378 679.28 362.465 678.406 363.458C678.184 363.71 677.972 363.954 677.77 364.187C677.906 363.904 678.048 363.608 678.195 363.298C678.77 362.08 679.385 360.702 679.844 359.319C680.3 357.947 680.629 356.492 680.574 355.134C680.462 352.401 678.8 350.128 677.499 348.531C677.254 348.231 677.028 347.962 676.821 347.715C676.537 347.376 676.288 347.08 676.079 346.808C676.388 346.928 676.732 347.078 677.125 347.25C677.412 347.376 677.725 347.513 678.071 347.658C679.912 348.431 682.47 349.34 684.905 348.527C686.116 348.123 687.282 347.299 688.331 346.375C689.39 345.444 690.391 344.357 691.265 343.364C691.488 343.112 691.7 342.868 691.902 342.635C691.765 342.918 691.623 343.214 691.477 343.524C690.902 344.742 690.287 346.12 689.827 347.503C689.372 348.875 689.043 350.33 689.098 351.689C689.209 354.421 690.871 356.694 692.173 358.291C692.417 358.591 692.643 358.86 692.851 359.107Z" fill="url(#paint12_linear_214_3826)" stroke="url(#paint13_linear_214_3826)" stroke-width="2" stroke-linecap="round"/>
<path d="M561.378 270.421C561.662 270.76 561.911 271.056 562.12 271.327C561.811 271.208 561.467 271.057 561.074 270.885C560.787 270.76 560.474 270.623 560.128 270.478C558.286 269.704 555.729 268.796 553.293 269.608C552.083 270.012 550.917 270.837 549.867 271.76C548.809 272.692 547.808 273.779 546.933 274.771C546.711 275.024 546.499 275.267 546.297 275.5C546.433 275.218 546.576 274.921 546.722 274.612C547.297 273.394 547.912 272.016 548.372 270.632C548.827 269.26 549.156 267.805 549.101 266.447C548.99 263.715 547.327 261.441 546.026 259.844C545.782 259.545 545.555 259.275 545.348 259.028C545.064 258.689 544.816 258.393 544.606 258.122C544.915 258.241 545.259 258.392 545.653 258.564C545.939 258.689 546.253 258.826 546.598 258.972C548.44 259.745 550.997 260.653 553.433 259.841C554.644 259.437 555.809 258.612 556.859 257.689C557.918 256.757 558.919 255.67 559.793 254.678C560.015 254.425 560.227 254.182 560.429 253.949C560.293 254.231 560.151 254.528 560.004 254.837C559.429 256.055 558.814 257.433 558.355 258.817C557.899 260.189 557.57 261.644 557.625 263.002C557.736 265.734 559.399 268.008 560.7 269.605C560.945 269.904 561.171 270.174 561.378 270.421Z" fill="url(#paint14_linear_214_3826)" stroke="url(#paint15_linear_214_3826)" stroke-width="2" stroke-linecap="round"/>
<path d="M648.944 287.569C649.377 287.66 649.755 287.739 650.087 287.823C649.77 287.92 649.407 288.014 648.991 288.122C648.688 288.201 648.357 288.287 647.996 288.386C646.071 288.917 643.499 289.784 642.086 291.928C641.384 292.993 640.978 294.362 640.723 295.737C640.467 297.124 640.352 298.597 640.278 299.917C640.259 300.253 640.244 300.576 640.229 300.884C640.161 300.577 640.09 300.257 640.013 299.923C639.713 298.61 639.344 297.146 638.85 295.775C638.36 294.415 637.72 293.068 636.837 292.034C635.06 289.955 632.348 289.195 630.338 288.745C629.961 288.66 629.616 288.588 629.301 288.522C628.868 288.431 628.49 288.352 628.158 288.268C628.474 288.171 628.837 288.077 629.253 287.969C629.556 287.89 629.887 287.804 630.248 287.705C632.174 287.174 634.746 286.307 636.158 284.164C636.86 283.098 637.267 281.729 637.521 280.354C637.778 278.967 637.893 277.494 637.966 276.174C637.985 275.838 638.001 275.515 638.016 275.207C638.083 275.514 638.155 275.834 638.231 276.168C638.532 277.481 638.9 278.945 639.394 280.316C639.884 281.676 640.525 283.023 641.408 284.057C643.184 286.136 645.896 286.896 647.906 287.346C648.284 287.431 648.628 287.503 648.944 287.569Z" fill="url(#paint16_linear_214_3826)" stroke="url(#paint17_linear_214_3826)" stroke-width="2" stroke-linecap="round"/>
<path d="M536.944 172.569C537.377 172.66 537.755 172.739 538.087 172.823C537.77 172.92 537.407 173.014 536.991 173.122C536.688 173.201 536.357 173.287 535.996 173.386C534.071 173.917 531.499 174.784 530.086 176.928C529.384 177.993 528.978 179.362 528.723 180.737C528.467 182.124 528.352 183.597 528.278 184.917C528.259 185.253 528.244 185.576 528.229 185.884C528.161 185.577 528.09 185.257 528.013 184.923C527.713 183.61 527.344 182.146 526.85 180.775C526.36 179.415 525.72 178.068 524.837 177.034C523.06 174.955 520.348 174.195 518.338 173.745C517.961 173.66 517.616 173.588 517.301 173.522C516.868 173.431 516.49 173.352 516.158 173.268C516.474 173.171 516.837 173.077 517.253 172.969C517.556 172.89 517.887 172.804 518.248 172.705C520.174 172.174 522.746 171.307 524.158 169.164C524.86 168.098 525.267 166.729 525.521 165.354C525.778 163.967 525.893 162.494 525.966 161.174C525.985 160.838 526.001 160.515 526.016 160.207C526.083 160.514 526.155 160.834 526.231 161.168C526.532 162.481 526.9 163.945 527.394 165.316C527.884 166.676 528.525 168.023 529.408 169.057C531.184 171.136 533.896 171.896 535.906 172.346C536.284 172.431 536.628 172.503 536.944 172.569Z" fill="url(#paint18_linear_214_3826)" stroke="url(#paint19_linear_214_3826)" stroke-width="2" stroke-linecap="round"/>
<path d="M760.944 321.569C761.377 321.66 761.755 321.739 762.087 321.823C761.77 321.92 761.407 322.014 760.991 322.122C760.688 322.201 760.357 322.287 759.996 322.386C758.071 322.917 755.499 323.784 754.086 325.928C753.384 326.993 752.978 328.362 752.723 329.737C752.467 331.124 752.352 332.597 752.278 333.917C752.259 334.253 752.244 334.576 752.229 334.884C752.161 334.577 752.09 334.257 752.013 333.923C751.713 332.61 751.344 331.146 750.85 329.775C750.36 328.415 749.72 327.068 748.837 326.034C747.06 323.955 744.348 323.195 742.338 322.745C741.961 322.66 741.616 322.588 741.301 322.522C740.868 322.431 740.49 322.352 740.158 322.268C740.474 322.171 740.837 322.077 741.253 321.969C741.556 321.89 741.887 321.804 742.248 321.705C744.174 321.174 746.746 320.307 748.158 318.164C748.86 317.098 749.267 315.729 749.521 314.354C749.778 312.967 749.893 311.494 749.966 310.174C749.985 309.838 750.001 309.515 750.016 309.207C750.083 309.514 750.155 309.834 750.231 310.168C750.532 311.481 750.9 312.945 751.394 314.316C751.884 315.676 752.525 317.023 753.408 318.057C755.184 320.136 757.896 320.896 759.906 321.346C760.284 321.431 760.628 321.503 760.944 321.569Z" fill="url(#paint20_linear_214_3826)" stroke="url(#paint21_linear_214_3826)" stroke-width="2" stroke-linecap="round"/>
<path d="M2.496 2.32H11.952C13.696 2.32 15.328 2.56 16.848 3.04C18.384 3.504 19.624 4.296 20.568 5.416C21.512 6.52 21.984 8.048 21.984 10C21.984 11.312 21.728 12.496 21.216 13.552C20.72 14.608 20.088 15.464 19.32 16.12C18.552 16.776 17.768 17.176 16.968 17.32C17.64 17.384 18.344 17.592 19.08 17.944C19.832 18.28 20.536 18.76 21.192 19.384C21.864 20.008 22.408 20.792 22.824 21.736C23.24 22.68 23.448 23.784 23.448 25.048C23.448 26.808 23.08 28.36 22.344 29.704C21.608 31.048 20.512 32.104 19.056 32.872C17.6 33.624 15.776 34 13.584 34H2.496V2.32ZM7.536 29.848H12.768C14.144 29.848 15.216 29.616 15.984 29.152C16.768 28.688 17.328 28.072 17.664 27.304C18 26.52 18.168 25.664 18.168 24.736C18.168 23.216 17.68 22.024 16.704 21.16C15.728 20.296 14.328 19.864 12.504 19.864H7.536V29.848ZM7.536 15.784H12.096C13.2 15.784 14.112 15.56 14.832 15.112C15.552 14.648 16.088 14.04 16.44 13.288C16.792 12.52 16.968 11.72 16.968 10.888C16.968 9.208 16.48 8.056 15.504 7.432C14.528 6.792 13.224 6.472 11.592 6.472H7.536V15.784ZM31.8259 25.36C31.8579 26.4 32.1059 27.336 32.5699 28.168C33.0339 29 33.7139 29.656 34.6099 30.136C35.5219 30.6 36.6339 30.832 37.9459 30.832C39.0819 30.832 40.0579 30.68 40.8739 30.376C41.7059 30.056 42.3939 29.68 42.9379 29.248C43.4819 28.8 43.8819 28.384 44.1379 28L46.4179 31.096C45.9219 31.768 45.2979 32.368 44.5459 32.896C43.7939 33.424 42.8579 33.832 41.7379 34.12C40.6339 34.424 39.2659 34.576 37.6339 34.576C35.4899 34.576 33.6259 34.136 32.0419 33.256C30.4579 32.376 29.2259 31.136 28.3459 29.536C27.4819 27.936 27.0499 26.064 27.0499 23.92C27.0499 22 27.4499 20.272 28.2499 18.736C29.0499 17.184 30.2099 15.96 31.7299 15.064C33.2659 14.168 35.1059 13.72 37.2499 13.72C39.2499 13.72 40.9859 14.12 42.4579 14.92C43.9299 15.72 45.0659 16.872 45.8659 18.376C46.6819 19.864 47.0899 21.664 47.0899 23.776C47.0899 23.904 47.0819 24.168 47.0659 24.568C47.0659 24.968 47.0499 25.232 47.0179 25.36H31.8259ZM42.2899 21.616C42.2739 21.104 42.0979 20.52 41.7619 19.864C41.4419 19.208 40.9219 18.64 40.2019 18.16C39.4819 17.664 38.5219 17.416 37.3219 17.416C36.0899 17.416 35.0899 17.656 34.3219 18.136C33.5539 18.6 32.9859 19.16 32.6179 19.816C32.2499 20.456 32.0339 21.056 31.9699 21.616H42.2899ZM76.1501 13.72C77.6221 13.72 78.8861 14.032 79.9421 14.656C81.0141 15.28 81.8381 16.24 82.4141 17.536C83.0061 18.832 83.3021 20.488 83.3021 22.504V34H78.2381V23.416C78.2381 21.512 77.9661 20.064 77.4221 19.072C76.8941 18.08 75.8941 17.584 74.4221 17.584C73.6221 17.584 72.8701 17.8 72.1661 18.232C71.4621 18.664 70.8941 19.312 70.4621 20.176C70.0461 21.024 69.8381 22.104 69.8381 23.416V34H65.0861V23.416C65.0861 21.512 64.7581 20.064 64.1021 19.072C63.4621 18.08 62.5021 17.584 61.2221 17.584C60.4061 17.584 59.6541 17.792 58.9661 18.208C58.2781 18.624 57.7261 19.264 57.3101 20.128C56.8941 20.992 56.6861 22.088 56.6861 23.416V34H51.5981V14.296H56.6861V17.248C56.8621 16.752 57.2541 16.232 57.8621 15.688C58.4861 15.144 59.2621 14.68 60.1901 14.296C61.1181 13.912 62.1341 13.72 63.2381 13.72C64.4381 13.72 65.4301 13.944 66.2141 14.392C67.0141 14.824 67.6461 15.368 68.1101 16.024C68.5901 16.68 68.9421 17.336 69.1661 17.992C69.3901 17.336 69.8221 16.68 70.4621 16.024C71.1181 15.368 71.9341 14.824 72.9101 14.392C73.8861 13.944 74.9661 13.72 76.1501 13.72ZM88.842 25.288V20.872H101.202V25.288H88.842ZM122.242 34H116.41L104.914 2.32H110.602L119.338 27.736L128.098 2.32H133.786L122.242 34ZM138.088 34V14.296H143.2V34H138.088ZM140.704 8.392C139.84 8.392 139.096 8.08 138.472 7.456C137.864 6.832 137.56 6.088 137.56 5.224C137.56 4.36 137.864 3.616 138.472 2.992C139.096 2.352 139.84 2.032 140.704 2.032C141.28 2.032 141.808 2.184 142.288 2.488C142.784 2.776 143.176 3.16 143.464 3.64C143.768 4.104 143.92 4.632 143.92 5.224C143.92 6.088 143.608 6.832 142.984 7.456C142.36 8.08 141.6 8.392 140.704 8.392ZM160.973 13.72C162.301 13.72 163.589 13.992 164.837 14.536C166.085 15.08 167.109 15.952 167.909 17.152C168.725 18.336 169.133 19.88 169.133 21.784V34H163.973V22.72C163.973 20.944 163.549 19.64 162.701 18.808C161.869 17.96 160.789 17.536 159.461 17.536C158.581 17.536 157.741 17.784 156.941 18.28C156.141 18.776 155.485 19.448 154.973 20.296C154.477 21.144 154.229 22.12 154.229 23.224V34H149.093V14.296H154.229V17.608C154.373 17.064 154.757 16.496 155.381 15.904C156.021 15.296 156.829 14.784 157.805 14.368C158.781 13.936 159.837 13.72 160.973 13.72ZM182.883 34.576C181.027 34.576 179.387 34.136 177.963 33.256C176.539 32.376 175.419 31.152 174.603 29.584C173.803 28.016 173.403 26.208 173.403 24.16C173.403 22.112 173.803 20.304 174.603 18.736C175.419 17.168 176.539 15.944 177.963 15.064C179.387 14.168 181.027 13.72 182.883 13.72C184.259 13.72 185.483 13.96 186.555 14.44C187.627 14.904 188.483 15.448 189.123 16.072C189.763 16.696 190.139 17.248 190.251 17.728V0.975999H195.387V34H190.323V30.352C190.099 30.912 189.643 31.52 188.955 32.176C188.267 32.832 187.395 33.4 186.339 33.88C185.299 34.344 184.147 34.576 182.883 34.576ZM184.203 30.424C185.323 30.424 186.339 30.16 187.251 29.632C188.163 29.104 188.891 28.376 189.435 27.448C189.979 26.504 190.251 25.408 190.251 24.16C190.251 22.912 189.979 21.824 189.435 20.896C188.891 19.952 188.163 19.216 187.251 18.688C186.339 18.144 185.323 17.872 184.203 17.872C183.179 17.872 182.227 18.136 181.347 18.664C180.483 19.176 179.787 19.904 179.259 20.848C178.731 21.792 178.467 22.896 178.467 24.16C178.467 25.424 178.731 26.528 179.259 27.472C179.787 28.416 180.483 29.144 181.347 29.656C182.227 30.168 183.179 30.424 184.203 30.424ZM209.291 34.576C207.227 34.576 205.387 34.128 203.771 33.232C202.171 32.32 200.915 31.088 200.003 29.536C199.091 27.968 198.635 26.192 198.635 24.208C198.635 22.224 199.091 20.44 200.003 18.856C200.915 17.272 202.171 16.024 203.771 15.112C205.387 14.184 207.227 13.72 209.291 13.72C211.355 13.72 213.179 14.184 214.763 15.112C216.347 16.024 217.587 17.272 218.483 18.856C219.395 20.44 219.851 22.224 219.851 24.208C219.851 26.192 219.395 27.968 218.483 29.536C217.587 31.088 216.347 32.32 214.763 33.232C213.179 34.128 211.355 34.576 209.291 34.576ZM209.291 30.256C210.443 30.256 211.443 29.992 212.291 29.464C213.139 28.936 213.795 28.216 214.259 27.304C214.723 26.392 214.955 25.352 214.955 24.184C214.955 23.016 214.723 21.976 214.259 21.064C213.795 20.136 213.139 19.4 212.291 18.856C211.443 18.312 210.443 18.04 209.291 18.04C208.139 18.04 207.131 18.312 206.267 18.856C205.419 19.4 204.755 20.136 204.275 21.064C203.811 21.976 203.579 23.016 203.579 24.184C203.579 25.352 203.811 26.392 204.275 27.304C204.755 28.216 205.419 28.936 206.267 29.464C207.131 29.992 208.139 30.256 209.291 30.256ZM228.148 27.304C229.189 27.304 230.085 27.68 230.837 28.432C231.589 29.168 231.965 30.184 231.965 31.48C231.965 32.744 231.701 33.952 231.173 35.104C230.661 36.256 229.981 37.288 229.133 38.2C228.301 39.128 227.397 39.856 226.421 40.384L224.717 38.608C225.229 38.352 225.773 38.008 226.349 37.576C226.941 37.144 227.477 36.64 227.957 36.064C228.437 35.504 228.757 34.896 228.917 34.24C228.581 34.416 228.165 34.504 227.669 34.504C226.805 34.504 226.045 34.176 225.389 33.52C224.749 32.864 224.429 32.032 224.429 31.024C224.429 30.32 224.589 29.688 224.909 29.128C225.245 28.568 225.693 28.128 226.253 27.808C226.829 27.472 227.461 27.304 228.148 27.304Z" fill="black"/>
<path d="M26.332 63.72H32.422V87.413C32.422 90.5643 31.7937 93.2903 30.537 95.591C29.2997 97.8723 27.5693 99.6317 25.346 100.869C23.1227 102.087 20.532 102.696 17.574 102.696C14.6353 102.696 12.0447 102.087 9.802 100.869C7.55933 99.6317 5.80967 97.8723 4.553 95.591C3.29633 93.2903 2.668 90.5643 2.668 87.413V63.72H8.758V87.094C8.758 89.182 9.135 90.9703 9.889 92.459C10.6623 93.9477 11.7063 95.0883 13.021 95.881C14.355 96.6737 15.8727 97.07 17.574 97.07C19.2753 97.07 20.7833 96.6737 22.098 95.881C23.4127 95.0883 24.447 93.9477 25.201 92.459C25.955 90.9703 26.332 89.182 26.332 87.094V63.72ZM51.8783 63.024C54.1209 63.024 56.0639 63.285 57.7073 63.807C59.3699 64.3097 60.6846 64.851 61.6513 65.431C62.6179 65.9917 63.1979 66.359 63.3913 66.533L60.3463 71.492C60.0563 71.2407 59.5343 70.8927 58.7803 70.448C58.0456 69.984 57.1369 69.5683 56.0543 69.201C54.9909 68.8337 53.8019 68.65 52.4873 68.65C50.5153 68.65 48.9493 69.0367 47.7893 69.81C46.6293 70.564 46.0493 71.666 46.0493 73.116C46.0493 74.0827 46.3586 74.9333 46.9773 75.668C47.5959 76.4027 48.4756 77.089 49.6163 77.727C50.7763 78.365 52.1586 79.0127 53.7633 79.67C55.1166 80.2307 56.4313 80.8687 57.7073 81.584C59.0026 82.2993 60.1626 83.1403 61.1873 84.107C62.2119 85.0737 63.0239 86.195 63.6233 87.471C64.2419 88.747 64.5513 90.2163 64.5513 91.879C64.5513 93.619 64.1936 95.1657 63.4783 96.519C62.7629 97.853 61.7769 98.984 60.5203 99.912C59.2636 100.821 57.8136 101.517 56.1703 102C54.5463 102.464 52.8063 102.696 50.9503 102.696C48.5143 102.696 46.3199 102.406 44.3673 101.826C42.4339 101.227 40.8679 100.608 39.6693 99.97C38.4706 99.3127 37.7746 98.8873 37.5813 98.694L40.8003 93.503C41.0323 93.6963 41.4576 93.9863 42.0763 94.373C42.7143 94.7403 43.4973 95.1367 44.4253 95.562C45.3533 95.968 46.3779 96.316 47.4993 96.606C48.6399 96.8767 49.8193 97.012 51.0373 97.012C53.3766 97.012 55.1456 96.5093 56.3443 95.504C57.5429 94.4793 58.1423 93.1647 58.1423 91.56C58.1423 90.342 57.7556 89.2883 56.9823 88.399C56.2283 87.4903 55.1843 86.6687 53.8503 85.934C52.5356 85.1993 51.0373 84.4743 49.3553 83.759C47.6346 83.005 46.0396 82.1543 44.5703 81.207C43.1203 80.2597 41.9506 79.1093 41.0613 77.756C40.1719 76.3833 39.7273 74.7207 39.7273 72.768C39.7273 70.8153 40.2783 69.114 41.3803 67.664C42.5016 66.1947 43.9806 65.054 45.8173 64.242C47.6539 63.43 49.6743 63.024 51.8783 63.024ZM70.5303 63.72H93.7303V69.172H76.5913V80.163H93.4403V85.47H76.5913V96.548H93.7303V102H70.5303V63.72ZM101.115 63.72H115.18C117.287 63.72 119.192 64.1647 120.893 65.054C122.614 65.924 123.977 67.2 124.982 68.882C125.987 70.564 126.49 72.6037 126.49 75.001C126.49 77.379 126.036 79.3413 125.127 80.888C124.218 82.4347 123.126 83.5947 121.85 84.368C120.574 85.1413 119.385 85.5763 118.283 85.673L127.708 102H120.835L112.135 86.137H107.205V102H101.115V63.72ZM107.205 81.729H113.005C115.054 81.729 116.775 81.2167 118.167 80.192C119.559 79.1673 120.255 77.495 120.255 75.175C120.255 72.8357 119.569 71.173 118.196 70.187C116.823 69.201 115.112 68.708 113.063 68.708H107.205V81.729ZM139.652 69.433L140.058 69.491V102H133.968V63.72H142.465L160.967 96.2L160.59 96.287V63.72H166.651V102H158.125L139.652 69.433ZM185.958 63.72H192.193L206.635 102H200.139L196.978 93.242H181.202L178.012 102H171.487L185.958 63.72ZM183.174 87.819H195.006L189.119 71.144H189.032L183.174 87.819ZM246.973 63.72V102H240.883V75.929L241.173 71.028L240.013 76.538L231.632 99.564H225.629L217.277 76.538L216.117 71.028L216.407 75.929V102H210.317V63.72H218.64L228.21 92.372L228.645 94.663L229.051 92.372L238.679 63.72H246.973ZM254.726 63.72H277.926V69.172H260.787V80.163H277.636V85.47H260.787V96.548H277.926V102H254.726V63.72Z" fill="#6893EF"/>
<path d="M51.768 194.472C53.24 194.472 54.576 194.256 55.776 193.824C56.992 193.392 57.896 192.968 58.488 192.552L61.56 198.648C60.808 199.288 59.52 199.936 57.696 200.592C55.888 201.248 53.736 201.576 51.24 201.576C48.904 201.576 46.712 201.168 44.664 200.352C42.616 199.536 40.808 198.392 39.24 196.92C37.688 195.432 36.464 193.696 35.568 191.712C34.688 189.712 34.248 187.544 34.248 185.208C34.248 182.872 34.688 180.704 35.568 178.704C36.448 176.688 37.664 174.936 39.216 173.448C40.784 171.96 42.592 170.808 44.64 169.992C46.704 169.16 48.904 168.744 51.24 168.744C53.736 168.744 55.888 169.072 57.696 169.728C59.52 170.384 60.808 171.032 61.56 171.672L58.488 177.768C57.896 177.336 56.992 176.912 55.776 176.496C54.576 176.064 53.24 175.848 51.768 175.848C50.136 175.848 48.712 176.104 47.496 176.616C46.28 177.112 45.264 177.8 44.448 178.68C43.632 179.56 43.024 180.552 42.624 181.656C42.224 182.76 42.024 183.92 42.024 185.136C42.024 186.368 42.224 187.544 42.624 188.664C43.024 189.768 43.632 190.76 44.448 191.64C45.264 192.52 46.28 193.216 47.496 193.728C48.712 194.224 50.136 194.472 51.768 194.472ZM75.9855 201.576C73.8255 201.576 71.9055 201.136 70.2255 200.256C68.5615 199.36 67.2495 198.136 66.2895 196.584C65.3455 195.016 64.8735 193.224 64.8735 191.208C64.8735 189.192 65.3455 187.4 66.2895 185.832C67.2495 184.248 68.5615 183 70.2255 182.088C71.9055 181.176 73.8255 180.72 75.9855 180.72C78.1455 180.72 80.0495 181.176 81.6975 182.088C83.3455 183 84.6335 184.248 85.5615 185.832C86.4895 187.4 86.9535 189.192 86.9535 191.208C86.9535 193.224 86.4895 195.016 85.5615 196.584C84.6335 198.136 83.3455 199.36 81.6975 200.256C80.0495 201.136 78.1455 201.576 75.9855 201.576ZM75.9855 195.576C76.8175 195.576 77.5375 195.392 78.1455 195.024C78.7535 194.656 79.2255 194.136 79.5615 193.464C79.8975 192.792 80.0655 192.032 80.0655 191.184C80.0655 190.32 79.8975 189.552 79.5615 188.88C79.2255 188.208 78.7535 187.68 78.1455 187.296C77.5375 186.912 76.8175 186.72 75.9855 186.72C75.1535 186.72 74.4255 186.912 73.8015 187.296C73.1935 187.68 72.7135 188.208 72.3615 188.88C72.0255 189.552 71.8575 190.32 71.8575 191.184C71.8575 192.032 72.0255 192.792 72.3615 193.464C72.7135 194.136 73.1935 194.656 73.8015 195.024C74.4255 195.392 75.1535 195.576 75.9855 195.576ZM117.846 180.72C119.334 180.72 120.646 181.032 121.782 181.656C122.918 182.264 123.806 183.208 124.446 184.488C125.102 185.768 125.43 187.416 125.43 189.432V201H118.254V190.536C118.254 189.16 118.046 188.048 117.63 187.2C117.214 186.352 116.39 185.928 115.158 185.928C114.422 185.928 113.774 186.12 113.214 186.504C112.654 186.888 112.222 187.424 111.918 188.112C111.614 188.784 111.462 189.592 111.462 190.536V201H104.766V190.536C104.766 189.16 104.534 188.048 104.07 187.2C103.622 186.352 102.822 185.928 101.67 185.928C100.934 185.928 100.286 186.12 99.7264 186.504C99.1664 186.872 98.7344 187.4 98.4304 188.088C98.1424 188.76 97.9984 189.576 97.9984 190.536V201H90.7504V181.296H97.9984V184.104C98.1904 183.608 98.6064 183.104 99.2464 182.592C99.9024 182.064 100.71 181.624 101.67 181.272C102.63 180.904 103.646 180.72 104.718 180.72C105.886 180.72 106.862 180.896 107.646 181.248C108.43 181.584 109.07 182.04 109.566 182.616C110.078 183.192 110.486 183.816 110.79 184.488C111.014 183.912 111.454 183.336 112.11 182.76C112.782 182.168 113.614 181.68 114.606 181.296C115.614 180.912 116.694 180.72 117.846 180.72ZM135.465 192.696C135.513 193.4 135.737 194.024 136.137 194.568C136.537 195.112 137.089 195.544 137.793 195.864C138.513 196.168 139.361 196.32 140.337 196.32C141.265 196.32 142.097 196.224 142.833 196.032C143.585 195.84 144.233 195.6 144.777 195.312C145.337 195.024 145.769 194.728 146.073 194.424L148.905 198.936C148.505 199.368 147.937 199.792 147.201 200.208C146.481 200.608 145.529 200.936 144.345 201.192C143.161 201.448 141.665 201.576 139.857 201.576C137.681 201.576 135.745 201.168 134.049 200.352C132.353 199.536 131.017 198.336 130.041 196.752C129.065 195.168 128.577 193.232 128.577 190.944C128.577 189.024 128.993 187.296 129.825 185.76C130.673 184.208 131.897 182.984 133.497 182.088C135.097 181.176 137.025 180.72 139.281 180.72C141.425 180.72 143.281 181.112 144.849 181.896C146.433 182.68 147.649 183.848 148.497 185.4C149.361 186.936 149.793 188.856 149.793 191.16C149.793 191.288 149.785 191.544 149.769 191.928C149.769 192.312 149.753 192.568 149.721 192.696H135.465ZM142.929 188.88C142.913 188.368 142.777 187.864 142.521 187.368C142.265 186.856 141.881 186.44 141.369 186.12C140.857 185.784 140.201 185.616 139.401 185.616C138.601 185.616 137.921 185.776 137.361 186.096C136.817 186.4 136.401 186.8 136.113 187.296C135.825 187.792 135.665 188.32 135.633 188.88H142.929ZM164.243 195.84C165.155 195.84 165.907 195.688 166.499 195.384C167.091 195.064 167.491 194.808 167.699 194.616L171.035 199.56C170.779 199.768 170.339 200.04 169.715 200.376C169.091 200.696 168.307 200.976 167.363 201.216C166.435 201.456 165.371 201.576 164.171 201.576C161.915 201.576 159.931 201.152 158.219 200.304C156.507 199.44 155.171 198.224 154.211 196.656C153.267 195.088 152.795 193.248 152.795 191.136C152.795 189.008 153.267 187.168 154.211 185.616C155.171 184.064 156.507 182.864 158.219 182.016C159.931 181.152 161.915 180.72 164.171 180.72C165.355 180.72 166.411 180.848 167.339 181.104C168.283 181.344 169.075 181.624 169.715 181.944C170.355 182.248 170.803 182.512 171.059 182.736L167.651 187.728C167.539 187.616 167.331 187.456 167.027 187.248C166.739 187.04 166.363 186.856 165.899 186.696C165.435 186.536 164.883 186.456 164.243 186.456C163.459 186.456 162.723 186.656 162.035 187.056C161.363 187.456 160.819 188.008 160.403 188.712C159.987 189.416 159.779 190.224 159.779 191.136C159.779 192.048 159.987 192.864 160.403 193.584C160.819 194.288 161.363 194.84 162.035 195.24C162.723 195.64 163.459 195.84 164.243 195.84ZM179.808 192.696C179.856 193.4 180.08 194.024 180.48 194.568C180.88 195.112 181.432 195.544 182.136 195.864C182.856 196.168 183.704 196.32 184.68 196.32C185.608 196.32 186.44 196.224 187.176 196.032C187.928 195.84 188.576 195.6 189.12 195.312C189.68 195.024 190.112 194.728 190.416 194.424L193.248 198.936C192.848 199.368 192.28 199.792 191.544 200.208C190.824 200.608 189.872 200.936 188.688 201.192C187.504 201.448 186.008 201.576 184.2 201.576C182.024 201.576 180.088 201.168 178.392 200.352C176.696 199.536 175.36 198.336 174.384 196.752C173.408 195.168 172.92 193.232 172.92 190.944C172.92 189.024 173.336 187.296 174.168 185.76C175.016 184.208 176.24 182.984 177.84 182.088C179.44 181.176 181.368 180.72 183.624 180.72C185.768 180.72 187.624 181.112 189.192 181.896C190.776 182.68 191.992 183.848 192.84 185.4C193.704 186.936 194.136 188.856 194.136 191.16C194.136 191.288 194.128 191.544 194.112 191.928C194.112 192.312 194.096 192.568 194.064 192.696H179.808ZM187.272 188.88C187.256 188.368 187.12 187.864 186.864 187.368C186.608 186.856 186.224 186.44 185.712 186.12C185.2 185.784 184.544 185.616 183.744 185.616C182.944 185.616 182.264 185.776 181.704 186.096C181.16 186.4 180.744 186.8 180.456 187.296C180.168 187.792 180.008 188.32 179.976 188.88H187.272ZM225.898 201V197.808C225.754 198.128 225.386 198.592 224.794 199.2C224.218 199.808 223.45 200.36 222.49 200.856C221.53 201.336 220.41 201.576 219.13 201.576C217.21 201.576 215.53 201.112 214.09 200.184C212.65 199.24 211.53 197.984 210.73 196.416C209.93 194.832 209.53 193.08 209.53 191.16C209.53 189.24 209.93 187.496 210.73 185.928C211.53 184.344 212.65 183.08 214.09 182.136C215.53 181.192 217.21 180.72 219.13 180.72C220.362 180.72 221.442 180.92 222.37 181.32C223.298 181.704 224.05 182.168 224.626 182.712C225.202 183.24 225.602 183.728 225.826 184.176V181.296H233.074V201H225.898ZM216.682 191.16C216.682 192.056 216.89 192.864 217.306 193.584C217.722 194.288 218.274 194.84 218.962 195.24C219.666 195.64 220.442 195.84 221.29 195.84C222.17 195.84 222.946 195.64 223.618 195.24C224.29 194.84 224.818 194.288 225.202 193.584C225.602 192.864 225.802 192.056 225.802 191.16C225.802 190.264 225.602 189.464 225.202 188.76C224.818 188.04 224.29 187.48 223.618 187.08C222.946 186.664 222.17 186.456 221.29 186.456C220.442 186.456 219.666 186.664 218.962 187.08C218.274 187.48 217.722 188.04 217.306 188.76C216.89 189.464 216.682 190.264 216.682 191.16ZM256.215 192.696C256.263 193.4 256.487 194.024 256.887 194.568C257.287 195.112 257.839 195.544 258.543 195.864C259.263 196.168 260.111 196.32 261.087 196.32C262.015 196.32 262.847 196.224 263.583 196.032C264.335 195.84 264.983 195.6 265.527 195.312C266.087 195.024 266.519 194.728 266.823 194.424L269.655 198.936C269.255 199.368 268.687 199.792 267.951 200.208C267.231 200.608 266.279 200.936 265.095 201.192C263.911 201.448 262.415 201.576 260.607 201.576C258.431 201.576 256.495 201.168 254.799 200.352C253.103 199.536 251.767 198.336 250.791 196.752C249.815 195.168 249.327 193.232 249.327 190.944C249.327 189.024 249.743 187.296 250.575 185.76C251.423 184.208 252.647 182.984 254.247 182.088C255.847 181.176 257.775 180.72 260.031 180.72C262.175 180.72 264.031 181.112 265.599 181.896C267.183 182.68 268.399 183.848 269.247 185.4C270.111 186.936 270.543 188.856 270.543 191.16C270.543 191.288 270.535 191.544 270.519 191.928C270.519 192.312 270.503 192.568 270.471 192.696H256.215ZM263.679 188.88C263.663 188.368 263.527 187.864 263.271 187.368C263.015 186.856 262.631 186.44 262.119 186.12C261.607 185.784 260.951 185.616 260.151 185.616C259.351 185.616 258.671 185.776 258.111 186.096C257.567 186.4 257.151 186.8 256.863 187.296C256.575 187.792 256.415 188.32 256.383 188.88H263.679ZM283.145 180.72C284.441 180.72 285.625 180.832 286.697 181.056C287.769 181.264 288.665 181.504 289.385 181.776C290.121 182.048 290.593 182.272 290.801 182.448L288.425 186.744C288.121 186.52 287.553 186.232 286.721 185.88C285.905 185.528 284.993 185.352 283.985 185.352C283.217 185.352 282.569 185.472 282.041 185.712C281.513 185.936 281.249 186.296 281.249 186.792C281.249 187.288 281.537 187.688 282.113 187.992C282.705 188.28 283.553 188.536 284.657 188.76C285.617 188.952 286.593 189.256 287.585 189.672C288.577 190.088 289.401 190.704 290.057 191.52C290.729 192.32 291.065 193.392 291.065 194.736C291.065 196.112 290.769 197.248 290.177 198.144C289.585 199.04 288.801 199.736 287.825 200.232C286.849 200.728 285.793 201.072 284.657 201.264C283.521 201.472 282.417 201.576 281.345 201.576C279.841 201.576 278.529 201.44 277.409 201.168C276.305 200.896 275.409 200.584 274.721 200.232C274.033 199.88 273.553 199.6 273.281 199.392L275.633 194.592C276.049 194.944 276.729 195.344 277.673 195.792C278.617 196.224 279.617 196.44 280.673 196.44C281.697 196.44 282.489 196.288 283.049 195.984C283.609 195.68 283.889 195.28 283.889 194.784C283.889 194.384 283.753 194.064 283.481 193.824C283.209 193.584 282.825 193.376 282.329 193.2C281.833 193.024 281.233 192.864 280.529 192.72C279.889 192.592 279.209 192.392 278.489 192.12C277.769 191.848 277.089 191.48 276.449 191.016C275.809 190.536 275.289 189.936 274.889 189.216C274.489 188.496 274.289 187.624 274.289 186.6C274.289 185.288 274.713 184.2 275.561 183.336C276.409 182.472 277.505 181.824 278.849 181.392C280.193 180.944 281.625 180.72 283.145 180.72ZM292.93 181.296H296.29V173.208H303.514V181.296H307.93V187.296H303.514V192.792C303.514 193.608 303.634 194.272 303.874 194.784C304.114 195.28 304.554 195.528 305.194 195.528C305.626 195.528 305.994 195.432 306.298 195.24C306.602 195.048 306.786 194.92 306.85 194.856L309.346 200.04C309.234 200.136 308.882 200.312 308.29 200.568C307.714 200.824 306.978 201.056 306.082 201.264C305.186 201.472 304.186 201.576 303.082 201.576C301.114 201.576 299.49 201.024 298.21 199.92C296.93 198.8 296.29 197.08 296.29 194.76V187.296H292.93V181.296ZM318.959 190.416C318.959 191.984 319.255 193.24 319.847 194.184C320.439 195.112 321.431 195.576 322.823 195.576C324.247 195.576 325.247 195.112 325.823 194.184C326.415 193.24 326.711 191.984 326.711 190.416V181.296H333.911V191.184C333.911 193.296 333.471 195.136 332.591 196.704C331.727 198.256 330.471 199.456 328.823 200.304C327.175 201.152 325.175 201.576 322.823 201.576C320.487 201.576 318.495 201.152 316.847 200.304C315.199 199.456 313.943 198.256 313.079 196.704C312.215 195.136 311.783 193.296 311.783 191.184V181.296H318.959V190.416ZM346.792 201.576C344.888 201.576 343.232 201.112 341.824 200.184C340.416 199.24 339.32 197.984 338.536 196.416C337.768 194.832 337.384 193.08 337.384 191.16C337.384 189.24 337.768 187.496 338.536 185.928C339.32 184.344 340.416 183.08 341.824 182.136C343.232 181.192 344.888 180.72 346.792 180.72C348.056 180.72 349.176 180.92 350.152 181.32C351.128 181.704 351.92 182.168 352.528 182.712C353.136 183.24 353.504 183.728 353.632 184.176V167.976H360.928V201H353.704V197.808C353.4 198.4 352.904 198.992 352.216 199.584C351.528 200.16 350.72 200.632 349.792 201C348.864 201.384 347.864 201.576 346.792 201.576ZM349.024 195.84C349.904 195.84 350.688 195.64 351.376 195.24C352.08 194.84 352.632 194.288 353.032 193.584C353.432 192.864 353.632 192.056 353.632 191.16C353.632 190.264 353.432 189.464 353.032 188.76C352.632 188.04 352.08 187.48 351.376 187.08C350.688 186.664 349.904 186.456 349.024 186.456C348.176 186.456 347.408 186.664 346.72 187.08C346.048 187.48 345.512 188.04 345.112 188.76C344.728 189.464 344.536 190.264 344.536 191.16C344.536 192.056 344.728 192.864 345.112 193.584C345.512 194.288 346.048 194.84 346.72 195.24C347.408 195.64 348.176 195.84 349.024 195.84ZM380.445 201V197.808C380.301 198.128 379.933 198.592 379.341 199.2C378.765 199.808 377.997 200.36 377.037 200.856C376.077 201.336 374.957 201.576 373.677 201.576C371.757 201.576 370.077 201.112 368.637 200.184C367.197 199.24 366.077 197.984 365.277 196.416C364.477 194.832 364.077 193.08 364.077 191.16C364.077 189.24 364.477 187.496 365.277 185.928C366.077 184.344 367.197 183.08 368.637 182.136C370.077 181.192 371.757 180.72 373.677 180.72C374.909 180.72 375.989 180.92 376.917 181.32C377.845 181.704 378.597 182.168 379.173 182.712C379.749 183.24 380.149 183.728 380.373 184.176V181.296H387.621V201H380.445ZM371.229 191.16C371.229 192.056 371.437 192.864 371.853 193.584C372.269 194.288 372.821 194.84 373.509 195.24C374.213 195.64 374.989 195.84 375.837 195.84C376.717 195.84 377.493 195.64 378.165 195.24C378.837 194.84 379.365 194.288 379.749 193.584C380.149 192.864 380.349 192.056 380.349 191.16C380.349 190.264 380.149 189.464 379.749 188.76C379.365 188.04 378.837 187.48 378.165 187.08C377.493 186.664 376.717 186.456 375.837 186.456C374.989 186.456 374.213 186.664 373.509 187.08C372.821 187.48 372.269 188.04 371.853 188.76C371.437 189.464 371.229 190.264 371.229 191.16ZM398.922 201H391.626V181.296H398.922V184.344H398.802C398.93 183.976 399.242 183.512 399.738 182.952C400.234 182.376 400.93 181.864 401.826 181.416C402.722 180.952 403.818 180.72 405.114 180.72C406.026 180.72 406.866 180.864 407.634 181.152C408.402 181.424 408.962 181.688 409.314 181.944L406.482 187.872C406.258 187.6 405.858 187.32 405.282 187.032C404.722 186.728 404.018 186.576 403.17 186.576C402.194 186.576 401.386 186.824 400.746 187.32C400.122 187.816 399.658 188.416 399.354 189.12C399.066 189.824 398.922 190.488 398.922 191.112V201ZM430.897 190.416C430.897 191.984 431.193 193.24 431.785 194.184C432.377 195.112 433.369 195.576 434.761 195.576C436.185 195.576 437.185 195.112 437.761 194.184C438.353 193.24 438.649 191.984 438.649 190.416V181.296H445.849V191.184C445.849 193.296 445.409 195.136 444.529 196.704C443.665 198.256 442.409 199.456 440.761 200.304C439.113 201.152 437.113 201.576 434.761 201.576C432.425 201.576 430.433 201.152 428.785 200.304C427.137 199.456 425.881 198.256 425.017 196.704C424.153 195.136 423.721 193.296 423.721 191.184V181.296H430.897V190.416ZM477.378 180.72C478.866 180.72 480.178 181.032 481.314 181.656C482.45 182.264 483.338 183.208 483.978 184.488C484.634 185.768 484.962 187.416 484.962 189.432V201H477.786V190.536C477.786 189.16 477.578 188.048 477.162 187.2C476.746 186.352 475.922 185.928 474.69 185.928C473.954 185.928 473.306 186.12 472.746 186.504C472.186 186.888 471.754 187.424 471.45 188.112C471.146 188.784 470.994 189.592 470.994 190.536V201H464.298V190.536C464.298 189.16 464.066 188.048 463.602 187.2C463.154 186.352 462.354 185.928 461.202 185.928C460.466 185.928 459.818 186.12 459.258 186.504C458.698 186.872 458.266 187.4 457.962 188.088C457.674 188.76 457.53 189.576 457.53 190.536V201H450.282V181.296H457.53V184.104C457.722 183.608 458.138 183.104 458.778 182.592C459.434 182.064 460.242 181.624 461.202 181.272C462.162 180.904 463.178 180.72 464.25 180.72C465.418 180.72 466.394 180.896 467.178 181.248C467.962 181.584 468.602 182.04 469.098 182.616C469.61 183.192 470.018 183.816 470.322 184.488C470.546 183.912 470.986 183.336 471.642 182.76C472.314 182.168 473.146 181.68 474.138 181.296C475.146 180.912 476.226 180.72 477.378 180.72ZM48.576 229.72C49.952 229.72 51.296 230 52.608 230.56C53.92 231.12 55 232.008 55.848 233.224C56.696 234.424 57.12 236.008 57.12 237.976V250H49.8V239.176C49.8 237.768 49.464 236.712 48.792 236.008C48.12 235.288 47.24 234.928 46.152 234.928C45.432 234.928 44.752 235.12 44.112 235.504C43.488 235.872 42.976 236.4 42.576 237.088C42.192 237.76 42 238.536 42 239.416V250H34.704V230.296H42V233.2C42.192 232.672 42.592 232.144 43.2 231.616C43.824 231.072 44.6 230.624 45.528 230.272C46.472 229.904 47.488 229.72 48.576 229.72ZM71.3918 250.576C69.2318 250.576 67.3118 250.136 65.6318 249.256C63.9678 248.36 62.6558 247.136 61.6958 245.584C60.7518 244.016 60.2798 242.224 60.2798 240.208C60.2798 238.192 60.7518 236.4 61.6958 234.832C62.6558 233.248 63.9678 232 65.6318 231.088C67.3118 230.176 69.2318 229.72 71.3918 229.72C73.5518 229.72 75.4558 230.176 77.1038 231.088C78.7518 232 80.0398 233.248 80.9678 234.832C81.8958 236.4 82.3598 238.192 82.3598 240.208C82.3598 242.224 81.8958 244.016 80.9678 245.584C80.0398 247.136 78.7518 248.36 77.1038 249.256C75.4558 250.136 73.5518 250.576 71.3918 250.576ZM71.3918 244.576C72.2238 244.576 72.9438 244.392 73.5518 244.024C74.1598 243.656 74.6318 243.136 74.9678 242.464C75.3038 241.792 75.4718 241.032 75.4718 240.184C75.4718 239.32 75.3038 238.552 74.9678 237.88C74.6318 237.208 74.1598 236.68 73.5518 236.296C72.9438 235.912 72.2238 235.72 71.3918 235.72C70.5598 235.72 69.8318 235.912 69.2078 236.296C68.5998 236.68 68.1198 237.208 67.7678 237.88C67.4318 238.552 67.2638 239.32 67.2638 240.184C67.2638 241.032 67.4318 241.792 67.7678 242.464C68.1198 243.136 68.5998 243.656 69.2078 244.024C69.8318 244.392 70.5598 244.576 71.3918 244.576ZM84.3806 230.296H92.1806L96.9326 243.376L101.709 230.296H109.461L101.205 250H92.6606L84.3806 230.296ZM122.439 250.576C120.279 250.576 118.359 250.136 116.679 249.256C115.015 248.36 113.703 247.136 112.743 245.584C111.799 244.016 111.327 242.224 111.327 240.208C111.327 238.192 111.799 236.4 112.743 234.832C113.703 233.248 115.015 232 116.679 231.088C118.359 230.176 120.279 229.72 122.439 229.72C124.599 229.72 126.503 230.176 128.151 231.088C129.799 232 131.087 233.248 132.015 234.832C132.943 236.4 133.407 238.192 133.407 240.208C133.407 242.224 132.943 244.016 132.015 245.584C131.087 247.136 129.799 248.36 128.151 249.256C126.503 250.136 124.599 250.576 122.439 250.576ZM122.439 244.576C123.271 244.576 123.991 244.392 124.599 244.024C125.207 243.656 125.679 243.136 126.015 242.464C126.351 241.792 126.519 241.032 126.519 240.184C126.519 239.32 126.351 238.552 126.015 237.88C125.679 237.208 125.207 236.68 124.599 236.296C123.991 235.912 123.271 235.72 122.439 235.72C121.607 235.72 120.879 235.912 120.255 236.296C119.647 236.68 119.167 237.208 118.815 237.88C118.479 238.552 118.311 239.32 118.311 240.184C118.311 241.032 118.479 241.792 118.815 242.464C119.167 243.136 119.647 243.656 120.255 244.024C120.879 244.392 121.607 244.576 122.439 244.576ZM160.587 244.84C161.499 244.84 162.251 244.688 162.843 244.384C163.435 244.064 163.835 243.808 164.043 243.616L167.379 248.56C167.123 248.768 166.683 249.04 166.059 249.376C165.435 249.696 164.651 249.976 163.707 250.216C162.779 250.456 161.715 250.576 160.515 250.576C158.259 250.576 156.275 250.152 154.563 249.304C152.851 248.44 151.515 247.224 150.555 245.656C149.611 244.088 149.139 242.248 149.139 240.136C149.139 238.008 149.611 236.168 150.555 234.616C151.515 233.064 152.851 231.864 154.563 231.016C156.275 230.152 158.259 229.72 160.515 229.72C161.699 229.72 162.755 229.848 163.683 230.104C164.627 230.344 165.419 230.624 166.059 230.944C166.699 231.248 167.147 231.512 167.403 231.736L163.995 236.728C163.883 236.616 163.675 236.456 163.371 236.248C163.083 236.04 162.707 235.856 162.243 235.696C161.779 235.536 161.227 235.456 160.587 235.456C159.803 235.456 159.067 235.656 158.379 236.056C157.707 236.456 157.163 237.008 156.747 237.712C156.331 238.416 156.123 239.224 156.123 240.136C156.123 241.048 156.331 241.864 156.747 242.584C157.163 243.288 157.707 243.84 158.379 244.24C159.067 244.64 159.803 244.84 160.587 244.84ZM180.376 250.576C178.216 250.576 176.296 250.136 174.616 249.256C172.952 248.36 171.64 247.136 170.68 245.584C169.736 244.016 169.264 242.224 169.264 240.208C169.264 238.192 169.736 236.4 170.68 234.832C171.64 233.248 172.952 232 174.616 231.088C176.296 230.176 178.216 229.72 180.376 229.72C182.536 229.72 184.44 230.176 186.088 231.088C187.736 232 189.024 233.248 189.952 234.832C190.88 236.4 191.344 238.192 191.344 240.208C191.344 242.224 190.88 244.016 189.952 245.584C189.024 247.136 187.736 248.36 186.088 249.256C184.44 250.136 182.536 250.576 180.376 250.576ZM180.376 244.576C181.208 244.576 181.928 244.392 182.536 244.024C183.144 243.656 183.616 243.136 183.952 242.464C184.288 241.792 184.456 241.032 184.456 240.184C184.456 239.32 184.288 238.552 183.952 237.88C183.616 237.208 183.144 236.68 182.536 236.296C181.928 235.912 181.208 235.72 180.376 235.72C179.544 235.72 178.816 235.912 178.192 236.296C177.584 236.68 177.104 237.208 176.752 237.88C176.416 238.552 176.248 239.32 176.248 240.184C176.248 241.032 176.416 241.792 176.752 242.464C177.104 243.136 177.584 243.656 178.192 244.024C178.816 244.392 179.544 244.576 180.376 244.576ZM208.701 229.72C210.077 229.72 211.421 230 212.733 230.56C214.045 231.12 215.125 232.008 215.973 233.224C216.821 234.424 217.245 236.008 217.245 237.976V250H209.925V239.176C209.925 237.768 209.589 236.712 208.917 236.008C208.245 235.288 207.365 234.928 206.277 234.928C205.557 234.928 204.877 235.12 204.237 235.504C203.613 235.872 203.101 236.4 202.701 237.088C202.317 237.76 202.125 238.536 202.125 239.416V250H194.829V230.296H202.125V233.2C202.317 232.672 202.717 232.144 203.325 231.616C203.949 231.072 204.725 230.624 205.653 230.272C206.597 229.904 207.613 229.72 208.701 229.72ZM219.805 230.296H223.165V222.208H230.389V230.296H234.805V236.296H230.389V241.792C230.389 242.608 230.509 243.272 230.749 243.784C230.989 244.28 231.429 244.528 232.069 244.528C232.501 244.528 232.869 244.432 233.173 244.24C233.477 244.048 233.661 243.92 233.725 243.856L236.221 249.04C236.109 249.136 235.757 249.312 235.165 249.568C234.589 249.824 233.853 250.056 232.957 250.264C232.061 250.472 231.061 250.576 229.957 250.576C227.989 250.576 226.365 250.024 225.085 248.92C223.805 247.8 223.165 246.08 223.165 243.76V236.296H219.805V230.296ZM244.73 241.696C244.778 242.4 245.002 243.024 245.402 243.568C245.802 244.112 246.354 244.544 247.058 244.864C247.778 245.168 248.626 245.32 249.602 245.32C250.53 245.32 251.362 245.224 252.098 245.032C252.85 244.84 253.498 244.6 254.042 244.312C254.602 244.024 255.034 243.728 255.338 243.424L258.17 247.936C257.77 248.368 257.202 248.792 256.466 249.208C255.746 249.608 254.794 249.936 253.61 250.192C252.426 250.448 250.93 250.576 249.122 250.576C246.946 250.576 245.01 250.168 243.314 249.352C241.618 248.536 240.282 247.336 239.306 245.752C238.33 244.168 237.842 242.232 237.842 239.944C237.842 238.024 238.258 236.296 239.09 234.76C239.938 233.208 241.162 231.984 242.762 231.088C244.362 230.176 246.29 229.72 248.546 229.72C250.69 229.72 252.546 230.112 254.114 230.896C255.698 231.68 256.914 232.848 257.762 234.4C258.626 235.936 259.058 237.856 259.058 240.16C259.058 240.288 259.05 240.544 259.034 240.928C259.034 241.312 259.018 241.568 258.986 241.696H244.73ZM252.194 237.88C252.178 237.368 252.042 236.864 251.786 236.368C251.53 235.856 251.146 235.44 250.634 235.12C250.122 234.784 249.466 234.616 248.666 234.616C247.866 234.616 247.186 234.776 246.626 235.096C246.082 235.4 245.666 235.8 245.378 236.296C245.09 236.792 244.93 237.32 244.898 237.88H252.194ZM269.741 239.416C269.741 240.984 270.037 242.24 270.629 243.184C271.221 244.112 272.213 244.576 273.605 244.576C275.029 244.576 276.029 244.112 276.605 243.184C277.197 242.24 277.493 240.984 277.493 239.416V230.296H284.693V240.184C284.693 242.296 284.253 244.136 283.373 245.704C282.509 247.256 281.253 248.456 279.605 249.304C277.957 250.152 275.957 250.576 273.605 250.576C271.269 250.576 269.277 250.152 267.629 249.304C265.981 248.456 264.725 247.256 263.861 245.704C262.997 244.136 262.565 242.296 262.565 240.184V230.296H269.741V239.416ZM270.509 228.112L268.373 225.16L276.173 218.44L279.629 222.784L270.509 228.112ZM297.573 250.576C295.669 250.576 294.013 250.112 292.605 249.184C291.197 248.24 290.101 246.984 289.317 245.416C288.549 243.832 288.165 242.08 288.165 240.16C288.165 238.24 288.549 236.496 289.317 234.928C290.101 233.344 291.197 232.08 292.605 231.136C294.013 230.192 295.669 229.72 297.573 229.72C298.837 229.72 299.957 229.92 300.933 230.32C301.909 230.704 302.701 231.168 303.309 231.712C303.917 232.24 304.285 232.728 304.413 233.176V216.976H311.709V250H304.485V246.808C304.181 247.4 303.685 247.992 302.997 248.584C302.309 249.16 301.501 249.632 300.573 250C299.645 250.384 298.645 250.576 297.573 250.576ZM299.805 244.84C300.685 244.84 301.469 244.64 302.157 244.24C302.861 243.84 303.413 243.288 303.813 242.584C304.213 241.864 304.413 241.056 304.413 240.16C304.413 239.264 304.213 238.464 303.813 237.76C303.413 237.04 302.861 236.48 302.157 236.08C301.469 235.664 300.685 235.456 299.805 235.456C298.957 235.456 298.189 235.664 297.501 236.08C296.829 236.48 296.293 237.04 295.893 237.76C295.509 238.464 295.317 239.264 295.317 240.16C295.317 241.056 295.509 241.864 295.893 242.584C296.293 243.288 296.829 243.84 297.501 244.24C298.189 244.64 298.957 244.84 299.805 244.84ZM325.97 250.576C323.81 250.576 321.89 250.136 320.21 249.256C318.546 248.36 317.234 247.136 316.274 245.584C315.33 244.016 314.858 242.224 314.858 240.208C314.858 238.192 315.33 236.4 316.274 234.832C317.234 233.248 318.546 232 320.21 231.088C321.89 230.176 323.81 229.72 325.97 229.72C328.13 229.72 330.034 230.176 331.682 231.088C333.33 232 334.618 233.248 335.546 234.832C336.474 236.4 336.938 238.192 336.938 240.208C336.938 242.224 336.474 244.016 335.546 245.584C334.618 247.136 333.33 248.36 331.682 249.256C330.034 250.136 328.13 250.576 325.97 250.576ZM325.97 244.576C326.802 244.576 327.522 244.392 328.13 244.024C328.738 243.656 329.21 243.136 329.546 242.464C329.882 241.792 330.05 241.032 330.05 240.184C330.05 239.32 329.882 238.552 329.546 237.88C329.21 237.208 328.738 236.68 328.13 236.296C327.522 235.912 326.802 235.72 325.97 235.72C325.138 235.72 324.41 235.912 323.786 236.296C323.178 236.68 322.698 237.208 322.346 237.88C322.01 238.552 321.842 239.32 321.842 240.184C321.842 241.032 322.01 241.792 322.346 242.464C322.698 243.136 323.178 243.656 323.786 244.024C324.41 244.392 325.138 244.576 325.97 244.576ZM343.207 239.656L341.719 216.976H349.591L348.103 239.656H343.207ZM345.631 250.576C344.847 250.576 344.127 250.384 343.471 250C342.815 249.6 342.287 249.072 341.887 248.416C341.487 247.76 341.287 247.032 341.287 246.232C341.287 245.016 341.711 243.976 342.559 243.112C343.423 242.248 344.447 241.816 345.631 241.816C346.863 241.816 347.903 242.248 348.751 243.112C349.599 243.976 350.023 245.016 350.023 246.232C350.023 247.416 349.599 248.44 348.751 249.304C347.903 250.152 346.863 250.576 345.631 250.576Z" fill="#F2F2F2"/>
<path d="M98.7639 343.268C99.7402 342.291 99.7402 340.709 98.7639 339.732L82.854 323.822C81.8777 322.846 80.2947 322.846 79.3184 323.822C78.3421 324.799 78.3421 326.382 79.3184 327.358L93.4606 341.5L79.3184 355.642C78.3421 356.618 78.3421 358.201 79.3184 359.178C80.2947 360.154 81.8777 360.154 82.854 359.178L98.7639 343.268ZM36.9961 344H96.9961V339H36.9961V344Z" fill="white"/>
<path d="M122.794 349H118.804L112.154 330.52H116.088L120.806 344.604L125.524 330.52H129.458L122.794 349ZM132.477 344.044C132.505 344.567 132.645 345.033 132.897 345.444C133.149 345.855 133.513 346.177 133.989 346.41C134.474 346.643 135.053 346.76 135.725 346.76C136.332 346.76 136.864 346.685 137.321 346.536C137.788 346.387 138.18 346.205 138.497 345.99C138.824 345.766 139.066 345.551 139.225 345.346L140.695 347.53C140.434 347.857 140.084 348.16 139.645 348.44C139.216 348.711 138.665 348.925 137.993 349.084C137.33 349.252 136.5 349.336 135.501 349.336C134.241 349.336 133.135 349.089 132.183 348.594C131.231 348.099 130.489 347.385 129.957 346.452C129.425 345.519 129.159 344.408 129.159 343.12C129.159 342 129.397 340.992 129.873 340.096C130.349 339.191 131.04 338.477 131.945 337.954C132.86 337.431 133.956 337.17 135.235 337.17C136.439 337.17 137.48 337.403 138.357 337.87C139.244 338.327 139.93 338.999 140.415 339.886C140.9 340.773 141.143 341.855 141.143 343.134C141.143 343.209 141.138 343.363 141.129 343.596C141.129 343.82 141.12 343.969 141.101 344.044H132.477ZM137.811 341.846C137.802 341.547 137.708 341.225 137.531 340.88C137.363 340.535 137.097 340.241 136.733 339.998C136.369 339.755 135.884 339.634 135.277 339.634C134.67 339.634 134.171 339.751 133.779 339.984C133.396 340.217 133.107 340.507 132.911 340.852C132.715 341.188 132.603 341.519 132.575 341.846H137.811ZM143.418 355.16C142.662 355.16 142.037 355.081 141.542 354.922C141.038 354.773 140.665 354.619 140.422 354.46L141.584 351.8C141.724 351.912 141.878 351.996 142.046 352.052C142.205 352.117 142.41 352.15 142.662 352.15C142.98 352.15 143.232 352.057 143.418 351.87C143.614 351.693 143.754 351.431 143.838 351.086C143.922 350.741 143.964 350.325 143.964 349.84V337.506H147.52V350.484C147.52 351.38 147.38 352.178 147.1 352.878C146.83 353.587 146.391 354.143 145.784 354.544C145.187 354.955 144.398 355.16 143.418 355.16ZM145.798 334.538C145.22 334.538 144.725 334.333 144.314 333.922C143.904 333.511 143.698 333.021 143.698 332.452C143.698 332.069 143.792 331.719 143.978 331.402C144.174 331.085 144.431 330.828 144.748 330.632C145.066 330.436 145.416 330.338 145.798 330.338C146.181 330.338 146.531 330.436 146.848 330.632C147.166 330.819 147.418 331.071 147.604 331.388C147.8 331.705 147.898 332.06 147.898 332.452C147.898 333.021 147.693 333.511 147.282 333.922C146.872 334.333 146.377 334.538 145.798 334.538ZM159.793 349V346.998C159.709 347.203 159.494 347.493 159.149 347.866C158.804 348.239 158.337 348.58 157.749 348.888C157.17 349.187 156.489 349.336 155.705 349.336C154.604 349.336 153.628 349.075 152.779 348.552C151.93 348.02 151.262 347.297 150.777 346.382C150.301 345.458 150.063 344.417 150.063 343.26C150.063 342.103 150.301 341.067 150.777 340.152C151.262 339.228 151.93 338.5 152.779 337.968C153.628 337.436 154.604 337.17 155.705 337.17C156.47 337.17 157.133 337.301 157.693 337.562C158.262 337.814 158.72 338.113 159.065 338.458C159.42 338.794 159.648 339.097 159.751 339.368V337.506H163.279V349H159.793ZM153.549 343.26C153.549 343.904 153.694 344.473 153.983 344.968C154.272 345.453 154.655 345.831 155.131 346.102C155.607 346.373 156.125 346.508 156.685 346.508C157.273 346.508 157.796 346.373 158.253 346.102C158.71 345.822 159.07 345.439 159.331 344.954C159.602 344.459 159.737 343.895 159.737 343.26C159.737 342.625 159.602 342.065 159.331 341.58C159.07 341.085 158.71 340.698 158.253 340.418C157.796 340.138 157.273 339.998 156.685 339.998C156.125 339.998 155.607 340.138 155.131 340.418C154.655 340.689 154.272 341.071 153.983 341.566C153.694 342.051 153.549 342.616 153.549 343.26ZM188.48 337.17C189.339 337.17 190.086 337.352 190.72 337.716C191.364 338.08 191.864 338.64 192.218 339.396C192.582 340.143 192.764 341.104 192.764 342.28V349H189.264V342.854C189.264 341.883 189.12 341.127 188.83 340.586C188.55 340.045 188.014 339.774 187.22 339.774C186.772 339.774 186.362 339.895 185.988 340.138C185.615 340.371 185.316 340.717 185.092 341.174C184.878 341.631 184.77 342.191 184.77 342.854V349H181.494V342.854C181.494 341.883 181.331 341.127 181.004 340.586C180.678 340.045 180.16 339.774 179.45 339.774C178.993 339.774 178.578 339.891 178.204 340.124C177.84 340.357 177.551 340.703 177.336 341.16C177.131 341.608 177.028 342.173 177.028 342.854V349H173.5V337.506H177.028V339.186C177.131 338.897 177.364 338.598 177.728 338.29C178.102 337.982 178.564 337.721 179.114 337.506C179.665 337.282 180.258 337.17 180.892 337.17C181.583 337.17 182.157 337.287 182.614 337.52C183.072 337.753 183.44 338.052 183.72 338.416C184.01 338.771 184.229 339.144 184.378 339.536C184.509 339.172 184.766 338.808 185.148 338.444C185.531 338.08 186.012 337.777 186.59 337.534C187.169 337.291 187.799 337.17 188.48 337.17ZM204.609 349V346.998C204.525 347.203 204.311 347.493 203.965 347.866C203.62 348.239 203.153 348.58 202.565 348.888C201.987 349.187 201.305 349.336 200.521 349.336C199.42 349.336 198.445 349.075 197.595 348.552C196.746 348.02 196.079 347.297 195.593 346.382C195.117 345.458 194.879 344.417 194.879 343.26C194.879 342.103 195.117 341.067 195.593 340.152C196.079 339.228 196.746 338.5 197.595 337.968C198.445 337.436 199.42 337.17 200.521 337.17C201.287 337.17 201.949 337.301 202.509 337.562C203.079 337.814 203.536 338.113 203.881 338.458C204.236 338.794 204.465 339.097 204.567 339.368V337.506H208.095V349H204.609ZM198.365 343.26C198.365 343.904 198.51 344.473 198.799 344.968C199.089 345.453 199.471 345.831 199.947 346.102C200.423 346.373 200.941 346.508 201.501 346.508C202.089 346.508 202.612 346.373 203.069 346.102C203.527 345.822 203.886 345.439 204.147 344.954C204.418 344.459 204.553 343.895 204.553 343.26C204.553 342.625 204.418 342.065 204.147 341.58C203.886 341.085 203.527 340.698 203.069 340.418C202.612 340.138 202.089 339.998 201.501 339.998C200.941 339.998 200.423 340.138 199.947 340.418C199.471 340.689 199.089 341.071 198.799 341.566C198.51 342.051 198.365 342.616 198.365 343.26ZM211.211 349V337.506H214.753V349H211.211ZM213.031 334.538C212.443 334.538 211.943 334.333 211.533 333.922C211.131 333.511 210.931 333.021 210.931 332.452C210.931 331.883 211.136 331.388 211.547 330.968C211.957 330.548 212.452 330.338 213.031 330.338C213.413 330.338 213.763 330.436 214.081 330.632C214.398 330.819 214.655 331.071 214.851 331.388C215.047 331.705 215.145 332.06 215.145 332.452C215.145 333.021 214.935 333.511 214.515 333.922C214.104 334.333 213.609 334.538 213.031 334.538ZM222.817 337.17C223.508 337.17 224.147 337.235 224.735 337.366C225.323 337.487 225.818 337.627 226.219 337.786C226.63 337.945 226.901 338.08 227.031 338.192L225.813 340.334C225.627 340.185 225.291 340.007 224.805 339.802C224.329 339.597 223.797 339.494 223.209 339.494C222.677 339.494 222.229 339.587 221.865 339.774C221.501 339.951 221.319 340.222 221.319 340.586C221.319 340.95 221.515 341.239 221.907 341.454C222.299 341.669 222.845 341.855 223.545 342.014C224.133 342.135 224.712 342.322 225.281 342.574C225.851 342.817 226.322 343.171 226.695 343.638C227.069 344.095 227.255 344.707 227.255 345.472C227.255 346.228 227.092 346.858 226.765 347.362C226.448 347.857 226.023 348.249 225.491 348.538C224.959 348.827 224.376 349.033 223.741 349.154C223.107 349.275 222.477 349.336 221.851 349.336C221.039 349.336 220.325 349.257 219.709 349.098C219.093 348.949 218.585 348.776 218.183 348.58C217.791 348.375 217.511 348.202 217.343 348.062L218.561 345.682C218.804 345.897 219.201 346.135 219.751 346.396C220.311 346.648 220.913 346.774 221.557 346.774C222.229 346.774 222.757 346.657 223.139 346.424C223.531 346.191 223.727 345.878 223.727 345.486C223.727 345.197 223.634 344.963 223.447 344.786C223.261 344.599 223.004 344.445 222.677 344.324C222.351 344.203 221.968 344.095 221.529 344.002C221.128 343.918 220.717 343.797 220.297 343.638C219.877 343.47 219.485 343.251 219.121 342.98C218.757 342.709 218.463 342.373 218.239 341.972C218.015 341.561 217.903 341.071 217.903 340.502C217.903 339.774 218.137 339.167 218.603 338.682C219.07 338.187 219.677 337.814 220.423 337.562C221.17 337.301 221.968 337.17 222.817 337.17ZM231.327 343.316L230.585 329.736H234.463L233.721 343.316H231.327ZM232.503 349.336C232.092 349.336 231.714 349.233 231.369 349.028C231.024 348.823 230.744 348.547 230.529 348.202C230.324 347.857 230.221 347.474 230.221 347.054C230.221 346.41 230.445 345.864 230.893 345.416C231.341 344.968 231.878 344.744 232.503 344.744C233.147 344.744 233.693 344.968 234.141 345.416C234.589 345.864 234.813 346.41 234.813 347.054C234.813 347.679 234.589 348.216 234.141 348.664C233.693 349.112 233.147 349.336 232.503 349.336Z" fill="#F2F2F2"/>
<defs>
<linearGradient id="paint0_linear_214_3826" x1="591.269" y1="175.786" x2="598.465" y2="255.142" gradientUnits="userSpaceOnUse">
<stop stop-color="#F2F2F2"/>
<stop offset="1" stop-color="#6893EF"/>
</linearGradient>
<linearGradient id="paint1_linear_214_3826" x1="591.269" y1="175.786" x2="598.465" y2="255.142" gradientUnits="userSpaceOnUse">
<stop stop-color="#F2F2F2"/>
<stop offset="1" stop-color="#6893EF"/>
</linearGradient>
<linearGradient id="paint2_linear_214_3826" x1="706.794" y1="223.904" x2="688.967" y2="301.565" gradientUnits="userSpaceOnUse">
<stop stop-color="#F2F2F2"/>
<stop offset="1" stop-color="#6893EF"/>
</linearGradient>
<linearGradient id="paint3_linear_214_3826" x1="706.794" y1="223.904" x2="688.967" y2="301.565" gradientUnits="userSpaceOnUse">
<stop stop-color="#F2F2F2"/>
<stop offset="1" stop-color="#6893EF"/>
</linearGradient>
<linearGradient id="paint4_linear_214_3826" x1="579.078" y1="309.976" x2="631.823" y2="370.299" gradientUnits="userSpaceOnUse">
<stop stop-color="#F2F2F2"/>
<stop offset="1" stop-color="#6893EF"/>
</linearGradient>
<linearGradient id="paint5_linear_214_3826" x1="579.078" y1="309.976" x2="631.823" y2="370.299" gradientUnits="userSpaceOnUse">
<stop stop-color="#F2F2F2"/>
<stop offset="1" stop-color="#6893EF"/>
</linearGradient>
<linearGradient id="paint6_linear_214_3826" x1="651.569" y1="193.834" x2="650.887" y2="160.212" gradientUnits="userSpaceOnUse">
<stop stop-color="#F2F2F2"/>
<stop offset="1" stop-color="#6893EF"/>
</linearGradient>
<linearGradient id="paint7_linear_214_3826" x1="651.569" y1="193.834" x2="650.887" y2="160.212" gradientUnits="userSpaceOnUse">
<stop stop-color="#F2F2F2"/>
<stop offset="1" stop-color="#6893EF"/>
</linearGradient>
<linearGradient id="paint8_linear_214_3826" x1="542.569" y1="372.834" x2="541.887" y2="339.212" gradientUnits="userSpaceOnUse">
<stop stop-color="#F2F2F2"/>
<stop offset="1" stop-color="#6893EF"/>
</linearGradient>
<linearGradient id="paint9_linear_214_3826" x1="542.569" y1="372.834" x2="541.887" y2="339.212" gradientUnits="userSpaceOnUse">
<stop stop-color="#F2F2F2"/>
<stop offset="1" stop-color="#6893EF"/>
</linearGradient>
<linearGradient id="paint10_linear_214_3826" x1="733.453" y1="192.359" x2="714.628" y2="164.494" gradientUnits="userSpaceOnUse">
<stop stop-color="#F2F2F2"/>
<stop offset="1" stop-color="#6893EF"/>
</linearGradient>
<linearGradient id="paint11_linear_214_3826" x1="733.453" y1="192.359" x2="714.628" y2="164.494" gradientUnits="userSpaceOnUse">
<stop stop-color="#F2F2F2"/>
<stop offset="1" stop-color="#6893EF"/>
</linearGradient>
<linearGradient id="paint12_linear_214_3826" x1="675.596" y1="367.502" x2="695.842" y2="340.651" gradientUnits="userSpaceOnUse">
<stop stop-color="#F2F2F2"/>
<stop offset="1" stop-color="#6893EF"/>
</linearGradient>
<linearGradient id="paint13_linear_214_3826" x1="675.596" y1="367.502" x2="695.842" y2="340.651" gradientUnits="userSpaceOnUse">
<stop stop-color="#F2F2F2"/>
<stop offset="1" stop-color="#6893EF"/>
</linearGradient>
<linearGradient id="paint14_linear_214_3826" x1="544.123" y1="278.816" x2="564.369" y2="251.965" gradientUnits="userSpaceOnUse">
<stop stop-color="#F2F2F2"/>
<stop offset="1" stop-color="#6893EF"/>
</linearGradient>
<linearGradient id="paint15_linear_214_3826" x1="544.123" y1="278.816" x2="564.369" y2="251.965" gradientUnits="userSpaceOnUse">
<stop stop-color="#F2F2F2"/>
<stop offset="1" stop-color="#6893EF"/>
</linearGradient>
<linearGradient id="paint16_linear_214_3826" x1="640.569" y1="304.834" x2="639.887" y2="271.212" gradientUnits="userSpaceOnUse">
<stop stop-color="#F2F2F2"/>
<stop offset="1" stop-color="#6893EF"/>
</linearGradient>
<linearGradient id="paint17_linear_214_3826" x1="640.569" y1="304.834" x2="639.887" y2="271.212" gradientUnits="userSpaceOnUse">
<stop stop-color="#F2F2F2"/>
<stop offset="1" stop-color="#6893EF"/>
</linearGradient>
<linearGradient id="paint18_linear_214_3826" x1="528.569" y1="189.834" x2="527.887" y2="156.212" gradientUnits="userSpaceOnUse">
<stop stop-color="#F2F2F2"/>
<stop offset="1" stop-color="#6893EF"/>
</linearGradient>
<linearGradient id="paint19_linear_214_3826" x1="528.569" y1="189.834" x2="527.887" y2="156.212" gradientUnits="userSpaceOnUse">
<stop stop-color="#F2F2F2"/>
<stop offset="1" stop-color="#6893EF"/>
</linearGradient>
<linearGradient id="paint20_linear_214_3826" x1="752.569" y1="338.834" x2="751.887" y2="305.212" gradientUnits="userSpaceOnUse">
<stop stop-color="#F2F2F2"/>
<stop offset="1" stop-color="#6893EF"/>
</linearGradient>
<linearGradient id="paint21_linear_214_3826" x1="752.569" y1="338.834" x2="751.887" y2="305.212" gradientUnits="userSpaceOnUse">
<stop stop-color="#F2F2F2"/>
<stop offset="1" stop-color="#6893EF"/>
</linearGradient>
</defs>
</svg>
