<svg width="839" height="1025" viewBox="0 0 839 1025" fill="none" xmlns="http://www.w3.org/2000/svg">
<rect y="9.44922" width="836" height="336.516" rx="50" fill="#F9A5A5"/>
<path d="M47 169.4C48.9 169.4 50.5583 169.142 51.975 168.625C53.4083 168.092 54.45 167.567 55.1 167.05L57.35 171.55C56.6 172.217 55.2917 172.892 53.425 173.575C51.5583 174.258 49.325 174.6 46.725 174.6C44.2917 174.6 42.025 174.167 39.925 173.3C37.825 172.433 35.9833 171.233 34.4 169.7C32.8167 168.15 31.5833 166.342 30.7 164.275C29.8167 162.208 29.375 159.967 29.375 157.55C29.375 155.133 29.8167 152.883 30.7 150.8C31.5833 148.717 32.8083 146.9 34.375 145.35C35.9583 143.8 37.8 142.592 39.9 141.725C42.0167 140.842 44.2917 140.4 46.725 140.4C49.325 140.4 51.5583 140.742 53.425 141.425C55.2917 142.108 56.6 142.783 57.35 143.45L55.1 147.95C54.45 147.433 53.4083 146.917 51.975 146.4C50.5583 145.867 48.9 145.6 47 145.6C45.2 145.6 43.5667 145.9 42.1 146.5C40.6333 147.1 39.375 147.942 38.325 149.025C37.275 150.108 36.4667 151.375 35.9 152.825C35.3333 154.258 35.05 155.808 35.05 157.475C35.05 159.158 35.3333 160.725 35.9 162.175C36.4667 163.625 37.275 164.892 38.325 165.975C39.375 167.058 40.6333 167.9 42.1 168.5C43.5667 169.1 45.2 169.4 47 169.4ZM72.0371 174.6C69.8871 174.6 67.9704 174.133 66.2871 173.2C64.6204 172.25 63.3121 170.967 62.3621 169.35C61.4121 167.717 60.9371 165.867 60.9371 163.8C60.9371 161.733 61.4121 159.875 62.3621 158.225C63.3121 156.575 64.6204 155.275 66.2871 154.325C67.9704 153.358 69.8871 152.875 72.0371 152.875C74.1871 152.875 76.0871 153.358 77.7371 154.325C79.3871 155.275 80.6788 156.575 81.6121 158.225C82.5621 159.875 83.0371 161.733 83.0371 163.8C83.0371 165.867 82.5621 167.717 81.6121 169.35C80.6788 170.967 79.3871 172.25 77.7371 173.2C76.0871 174.133 74.1871 174.6 72.0371 174.6ZM72.0371 170.1C73.2371 170.1 74.2788 169.825 75.1621 169.275C76.0454 168.725 76.7288 167.975 77.2121 167.025C77.6954 166.075 77.9371 164.992 77.9371 163.775C77.9371 162.558 77.6954 161.475 77.2121 160.525C76.7288 159.558 76.0454 158.792 75.1621 158.225C74.2788 157.658 73.2371 157.375 72.0371 157.375C70.8371 157.375 69.7871 157.658 68.8871 158.225C68.0038 158.792 67.3121 159.558 66.8121 160.525C66.3288 161.475 66.0871 162.558 66.0871 163.775C66.0871 164.992 66.3288 166.075 66.8121 167.025C67.3121 167.975 68.0038 168.725 68.8871 169.275C69.7871 169.825 70.8371 170.1 72.0371 170.1ZM99.8301 152.875C101.213 152.875 102.555 153.158 103.855 153.725C105.155 154.292 106.222 155.2 107.055 156.45C107.905 157.683 108.33 159.292 108.33 161.275V174H102.955V162.25C102.955 160.4 102.513 159.042 101.63 158.175C100.763 157.292 99.6384 156.85 98.2551 156.85C97.3384 156.85 96.4634 157.108 95.6301 157.625C94.7967 158.142 94.1134 158.842 93.5801 159.725C93.0634 160.608 92.8051 161.625 92.8051 162.775V174H87.4551V153.475H92.8051V156.925C92.9551 156.358 93.3551 155.767 94.0051 155.15C94.6717 154.517 95.5134 153.983 96.5301 153.55C97.5467 153.1 98.6467 152.875 99.8301 152.875ZM111.853 153.475H115.803V147.775C115.803 145.725 116.186 144.058 116.953 142.775C117.72 141.475 118.695 140.525 119.878 139.925C121.078 139.308 122.311 139 123.578 139C125.128 139 126.311 139.217 127.128 139.65C127.961 140.067 128.47 140.358 128.653 140.525L126.553 144.525C126.453 144.425 126.203 144.25 125.803 144C125.403 143.733 124.861 143.6 124.178 143.6C123.678 143.6 123.195 143.717 122.728 143.95C122.278 144.183 121.895 144.642 121.578 145.325C121.261 146.008 121.103 147.008 121.103 148.325V153.475H126.728V157.975H121.103V174H115.803V157.975H111.853V153.475ZM130.828 174V153.475H136.153V174H130.828ZM133.553 147.325C132.653 147.325 131.878 147 131.228 146.35C130.595 145.7 130.278 144.925 130.278 144.025C130.278 143.125 130.595 142.35 131.228 141.7C131.878 141.033 132.653 140.7 133.553 140.7C134.153 140.7 134.703 140.858 135.203 141.175C135.72 141.475 136.128 141.875 136.428 142.375C136.745 142.858 136.903 143.408 136.903 144.025C136.903 144.925 136.578 145.7 135.928 146.35C135.278 147 134.486 147.325 133.553 147.325ZM147.464 174H142.139V153.475H147.464V156.9H147.339C147.456 156.483 147.772 155.967 148.289 155.35C148.822 154.717 149.556 154.15 150.489 153.65C151.422 153.133 152.547 152.875 153.864 152.875C154.814 152.875 155.664 153.008 156.414 153.275C157.164 153.542 157.697 153.808 158.014 154.075L155.864 158.475C155.647 158.208 155.239 157.95 154.639 157.7C154.056 157.433 153.331 157.3 152.464 157.3C151.381 157.3 150.464 157.617 149.714 158.25C148.981 158.883 148.422 159.642 148.039 160.525C147.656 161.408 147.464 162.233 147.464 163V174ZM176.414 174V170.2C176.28 170.6 175.897 171.15 175.264 171.85C174.647 172.55 173.797 173.183 172.714 173.75C171.647 174.317 170.38 174.6 168.914 174.6C166.997 174.6 165.272 174.142 163.739 173.225C162.205 172.308 160.997 171.033 160.114 169.4C159.23 167.767 158.789 165.883 158.789 163.75C158.789 161.617 159.23 159.733 160.114 158.1C160.997 156.467 162.205 155.192 163.739 154.275C165.272 153.342 166.997 152.875 168.914 152.875C170.347 152.875 171.589 153.125 172.639 153.625C173.689 154.125 174.53 154.7 175.164 155.35C175.814 156 176.214 156.567 176.364 157.05V153.475H181.664V174H176.414ZM164.064 163.75C164.064 165.067 164.355 166.217 164.939 167.2C165.522 168.183 166.28 168.942 167.214 169.475C168.164 170.008 169.18 170.275 170.264 170.275C171.43 170.275 172.464 170 173.364 169.45C174.28 168.9 174.997 168.142 175.514 167.175C176.047 166.192 176.314 165.05 176.314 163.75C176.314 162.45 176.047 161.317 175.514 160.35C174.997 159.367 174.28 158.6 173.364 158.05C172.464 157.483 171.43 157.2 170.264 157.2C169.18 157.2 168.164 157.475 167.214 158.025C166.28 158.558 165.522 159.317 164.939 160.3C164.355 161.283 164.064 162.433 164.064 163.75ZM216.16 174V170.2C216.026 170.6 215.643 171.15 215.01 171.85C214.393 172.55 213.543 173.183 212.46 173.75C211.393 174.317 210.126 174.6 208.66 174.6C206.743 174.6 205.018 174.142 203.485 173.225C201.951 172.308 200.743 171.033 199.86 169.4C198.976 167.767 198.535 165.883 198.535 163.75C198.535 161.617 198.976 159.733 199.86 158.1C200.743 156.467 201.951 155.192 203.485 154.275C205.018 153.342 206.743 152.875 208.66 152.875C210.093 152.875 211.335 153.125 212.385 153.625C213.435 154.125 214.276 154.7 214.91 155.35C215.56 156 215.96 156.567 216.11 157.05V153.475H221.41V174H216.16ZM203.81 163.75C203.81 165.067 204.101 166.217 204.685 167.2C205.268 168.183 206.026 168.942 206.96 169.475C207.91 170.008 208.926 170.275 210.01 170.275C211.176 170.275 212.21 170 213.11 169.45C214.026 168.9 214.743 168.142 215.26 167.175C215.793 166.192 216.06 165.05 216.06 163.75C216.06 162.45 215.793 161.317 215.26 160.35C214.743 159.367 214.026 158.6 213.11 158.05C212.21 157.483 211.176 157.2 210.01 157.2C208.926 157.2 207.91 157.475 206.96 158.025C206.026 158.558 205.268 159.317 204.685 160.3C204.101 161.283 203.81 162.433 203.81 163.75ZM235.061 152.875C236.211 152.875 237.277 152.983 238.261 153.2C239.244 153.417 240.086 153.675 240.786 153.975C241.486 154.275 241.969 154.525 242.236 154.725L240.286 158.025C239.952 157.742 239.352 157.417 238.486 157.05C237.636 156.683 236.677 156.5 235.611 156.5C234.544 156.5 233.644 156.692 232.911 157.075C232.177 157.458 231.811 158.033 231.811 158.8C231.811 159.55 232.194 160.15 232.961 160.6C233.744 161.05 234.802 161.425 236.136 161.725C237.236 161.975 238.286 162.325 239.286 162.775C240.286 163.208 241.102 163.833 241.736 164.65C242.386 165.45 242.711 166.525 242.711 167.875C242.711 169.158 242.436 170.233 241.886 171.1C241.352 171.95 240.636 172.633 239.736 173.15C238.836 173.667 237.836 174.033 236.736 174.25C235.652 174.483 234.561 174.6 233.461 174.6C232.111 174.6 230.902 174.467 229.836 174.2C228.786 173.933 227.911 173.625 227.211 173.275C226.511 172.908 226.011 172.6 225.711 172.35L227.661 168.65C228.094 169.067 228.802 169.508 229.786 169.975C230.769 170.425 231.869 170.65 233.086 170.65C234.386 170.65 235.427 170.4 236.211 169.9C236.994 169.4 237.386 168.733 237.386 167.9C237.386 167.283 237.194 166.783 236.811 166.4C236.444 166.017 235.936 165.708 235.286 165.475C234.636 165.242 233.911 165.033 233.111 164.85C232.361 164.667 231.602 164.433 230.836 164.15C230.086 163.85 229.394 163.467 228.761 163C228.127 162.517 227.619 161.917 227.236 161.2C226.852 160.483 226.661 159.642 226.661 158.675C226.661 157.442 227.052 156.392 227.836 155.525C228.619 154.658 229.652 154 230.936 153.55C232.219 153.1 233.594 152.875 235.061 152.875ZM276.463 174V170.2C276.329 170.6 275.946 171.15 275.313 171.85C274.696 172.55 273.846 173.183 272.763 173.75C271.696 174.317 270.429 174.6 268.963 174.6C267.046 174.6 265.321 174.142 263.788 173.225C262.254 172.308 261.046 171.033 260.163 169.4C259.279 167.767 258.838 165.883 258.838 163.75C258.838 161.617 259.279 159.733 260.163 158.1C261.046 156.467 262.254 155.192 263.788 154.275C265.321 153.342 267.046 152.875 268.963 152.875C270.396 152.875 271.638 153.125 272.688 153.625C273.738 154.125 274.579 154.7 275.213 155.35C275.863 156 276.263 156.567 276.413 157.05V153.475H281.713V174H276.463ZM264.112 163.75C264.112 165.067 264.404 166.217 264.988 167.2C265.571 168.183 266.329 168.942 267.263 169.475C268.213 170.008 269.229 170.275 270.312 170.275C271.479 170.275 272.513 170 273.413 169.45C274.329 168.9 275.046 168.142 275.563 167.175C276.096 166.192 276.363 165.05 276.363 163.75C276.363 162.45 276.096 161.317 275.563 160.35C275.046 159.367 274.329 158.6 273.413 158.05C272.513 157.483 271.479 157.2 270.312 157.2C269.229 157.2 268.213 157.475 267.263 158.025C266.329 158.558 265.571 159.317 264.988 160.3C264.404 161.283 264.112 162.433 264.112 163.75ZM285.463 153.475H289.313V145.05H294.613V153.475H299.688V157.975H294.613V166.75C294.613 167.85 294.797 168.675 295.163 169.225C295.547 169.775 296.088 170.05 296.788 170.05C297.372 170.05 297.83 169.942 298.163 169.725C298.513 169.508 298.722 169.358 298.788 169.275L300.763 173.15C300.663 173.25 300.372 173.417 299.888 173.65C299.405 173.883 298.78 174.1 298.013 174.3C297.247 174.5 296.372 174.6 295.388 174.6C293.655 174.6 292.205 174.083 291.038 173.05C289.888 172.017 289.313 170.4 289.313 168.2V157.975H285.463V153.475ZM304.654 174V153.475H309.979V174H304.654ZM307.379 147.325C306.479 147.325 305.704 147 305.054 146.35C304.421 145.7 304.104 144.925 304.104 144.025C304.104 143.125 304.421 142.35 305.054 141.7C305.704 141.033 306.479 140.7 307.379 140.7C307.979 140.7 308.529 140.858 309.029 141.175C309.546 141.475 309.954 141.875 310.254 142.375C310.571 142.858 310.729 143.408 310.729 144.025C310.729 144.925 310.404 145.7 309.754 146.35C309.104 147 308.313 147.325 307.379 147.325ZM314.217 153.475H319.942L326.117 169.1L332.292 153.475H337.992L329.267 174H322.992L314.217 153.475ZM342.203 174V153.475H347.528V174H342.203ZM344.928 147.325C344.028 147.325 343.253 147 342.603 146.35C341.97 145.7 341.653 144.925 341.653 144.025C341.653 143.125 341.97 142.35 342.603 141.7C343.253 141.033 344.028 140.7 344.928 140.7C345.528 140.7 346.078 140.858 346.578 141.175C347.095 141.475 347.503 141.875 347.803 142.375C348.12 142.858 348.278 143.408 348.278 144.025C348.278 144.925 347.953 145.7 347.303 146.35C346.653 147 345.861 147.325 344.928 147.325ZM362.741 174.6C360.808 174.6 359.099 174.142 357.616 173.225C356.133 172.308 354.966 171.033 354.116 169.4C353.283 167.767 352.866 165.883 352.866 163.75C352.866 161.617 353.283 159.733 354.116 158.1C354.966 156.467 356.133 155.192 357.616 154.275C359.099 153.342 360.808 152.875 362.741 152.875C364.174 152.875 365.449 153.125 366.566 153.625C367.683 154.108 368.574 154.675 369.241 155.325C369.908 155.975 370.299 156.55 370.416 157.05V139.6H375.766V174H370.491V170.2C370.258 170.783 369.783 171.417 369.066 172.1C368.349 172.783 367.441 173.375 366.341 173.875C365.258 174.358 364.058 174.6 362.741 174.6ZM364.116 170.275C365.283 170.275 366.341 170 367.291 169.45C368.241 168.9 368.999 168.142 369.566 167.175C370.133 166.192 370.416 165.05 370.416 163.75C370.416 162.45 370.133 161.317 369.566 160.35C368.999 159.367 368.241 158.6 367.291 158.05C366.341 157.483 365.283 157.2 364.116 157.2C363.049 157.2 362.058 157.475 361.141 158.025C360.241 158.558 359.516 159.317 358.966 160.3C358.416 161.283 358.141 162.433 358.141 163.75C358.141 165.067 358.416 166.217 358.966 167.2C359.516 168.183 360.241 168.942 361.141 169.475C362.058 170.008 363.049 170.275 364.116 170.275ZM396.775 174V170.2C396.642 170.6 396.258 171.15 395.625 171.85C395.008 172.55 394.158 173.183 393.075 173.75C392.008 174.317 390.742 174.6 389.275 174.6C387.358 174.6 385.633 174.142 384.1 173.225C382.567 172.308 381.358 171.033 380.475 169.4C379.592 167.767 379.15 165.883 379.15 163.75C379.15 161.617 379.592 159.733 380.475 158.1C381.358 156.467 382.567 155.192 384.1 154.275C385.633 153.342 387.358 152.875 389.275 152.875C390.708 152.875 391.95 153.125 393 153.625C394.05 154.125 394.892 154.7 395.525 155.35C396.175 156 396.575 156.567 396.725 157.05V153.475H402.025V174H396.775ZM384.425 163.75C384.425 165.067 384.717 166.217 385.3 167.2C385.883 168.183 386.642 168.942 387.575 169.475C388.525 170.008 389.542 170.275 390.625 170.275C391.792 170.275 392.825 170 393.725 169.45C394.642 168.9 395.358 168.142 395.875 167.175C396.408 166.192 396.675 165.05 396.675 163.75C396.675 162.45 396.408 161.317 395.875 160.35C395.358 159.367 394.642 158.6 393.725 158.05C392.825 157.483 391.792 157.2 390.625 157.2C389.542 157.2 388.525 157.475 387.575 158.025C386.642 158.558 385.883 159.317 385.3 160.3C384.717 161.283 384.425 162.433 384.425 163.75ZM416.501 174.6C414.567 174.6 412.859 174.142 411.376 173.225C409.892 172.308 408.726 171.033 407.876 169.4C407.042 167.767 406.626 165.883 406.626 163.75C406.626 161.617 407.042 159.733 407.876 158.1C408.726 156.467 409.892 155.192 411.376 154.275C412.859 153.342 414.567 152.875 416.501 152.875C417.934 152.875 419.209 153.125 420.326 153.625C421.442 154.108 422.334 154.675 423.001 155.325C423.667 155.975 424.059 156.55 424.176 157.05V139.6H429.526V174H424.251V170.2C424.017 170.783 423.542 171.417 422.826 172.1C422.109 172.783 421.201 173.375 420.101 173.875C419.017 174.358 417.817 174.6 416.501 174.6ZM417.876 170.275C419.042 170.275 420.101 170 421.051 169.45C422.001 168.9 422.759 168.142 423.326 167.175C423.892 166.192 424.176 165.05 424.176 163.75C424.176 162.45 423.892 161.317 423.326 160.35C422.759 159.367 422.001 158.6 421.051 158.05C420.101 157.483 419.042 157.2 417.876 157.2C416.809 157.2 415.817 157.475 414.901 158.025C414.001 158.558 413.276 159.317 412.726 160.3C412.176 161.283 411.901 162.433 411.901 163.75C411.901 165.067 412.176 166.217 412.726 167.2C413.276 168.183 414.001 168.942 414.901 169.475C415.817 170.008 416.809 170.275 417.876 170.275ZM437.91 165C437.943 166.083 438.201 167.058 438.685 167.925C439.168 168.792 439.876 169.475 440.81 169.975C441.76 170.458 442.918 170.7 444.285 170.7C445.468 170.7 446.485 170.542 447.335 170.225C448.201 169.892 448.918 169.5 449.485 169.05C450.051 168.583 450.468 168.15 450.735 167.75L453.11 170.975C452.593 171.675 451.943 172.3 451.16 172.85C450.376 173.4 449.401 173.825 448.235 174.125C447.085 174.442 445.66 174.6 443.96 174.6C441.726 174.6 439.785 174.142 438.135 173.225C436.485 172.308 435.201 171.017 434.285 169.35C433.385 167.683 432.935 165.733 432.935 163.5C432.935 161.5 433.351 159.7 434.185 158.1C435.018 156.483 436.226 155.208 437.81 154.275C439.41 153.342 441.326 152.875 443.56 152.875C445.643 152.875 447.451 153.292 448.985 154.125C450.518 154.958 451.701 156.158 452.535 157.725C453.385 159.275 453.81 161.15 453.81 163.35C453.81 163.483 453.801 163.758 453.785 164.175C453.785 164.592 453.768 164.867 453.735 165H437.91ZM448.81 161.1C448.793 160.567 448.61 159.958 448.26 159.275C447.926 158.592 447.385 158 446.635 157.5C445.885 156.983 444.885 156.725 443.635 156.725C442.351 156.725 441.31 156.975 440.51 157.475C439.71 157.958 439.118 158.542 438.735 159.225C438.351 159.892 438.126 160.517 438.06 161.1H448.81ZM466.506 152.875C467.656 152.875 468.723 152.983 469.706 153.2C470.689 153.417 471.531 153.675 472.231 153.975C472.931 154.275 473.414 154.525 473.681 154.725L471.731 158.025C471.398 157.742 470.798 157.417 469.931 157.05C469.081 156.683 468.123 156.5 467.056 156.5C465.989 156.5 465.089 156.692 464.356 157.075C463.623 157.458 463.256 158.033 463.256 158.8C463.256 159.55 463.639 160.15 464.406 160.6C465.189 161.05 466.248 161.425 467.581 161.725C468.681 161.975 469.731 162.325 470.731 162.775C471.731 163.208 472.548 163.833 473.181 164.65C473.831 165.45 474.156 166.525 474.156 167.875C474.156 169.158 473.881 170.233 473.331 171.1C472.798 171.95 472.081 172.633 471.181 173.15C470.281 173.667 469.281 174.033 468.181 174.25C467.098 174.483 466.006 174.6 464.906 174.6C463.556 174.6 462.348 174.467 461.281 174.2C460.231 173.933 459.356 173.625 458.656 173.275C457.956 172.908 457.456 172.6 457.156 172.35L459.106 168.65C459.539 169.067 460.248 169.508 461.231 169.975C462.214 170.425 463.314 170.65 464.531 170.65C465.831 170.65 466.873 170.4 467.656 169.9C468.439 169.4 468.831 168.733 468.831 167.9C468.831 167.283 468.639 166.783 468.256 166.4C467.889 166.017 467.381 165.708 466.731 165.475C466.081 165.242 465.356 165.033 464.556 164.85C463.806 164.667 463.048 164.433 462.281 164.15C461.531 163.85 460.839 163.467 460.206 163C459.573 162.517 459.064 161.917 458.681 161.2C458.298 160.483 458.106 159.642 458.106 158.675C458.106 157.442 458.498 156.392 459.281 155.525C460.064 154.658 461.098 154 462.381 153.55C463.664 153.1 465.039 152.875 466.506 152.875ZM35.55 220H30.225V199.475H35.55V202.9H35.425C35.5417 202.483 35.8583 201.967 36.375 201.35C36.9083 200.717 37.6417 200.15 38.575 199.65C39.5083 199.133 40.6333 198.875 41.95 198.875C42.9 198.875 43.75 199.008 44.5 199.275C45.25 199.542 45.7833 199.808 46.1 200.075L43.95 204.475C43.7333 204.208 43.325 203.95 42.725 203.7C42.1417 203.433 41.4167 203.3 40.55 203.3C39.4667 203.3 38.55 203.617 37.8 204.25C37.0667 204.883 36.5083 205.642 36.125 206.525C35.7417 207.408 35.55 208.233 35.55 209V220ZM51.8746 211C51.9079 212.083 52.1663 213.058 52.6496 213.925C53.1329 214.792 53.8413 215.475 54.7746 215.975C55.7246 216.458 56.8829 216.7 58.2496 216.7C59.4329 216.7 60.4496 216.542 61.2996 216.225C62.1663 215.892 62.8829 215.5 63.4496 215.05C64.0163 214.583 64.4329 214.15 64.6996 213.75L67.0746 216.975C66.5579 217.675 65.9079 218.3 65.1246 218.85C64.3413 219.4 63.3663 219.825 62.1996 220.125C61.0496 220.442 59.6246 220.6 57.9246 220.6C55.6913 220.6 53.7496 220.142 52.0996 219.225C50.4496 218.308 49.1663 217.017 48.2496 215.35C47.3496 213.683 46.8996 211.733 46.8996 209.5C46.8996 207.5 47.3163 205.7 48.1496 204.1C48.9829 202.483 50.1913 201.208 51.7746 200.275C53.3746 199.342 55.2913 198.875 57.5246 198.875C59.6079 198.875 61.4163 199.292 62.9496 200.125C64.4829 200.958 65.6663 202.158 66.4996 203.725C67.3496 205.275 67.7746 207.15 67.7746 209.35C67.7746 209.483 67.7663 209.758 67.7496 210.175C67.7496 210.592 67.7329 210.867 67.6996 211H51.8746ZM62.7746 207.1C62.7579 206.567 62.5746 205.958 62.2246 205.275C61.8913 204.592 61.3496 204 60.5996 203.5C59.8496 202.983 58.8496 202.725 57.5996 202.725C56.3163 202.725 55.2746 202.975 54.4746 203.475C53.6746 203.958 53.0829 204.542 52.6996 205.225C52.3163 205.892 52.0913 206.517 52.0246 207.1H62.7746ZM82.4457 216.275C83.629 216.275 84.5874 216.083 85.3207 215.7C86.0707 215.3 86.554 215.008 86.7707 214.825L89.2957 218.575C89.0957 218.742 88.679 218.992 88.0457 219.325C87.4124 219.642 86.604 219.933 85.6207 220.2C84.654 220.467 83.554 220.6 82.3207 220.6C80.2874 220.6 78.4374 220.175 76.7707 219.325C75.1207 218.458 73.7957 217.217 72.7957 215.6C71.8124 213.967 71.3207 212.008 71.3207 209.725C71.3207 207.425 71.8124 205.467 72.7957 203.85C73.7957 202.233 75.1207 201 76.7707 200.15C78.4374 199.3 80.2874 198.875 82.3207 198.875C83.5374 198.875 84.6207 199.017 85.5707 199.3C86.5374 199.567 87.3374 199.875 87.9707 200.225C88.604 200.575 89.029 200.85 89.2457 201.05L86.6707 204.8C86.554 204.683 86.3124 204.5 85.9457 204.25C85.5957 203.983 85.129 203.742 84.5457 203.525C83.9624 203.308 83.2624 203.2 82.4457 203.2C81.4457 203.2 80.4874 203.467 79.5707 204C78.654 204.533 77.904 205.292 77.3207 206.275C76.7374 207.242 76.4457 208.392 76.4457 209.725C76.4457 211.058 76.7374 212.217 77.3207 213.2C77.904 214.183 78.654 214.942 79.5707 215.475C80.4874 216.008 81.4457 216.275 82.4457 216.275ZM96.8941 211C96.9275 212.083 97.1858 213.058 97.6691 213.925C98.1525 214.792 98.8608 215.475 99.7941 215.975C100.744 216.458 101.902 216.7 103.269 216.7C104.452 216.7 105.469 216.542 106.319 216.225C107.186 215.892 107.902 215.5 108.469 215.05C109.036 214.583 109.452 214.15 109.719 213.75L112.094 216.975C111.577 217.675 110.927 218.3 110.144 218.85C109.361 219.4 108.386 219.825 107.219 220.125C106.069 220.442 104.644 220.6 102.944 220.6C100.711 220.6 98.7691 220.142 97.1191 219.225C95.4691 218.308 94.1858 217.017 93.2691 215.35C92.3691 213.683 91.9191 211.733 91.9191 209.5C91.9191 207.5 92.3358 205.7 93.1691 204.1C94.0025 202.483 95.2108 201.208 96.7941 200.275C98.3941 199.342 100.311 198.875 102.544 198.875C104.627 198.875 106.436 199.292 107.969 200.125C109.502 200.958 110.686 202.158 111.519 203.725C112.369 205.275 112.794 207.15 112.794 209.35C112.794 209.483 112.786 209.758 112.769 210.175C112.769 210.592 112.752 210.867 112.719 211H96.8941ZM107.794 207.1C107.777 206.567 107.594 205.958 107.244 205.275C106.911 204.592 106.369 204 105.619 203.5C104.869 202.983 103.869 202.725 102.619 202.725C101.336 202.725 100.294 202.975 99.4941 203.475C98.6941 203.958 98.1025 204.542 97.7191 205.225C97.3358 205.892 97.1108 206.517 97.0441 207.1H107.794ZM117.24 220V185.6H122.59V203.05C122.707 202.55 123.099 201.975 123.765 201.325C124.432 200.675 125.324 200.108 126.44 199.625C127.557 199.125 128.832 198.875 130.265 198.875C132.199 198.875 133.907 199.342 135.39 200.275C136.874 201.192 138.032 202.467 138.865 204.1C139.715 205.733 140.14 207.617 140.14 209.75C140.14 211.883 139.715 213.767 138.865 215.4C138.032 217.033 136.874 218.308 135.39 219.225C133.907 220.142 132.199 220.6 130.265 220.6C128.949 220.6 127.74 220.358 126.64 219.875C125.557 219.375 124.657 218.783 123.94 218.1C123.224 217.417 122.749 216.783 122.515 216.2V220H117.24ZM134.865 209.75C134.865 208.433 134.59 207.283 134.04 206.3C133.49 205.317 132.765 204.558 131.865 204.025C130.965 203.475 129.974 203.2 128.89 203.2C127.724 203.2 126.665 203.483 125.715 204.05C124.765 204.6 124.007 205.367 123.44 206.35C122.874 207.317 122.59 208.45 122.59 209.75C122.59 211.05 122.874 212.192 123.44 213.175C124.007 214.142 124.765 214.9 125.715 215.45C126.665 216 127.724 216.275 128.89 216.275C129.974 216.275 130.965 216.008 131.865 215.475C132.765 214.942 133.49 214.183 134.04 213.2C134.59 212.217 134.865 211.067 134.865 209.75ZM144.449 220V199.475H149.774V220H144.449ZM147.174 193.325C146.274 193.325 145.499 193 144.849 192.35C144.216 191.7 143.899 190.925 143.899 190.025C143.899 189.125 144.216 188.35 144.849 187.7C145.499 187.033 146.274 186.7 147.174 186.7C147.774 186.7 148.324 186.858 148.824 187.175C149.341 187.475 149.749 187.875 150.049 188.375C150.366 188.858 150.524 189.408 150.524 190.025C150.524 190.925 150.199 191.7 149.549 192.35C148.899 193 148.108 193.325 147.174 193.325ZM164.987 220.6C163.054 220.6 161.345 220.142 159.862 219.225C158.379 218.308 157.212 217.033 156.362 215.4C155.529 213.767 155.112 211.883 155.112 209.75C155.112 207.617 155.529 205.733 156.362 204.1C157.212 202.467 158.379 201.192 159.862 200.275C161.345 199.342 163.054 198.875 164.987 198.875C166.42 198.875 167.695 199.125 168.812 199.625C169.929 200.108 170.82 200.675 171.487 201.325C172.154 201.975 172.545 202.55 172.662 203.05V185.6H178.012V220H172.737V216.2C172.504 216.783 172.029 217.417 171.312 218.1C170.595 218.783 169.687 219.375 168.587 219.875C167.504 220.358 166.304 220.6 164.987 220.6ZM166.362 216.275C167.529 216.275 168.587 216 169.537 215.45C170.487 214.9 171.245 214.142 171.812 213.175C172.379 212.192 172.662 211.05 172.662 209.75C172.662 208.45 172.379 207.317 171.812 206.35C171.245 205.367 170.487 204.6 169.537 204.05C168.587 203.483 167.529 203.2 166.362 203.2C165.295 203.2 164.304 203.475 163.387 204.025C162.487 204.558 161.762 205.317 161.212 206.3C160.662 207.283 160.387 208.433 160.387 209.75C160.387 211.067 160.662 212.217 161.212 213.2C161.762 214.183 162.487 214.942 163.387 215.475C164.304 216.008 165.295 216.275 166.362 216.275ZM199.021 220V216.2C198.888 216.6 198.504 217.15 197.871 217.85C197.254 218.55 196.404 219.183 195.321 219.75C194.254 220.317 192.988 220.6 191.521 220.6C189.604 220.6 187.879 220.142 186.346 219.225C184.813 218.308 183.604 217.033 182.721 215.4C181.838 213.767 181.396 211.883 181.396 209.75C181.396 207.617 181.838 205.733 182.721 204.1C183.604 202.467 184.813 201.192 186.346 200.275C187.879 199.342 189.604 198.875 191.521 198.875C192.954 198.875 194.196 199.125 195.246 199.625C196.296 200.125 197.138 200.7 197.771 201.35C198.421 202 198.821 202.567 198.971 203.05V199.475H204.271V220H199.021ZM186.671 209.75C186.671 211.067 186.963 212.217 187.546 213.2C188.129 214.183 188.888 214.942 189.821 215.475C190.771 216.008 191.788 216.275 192.871 216.275C194.038 216.275 195.071 216 195.971 215.45C196.888 214.9 197.604 214.142 198.121 213.175C198.654 212.192 198.921 211.05 198.921 209.75C198.921 208.45 198.654 207.317 198.121 206.35C197.604 205.367 196.888 204.6 195.971 204.05C195.071 203.483 194.038 203.2 192.871 203.2C191.788 203.2 190.771 203.475 189.821 204.025C188.888 204.558 188.129 205.317 187.546 206.3C186.963 207.283 186.671 208.433 186.671 209.75ZM217.922 198.875C219.072 198.875 220.139 198.983 221.122 199.2C222.105 199.417 222.947 199.675 223.647 199.975C224.347 200.275 224.83 200.525 225.097 200.725L223.147 204.025C222.814 203.742 222.214 203.417 221.347 203.05C220.497 202.683 219.539 202.5 218.472 202.5C217.405 202.5 216.505 202.692 215.772 203.075C215.039 203.458 214.672 204.033 214.672 204.8C214.672 205.55 215.055 206.15 215.822 206.6C216.605 207.05 217.664 207.425 218.997 207.725C220.097 207.975 221.147 208.325 222.147 208.775C223.147 209.208 223.964 209.833 224.597 210.65C225.247 211.45 225.572 212.525 225.572 213.875C225.572 215.158 225.297 216.233 224.747 217.1C224.214 217.95 223.497 218.633 222.597 219.15C221.697 219.667 220.697 220.033 219.597 220.25C218.514 220.483 217.422 220.6 216.322 220.6C214.972 220.6 213.764 220.467 212.697 220.2C211.647 219.933 210.772 219.625 210.072 219.275C209.372 218.908 208.872 218.6 208.572 218.35L210.522 214.65C210.955 215.067 211.664 215.508 212.647 215.975C213.63 216.425 214.73 216.65 215.947 216.65C217.247 216.65 218.289 216.4 219.072 215.9C219.855 215.4 220.247 214.733 220.247 213.9C220.247 213.283 220.055 212.783 219.672 212.4C219.305 212.017 218.797 211.708 218.147 211.475C217.497 211.242 216.772 211.033 215.972 210.85C215.222 210.667 214.464 210.433 213.697 210.15C212.947 209.85 212.255 209.467 211.622 209C210.989 208.517 210.48 207.917 210.097 207.2C209.714 206.483 209.522 205.642 209.522 204.675C209.522 203.442 209.914 202.392 210.697 201.525C211.48 200.658 212.514 200 213.797 199.55C215.08 199.1 216.455 198.875 217.922 198.875ZM235.104 220.6C234.087 220.6 233.212 220.242 232.479 219.525C231.762 218.792 231.404 217.908 231.404 216.875C231.404 215.842 231.762 214.958 232.479 214.225C233.212 213.492 234.087 213.125 235.104 213.125C236.154 213.125 237.037 213.492 237.754 214.225C238.487 214.958 238.854 215.842 238.854 216.875C238.854 217.908 238.487 218.792 237.754 219.525C237.037 220.242 236.154 220.6 235.104 220.6ZM250.484 220.6C249.468 220.6 248.593 220.242 247.859 219.525C247.143 218.792 246.784 217.908 246.784 216.875C246.784 215.842 247.143 214.958 247.859 214.225C248.593 213.492 249.468 213.125 250.484 213.125C251.534 213.125 252.418 213.492 253.134 214.225C253.868 214.958 254.234 215.842 254.234 216.875C254.234 217.908 253.868 218.792 253.134 219.525C252.418 220.242 251.534 220.6 250.484 220.6ZM265.865 220.6C264.849 220.6 263.974 220.242 263.24 219.525C262.524 218.792 262.165 217.908 262.165 216.875C262.165 215.842 262.524 214.958 263.24 214.225C263.974 213.492 264.849 213.125 265.865 213.125C266.915 213.125 267.799 213.492 268.515 214.225C269.249 214.958 269.615 215.842 269.615 216.875C269.615 217.908 269.249 218.792 268.515 219.525C267.799 220.242 266.915 220.6 265.865 220.6Z" fill="white"/>
<path d="M557.587 17.2921C558.162 15.4013 560.838 15.4013 561.413 17.2921L578.547 73.6332C578.715 74.1853 579.113 74.638 579.64 74.875L626.95 96.1763C628.521 96.8841 628.521 99.1159 626.95 99.8237L579.64 121.125C579.113 121.362 578.715 121.815 578.547 122.367L561.413 178.708C560.838 180.599 558.162 180.599 557.587 178.708L540.453 122.367C540.285 121.815 539.887 121.362 539.36 121.125L492.05 99.8237C490.478 99.1159 490.478 96.8841 492.05 96.1763L539.36 74.875C539.887 74.638 540.285 74.1853 540.453 73.6332L557.587 17.2921Z" fill="#FFDADA"/>
<path d="M758.587 177.292C759.162 175.401 761.838 175.401 762.413 177.292L779.547 233.633C779.715 234.185 780.113 234.638 780.64 234.875L827.95 256.176C829.521 256.884 829.521 259.116 827.95 259.824L780.64 281.125C780.113 281.362 779.715 281.815 779.547 282.367L762.413 338.708C761.838 340.599 759.162 340.599 758.587 338.708L741.453 282.367C741.285 281.815 740.887 281.362 740.36 281.125L693.05 259.824C691.478 259.116 691.478 256.884 693.05 256.176L740.36 234.875C740.887 234.638 741.285 234.185 741.453 233.633L758.587 177.292Z" fill="#FFDADA"/>
<path d="M745.575 33.8378C746.122 31.8938 748.878 31.8938 749.425 33.8378L751.983 42.9239C752.138 43.4735 752.52 43.9308 753.034 44.1805L761.302 48.2014C762.802 48.9311 762.802 51.0689 761.302 51.7986L753.034 55.8195C752.52 56.0692 752.138 56.5265 751.983 57.0761L749.425 66.1622C748.878 68.1062 746.122 68.1062 745.575 66.1622L743.017 57.0761C742.862 56.5265 742.48 56.0692 741.966 55.8195L733.698 51.7986C732.198 51.0689 732.198 48.9311 733.698 48.2014L741.966 44.1805C742.48 43.9308 742.862 43.4735 743.017 42.9239L745.575 33.8378Z" fill="#FFDADA"/>
<path d="M819.575 168.838C820.122 166.894 822.878 166.894 823.425 168.838L825.983 177.924C826.138 178.474 826.52 178.931 827.034 179.18L835.302 183.201C836.802 183.931 836.802 186.069 835.302 186.799L827.034 190.82C826.52 191.069 826.138 191.526 825.983 192.076L823.425 201.162C822.878 203.106 820.122 203.106 819.575 201.162L817.017 192.076C816.862 191.526 816.48 191.069 815.966 190.82L807.698 186.799C806.198 186.069 806.198 183.931 807.698 183.201L815.966 179.18C816.48 178.931 816.862 178.474 817.017 177.924L819.575 168.838Z" fill="#FFDADA"/>
<path d="M780.575 106.838C781.122 104.894 783.878 104.894 784.425 106.838L786.983 115.924C787.138 116.474 787.52 116.931 788.034 117.18L796.302 121.201C797.802 121.931 797.802 124.069 796.302 124.799L788.034 128.82C787.52 129.069 787.138 129.526 786.983 130.076L784.425 139.162C783.878 141.106 781.122 141.106 780.575 139.162L778.017 130.076C777.862 129.526 777.48 129.069 776.966 128.82L768.698 124.799C767.198 124.069 767.198 121.931 768.698 121.201L776.966 117.18C777.48 116.931 777.862 116.474 778.017 115.924L780.575 106.838Z" fill="#FFDADA"/>
<path d="M527.575 264.838C528.122 262.894 530.878 262.894 531.425 264.838L533.983 273.924C534.138 274.474 534.52 274.931 535.034 275.18L543.302 279.201C544.802 279.931 544.802 282.069 543.302 282.799L535.034 286.82C534.52 287.069 534.138 287.526 533.983 288.076L531.425 297.162C530.878 299.106 528.122 299.106 527.575 297.162L525.017 288.076C524.862 287.526 524.48 287.069 523.966 286.82L515.698 282.799C514.198 282.069 514.198 279.931 515.698 279.201L523.966 275.18C524.48 274.931 524.862 274.474 525.017 273.924L527.575 264.838Z" fill="#FFDADA"/>
<path d="M471.652 278.958C472.644 277.217 475.296 277.855 475.387 279.857L476.229 298.246C476.255 298.819 476.526 299.353 476.972 299.713L489.955 310.165C491.271 311.224 490.763 313.336 489.109 313.681L472.792 317.082C472.231 317.199 471.747 317.551 471.463 318.05L462.347 334.043C461.355 335.784 458.703 335.146 458.612 333.144L457.771 314.754C457.744 314.182 457.474 313.648 457.027 313.288L444.044 302.836C442.728 301.777 443.237 299.664 444.89 299.32L461.207 295.919C461.768 295.802 462.252 295.449 462.536 294.951L471.652 278.958Z" fill="#FFDADA"/>
<path d="M473.824 23.8599C473.003 22.0317 475.082 20.2667 476.753 21.3734L492.1 31.5391C492.578 31.8558 493.169 31.952 493.723 31.8034L509.821 27.483C511.452 27.0452 512.858 28.7013 512.161 30.2397L505.285 45.4228C505.048 45.9452 505.047 46.544 505.282 47.0671L512.822 63.8606C513.643 65.6888 511.563 67.4538 509.893 66.3471L494.546 56.1814C494.068 55.8647 493.477 55.7685 492.923 55.9171L476.825 60.2375C475.194 60.6753 473.788 59.0192 474.485 57.4808L481.361 42.2977C481.598 41.7753 481.599 41.1765 481.364 40.6534L473.824 23.8599Z" fill="#FFDADA"/>
<path d="M593.048 324.958C593.346 324.034 594.654 324.034 594.952 324.958L596.561 329.959C596.65 330.235 596.854 330.459 597.121 330.573L601.838 332.58C602.649 332.925 602.649 334.075 601.838 334.42L597.121 336.427C596.854 336.541 596.65 336.765 596.561 337.041L594.952 342.042C594.654 342.966 593.346 342.966 593.048 342.042L591.439 337.041C591.35 336.765 591.146 336.541 590.879 336.427L586.162 334.42C585.351 334.075 585.351 332.925 586.162 332.58L590.879 330.573C591.146 330.459 591.35 330.235 591.439 329.959L593.048 324.958Z" fill="#FFDADA"/>
<path d="M636.062 42.5345C636.384 41.6639 637.616 41.6639 637.938 42.5345L639.541 46.8679C639.643 47.1416 639.858 47.3574 640.132 47.4587L644.465 49.0621C645.336 49.3843 645.336 50.6157 644.465 50.9379L640.132 52.5413C639.858 52.6426 639.643 52.8584 639.541 53.1321L637.938 57.4655C637.616 58.3361 636.384 58.3361 636.062 57.4655L634.459 53.1321C634.357 52.8584 634.142 52.6426 633.868 52.5413L629.535 50.9379C628.664 50.6157 628.664 49.3843 629.535 49.0621L633.868 47.4587C634.142 47.3574 634.357 47.1416 634.459 46.8679L636.062 42.5345Z" fill="#FFDADA"/>
<path d="M742.062 164.535C742.384 163.664 743.616 163.664 743.938 164.535L745.541 168.868C745.643 169.142 745.858 169.357 746.132 169.459L750.465 171.062C751.336 171.384 751.336 172.616 750.465 172.938L746.132 174.541C745.858 174.643 745.643 174.858 745.541 175.132L743.938 179.465C743.616 180.336 742.384 180.336 742.062 179.465L740.459 175.132C740.357 174.858 740.142 174.643 739.868 174.541L735.535 172.938C734.664 172.616 734.664 171.384 735.535 171.062L739.868 169.459C740.142 169.357 740.357 169.142 740.459 168.868L742.062 164.535Z" fill="#FFDADA"/>
<path d="M601.047 239.435C600.887 237.462 603.385 236.481 604.611 238.036L613.932 249.857C614.289 250.31 614.824 250.587 615.4 250.616L629.441 251.336C631.158 251.424 631.971 253.495 630.773 254.727L620.973 264.808C620.571 265.221 620.367 265.788 620.413 266.363L621.626 281.369C621.785 283.342 619.287 284.323 618.062 282.768L608.74 270.947C608.383 270.494 607.848 270.217 607.272 270.187L593.231 269.468C591.514 269.38 590.701 267.309 591.9 266.076L601.7 255.996C602.102 255.582 602.306 255.016 602.259 254.441L601.047 239.435Z" fill="#FFDADA"/>
<path d="M519.671 159.706C521.26 158.459 523.485 160.084 522.781 161.977L519.489 170.824C519.29 171.359 519.33 171.953 519.597 172.458L523.904 180.581C524.685 182.055 523.425 183.781 521.783 183.486L512.734 181.858C512.172 181.757 511.594 181.901 511.145 182.254L503.721 188.084C502.133 189.331 499.907 187.706 500.611 185.813L503.903 176.966C504.102 176.431 504.063 175.837 503.795 175.332L499.488 167.209C498.707 165.735 499.967 164.009 501.61 164.304L510.658 165.932C511.22 166.033 511.798 165.889 512.247 165.536L519.671 159.706Z" fill="#FFDADA"/>
<path d="M675.49 195.166C674.953 193.219 677.311 191.794 678.785 193.174L685.675 199.626C686.092 200.016 686.656 200.21 687.224 200.158L696.38 199.321C698.041 199.169 699.147 200.998 698.241 202.399L693.246 210.118C692.936 210.597 692.845 211.186 692.997 211.737L695.509 220.836C696.047 222.782 693.689 224.208 692.214 222.828L685.324 216.376C684.907 215.986 684.344 215.792 683.775 215.844L674.619 216.681C672.958 216.833 671.852 215.003 672.758 213.603L677.753 205.884C678.063 205.405 678.154 204.816 678.002 204.265L675.49 195.166Z" fill="#FFDADA"/>
<path d="M680.241 107.692C680.16 105.731 682.659 104.839 683.838 106.409L694.492 120.585C694.839 121.047 695.37 121.337 695.947 121.378L712.443 122.563C714.179 122.688 714.938 124.816 713.674 126.012L701.655 137.373C701.235 137.77 701.007 138.33 701.031 138.908L701.759 156.626C701.84 158.588 699.341 159.479 698.162 157.91L687.508 143.734C687.161 143.271 686.63 142.982 686.053 142.94L669.557 141.755C667.821 141.631 667.062 139.502 668.326 138.307L680.345 126.946C680.765 126.549 680.993 125.989 680.969 125.41L680.241 107.692Z" fill="#FFDADA"/>
<path d="M674.879 288.393C675.091 286.385 677.807 285.921 678.675 287.745L682.727 296.27C682.972 296.785 683.426 297.172 683.974 297.331L692.801 299.902C694.403 300.368 694.763 302.476 693.407 303.448L685.935 308.804C685.471 309.137 685.171 309.652 685.111 310.22L684.121 319.607C683.909 321.615 681.192 322.08 680.325 320.256L676.273 311.73C676.028 311.215 675.574 310.828 675.026 310.669L666.199 308.098C664.597 307.632 664.236 305.525 665.592 304.553L673.065 299.196C673.529 298.863 673.829 298.348 673.888 297.781L674.879 288.393Z" fill="#FFDADA"/>
<path d="M607.575 161.838C608.122 159.894 610.878 159.894 611.425 161.838L613.983 170.924C614.138 171.474 614.52 171.931 615.034 172.18L623.302 176.201C624.802 176.931 624.802 179.069 623.302 179.799L615.034 183.82C614.52 184.069 614.138 184.526 613.983 185.076L611.425 194.162C610.878 196.106 608.122 196.106 607.575 194.162L605.017 185.076C604.862 184.526 604.48 184.069 603.966 183.82L595.698 179.799C594.198 179.069 594.198 176.931 595.698 176.201L603.966 172.18C604.48 171.931 604.862 171.474 605.017 170.924L607.575 161.838Z" fill="#FFDADA"/>
<path d="M820.707 1017.71C821.098 1017.32 821.098 1016.68 820.707 1016.29L814.343 1009.93C813.953 1009.54 813.319 1009.54 812.929 1009.93C812.538 1010.32 812.538 1010.95 812.929 1011.34L818.586 1017L812.929 1022.66C812.538 1023.05 812.538 1023.68 812.929 1024.07C813.319 1024.46 813.953 1024.46 814.343 1024.07L820.707 1017.71ZM819 1018H820V1016H819V1018Z" fill="white"/>
<rect x="41" y="281" width="167" height="43" rx="21.5" fill="#FFC0C0"/>
<path d="M64.025 290.84C65.185 290.84 66.19 290.975 67.04 291.245C67.9 291.505 68.58 291.785 69.08 292.085C69.58 292.375 69.88 292.565 69.98 292.655L68.405 295.22C68.255 295.09 67.985 294.91 67.595 294.68C67.215 294.44 66.745 294.225 66.185 294.035C65.635 293.845 65.02 293.75 64.34 293.75C63.32 293.75 62.51 293.95 61.91 294.35C61.31 294.74 61.01 295.31 61.01 296.06C61.01 296.56 61.17 297 61.49 297.38C61.81 297.76 62.265 298.115 62.855 298.445C63.455 298.775 64.17 299.11 65 299.45C65.7 299.74 66.38 300.07 67.04 300.44C67.71 300.81 68.31 301.245 68.84 301.745C69.37 302.245 69.79 302.825 70.1 303.485C70.42 304.145 70.58 304.905 70.58 305.765C70.58 306.665 70.395 307.465 70.025 308.165C69.655 308.855 69.145 309.44 68.495 309.92C67.845 310.39 67.095 310.75 66.245 311C65.405 311.24 64.505 311.36 63.545 311.36C62.285 311.36 61.15 311.21 60.14 310.91C59.14 310.6 58.33 310.28 57.71 309.95C57.09 309.61 56.73 309.39 56.63 309.29L58.295 306.605C58.415 306.705 58.635 306.855 58.955 307.055C59.285 307.245 59.69 307.45 60.17 307.67C60.65 307.88 61.18 308.06 61.76 308.21C62.35 308.35 62.96 308.42 63.59 308.42C64.8 308.42 65.715 308.16 66.335 307.64C66.955 307.11 67.265 306.43 67.265 305.6C67.265 304.97 67.065 304.425 66.665 303.965C66.275 303.495 65.735 303.07 65.045 302.69C64.365 302.31 63.59 301.935 62.72 301.565C61.83 301.175 61.005 300.735 60.245 300.245C59.495 299.755 58.89 299.16 58.43 298.46C57.97 297.75 57.74 296.89 57.74 295.88C57.74 294.87 58.025 293.99 58.595 293.24C59.175 292.48 59.94 291.89 60.89 291.47C61.84 291.05 62.885 290.84 64.025 290.84ZM83.4076 311V308.72C83.3276 308.96 83.0976 309.29 82.7176 309.71C82.3476 310.13 81.8376 310.51 81.1876 310.85C80.5476 311.19 79.7876 311.36 78.9076 311.36C77.7576 311.36 76.7226 311.085 75.8026 310.535C74.8826 309.985 74.1576 309.22 73.6276 308.24C73.0976 307.26 72.8326 306.13 72.8326 304.85C72.8326 303.57 73.0976 302.44 73.6276 301.46C74.1576 300.48 74.8826 299.715 75.8026 299.165C76.7226 298.605 77.7576 298.325 78.9076 298.325C79.7676 298.325 80.5126 298.475 81.1426 298.775C81.7726 299.075 82.2776 299.42 82.6576 299.81C83.0476 300.2 83.2876 300.54 83.3776 300.83V298.685H86.5576V311H83.4076ZM75.9976 304.85C75.9976 305.64 76.1726 306.33 76.5226 306.92C76.8726 307.51 77.3276 307.965 77.8876 308.285C78.4576 308.605 79.0676 308.765 79.7176 308.765C80.4176 308.765 81.0376 308.6 81.5776 308.27C82.1276 307.94 82.5576 307.485 82.8676 306.905C83.1876 306.315 83.3476 305.63 83.3476 304.85C83.3476 304.07 83.1876 303.39 82.8676 302.81C82.5576 302.22 82.1276 301.76 81.5776 301.43C81.0376 301.09 80.4176 300.92 79.7176 300.92C79.0676 300.92 78.4576 301.085 77.8876 301.415C77.3276 301.735 76.8726 302.19 76.5226 302.78C76.1726 303.37 75.9976 304.06 75.9976 304.85ZM90.098 311V298.685H93.293V311H90.098ZM91.733 294.995C91.193 294.995 90.728 294.8 90.338 294.41C89.958 294.02 89.768 293.555 89.768 293.015C89.768 292.475 89.958 292.01 90.338 291.62C90.728 291.22 91.193 291.02 91.733 291.02C92.093 291.02 92.423 291.115 92.723 291.305C93.033 291.485 93.278 291.725 93.458 292.025C93.648 292.315 93.743 292.645 93.743 293.015C93.743 293.555 93.548 294.02 93.158 294.41C92.768 294.8 92.293 294.995 91.733 294.995ZM96.9758 311V290.36H100.186V300.83C100.256 300.53 100.491 300.185 100.891 299.795C101.291 299.405 101.826 299.065 102.496 298.775C103.166 298.475 103.931 298.325 104.791 298.325C105.951 298.325 106.976 298.605 107.866 299.165C108.756 299.715 109.451 300.48 109.951 301.46C110.461 302.44 110.716 303.57 110.716 304.85C110.716 306.13 110.461 307.26 109.951 308.24C109.451 309.22 108.756 309.985 107.866 310.535C106.976 311.085 105.951 311.36 104.791 311.36C104.001 311.36 103.276 311.215 102.616 310.925C101.966 310.625 101.426 310.27 100.996 309.86C100.566 309.45 100.281 309.07 100.141 308.72V311H96.9758ZM107.551 304.85C107.551 304.06 107.386 303.37 107.056 302.78C106.726 302.19 106.291 301.735 105.751 301.415C105.211 301.085 104.616 300.92 103.966 300.92C103.266 300.92 102.631 301.09 102.061 301.43C101.491 301.76 101.036 302.22 100.696 302.81C100.356 303.39 100.186 304.07 100.186 304.85C100.186 305.63 100.356 306.315 100.696 306.905C101.036 307.485 101.491 307.94 102.061 308.27C102.631 308.6 103.266 308.765 103.966 308.765C104.616 308.765 105.211 308.605 105.751 308.285C106.291 307.965 106.726 307.51 107.056 306.92C107.386 306.33 107.551 305.64 107.551 304.85ZM122.841 311V308.72C122.761 308.96 122.531 309.29 122.151 309.71C121.781 310.13 121.271 310.51 120.621 310.85C119.981 311.19 119.221 311.36 118.341 311.36C117.191 311.36 116.156 311.085 115.236 310.535C114.316 309.985 113.591 309.22 113.061 308.24C112.531 307.26 112.266 306.13 112.266 304.85C112.266 303.57 112.531 302.44 113.061 301.46C113.591 300.48 114.316 299.715 115.236 299.165C116.156 298.605 117.191 298.325 118.341 298.325C119.201 298.325 119.946 298.475 120.576 298.775C121.206 299.075 121.711 299.42 122.091 299.81C122.481 300.2 122.721 300.54 122.811 300.83V298.685H125.991V311H122.841ZM115.431 304.85C115.431 305.64 115.606 306.33 115.956 306.92C116.306 307.51 116.761 307.965 117.321 308.285C117.891 308.605 118.501 308.765 119.151 308.765C119.851 308.765 120.471 308.6 121.011 308.27C121.561 307.94 121.991 307.485 122.301 306.905C122.621 306.315 122.781 305.63 122.781 304.85C122.781 304.07 122.621 303.39 122.301 302.81C121.991 302.22 121.561 301.76 121.011 301.43C120.471 301.09 119.851 300.92 119.151 300.92C118.501 300.92 117.891 301.085 117.321 301.415C116.761 301.735 116.306 302.19 115.956 302.78C115.606 303.37 115.431 304.06 115.431 304.85ZM152.344 298.325C153.264 298.325 154.054 298.52 154.714 298.91C155.384 299.3 155.899 299.9 156.259 300.71C156.629 301.52 156.814 302.555 156.814 303.815V311H153.649V304.385C153.649 303.195 153.479 302.29 153.139 301.67C152.809 301.05 152.184 300.74 151.264 300.74C150.764 300.74 150.294 300.875 149.854 301.145C149.414 301.415 149.059 301.82 148.789 302.36C148.529 302.89 148.399 303.565 148.399 304.385V311H145.429V304.385C145.429 303.195 145.224 302.29 144.814 301.67C144.414 301.05 143.814 300.74 143.014 300.74C142.504 300.74 142.034 300.87 141.604 301.13C141.174 301.39 140.829 301.79 140.569 302.33C140.309 302.87 140.179 303.555 140.179 304.385V311H136.999V298.685H140.179V300.53C140.289 300.22 140.534 299.895 140.914 299.555C141.304 299.215 141.789 298.925 142.369 298.685C142.949 298.445 143.584 298.325 144.274 298.325C145.024 298.325 145.644 298.465 146.134 298.745C146.634 299.015 147.029 299.355 147.319 299.765C147.619 300.175 147.839 300.585 147.979 300.995C148.119 300.585 148.389 300.175 148.789 299.765C149.199 299.355 149.709 299.015 150.319 298.745C150.929 298.465 151.604 298.325 152.344 298.325ZM169.921 311V308.72C169.841 308.96 169.611 309.29 169.231 309.71C168.861 310.13 168.351 310.51 167.701 310.85C167.061 311.19 166.301 311.36 165.421 311.36C164.271 311.36 163.236 311.085 162.316 310.535C161.396 309.985 160.671 309.22 160.141 308.24C159.611 307.26 159.346 306.13 159.346 304.85C159.346 303.57 159.611 302.44 160.141 301.46C160.671 300.48 161.396 299.715 162.316 299.165C163.236 298.605 164.271 298.325 165.421 298.325C166.281 298.325 167.026 298.475 167.656 298.775C168.286 299.075 168.791 299.42 169.171 299.81C169.561 300.2 169.801 300.54 169.891 300.83V298.685H173.071V311H169.921ZM162.511 304.85C162.511 305.64 162.686 306.33 163.036 306.92C163.386 307.51 163.841 307.965 164.401 308.285C164.971 308.605 165.581 308.765 166.231 308.765C166.931 308.765 167.551 308.6 168.091 308.27C168.641 307.94 169.071 307.485 169.381 306.905C169.701 306.315 169.861 305.63 169.861 304.85C169.861 304.07 169.701 303.39 169.381 302.81C169.071 302.22 168.641 301.76 168.091 301.43C167.551 301.09 166.931 300.92 166.231 300.92C165.581 300.92 164.971 301.085 164.401 301.415C163.841 301.735 163.386 302.19 163.036 302.78C162.686 303.37 162.511 304.06 162.511 304.85ZM176.612 311V298.685H179.807V311H176.612ZM178.247 294.995C177.707 294.995 177.242 294.8 176.852 294.41C176.472 294.02 176.282 293.555 176.282 293.015C176.282 292.475 176.472 292.01 176.852 291.62C177.242 291.22 177.707 291.02 178.247 291.02C178.607 291.02 178.937 291.115 179.237 291.305C179.547 291.485 179.792 291.725 179.972 292.025C180.162 292.315 180.257 292.645 180.257 293.015C180.257 293.555 180.062 294.02 179.672 294.41C179.282 294.8 178.807 294.995 178.247 294.995ZM188.439 298.325C189.129 298.325 189.769 298.39 190.359 298.52C190.949 298.65 191.454 298.805 191.874 298.985C192.294 299.165 192.584 299.315 192.744 299.435L191.574 301.415C191.374 301.245 191.014 301.05 190.494 300.83C189.984 300.61 189.409 300.5 188.769 300.5C188.129 300.5 187.589 300.615 187.149 300.845C186.709 301.075 186.489 301.42 186.489 301.88C186.489 302.33 186.719 302.69 187.179 302.96C187.649 303.23 188.284 303.455 189.084 303.635C189.744 303.785 190.374 303.995 190.974 304.265C191.574 304.525 192.064 304.9 192.444 305.39C192.834 305.87 193.029 306.515 193.029 307.325C193.029 308.095 192.864 308.74 192.534 309.26C192.214 309.77 191.784 310.18 191.244 310.49C190.704 310.8 190.104 311.02 189.444 311.15C188.794 311.29 188.139 311.36 187.479 311.36C186.669 311.36 185.944 311.28 185.304 311.12C184.674 310.96 184.149 310.775 183.729 310.565C183.309 310.345 183.009 310.16 182.829 310.01L183.999 307.79C184.259 308.04 184.684 308.305 185.274 308.585C185.864 308.855 186.524 308.99 187.254 308.99C188.034 308.99 188.659 308.84 189.129 308.54C189.599 308.24 189.834 307.84 189.834 307.34C189.834 306.97 189.719 306.67 189.489 306.44C189.269 306.21 188.964 306.025 188.574 305.885C188.184 305.745 187.749 305.62 187.269 305.51C186.819 305.4 186.364 305.26 185.904 305.09C185.454 304.91 185.039 304.68 184.659 304.4C184.279 304.11 183.974 303.75 183.744 303.32C183.514 302.89 183.399 302.385 183.399 301.805C183.399 301.065 183.634 300.435 184.104 299.915C184.574 299.395 185.194 299 185.964 298.73C186.734 298.46 187.559 298.325 188.439 298.325Z" fill="white"/>
</svg>
