<svg width="73" height="73" viewBox="0 0 73 73" fill="none" xmlns="http://www.w3.org/2000/svg">
<path d="M37.738 8.33107L41.7585 27.8195L58.5794 28.8497L44.2433 39.864L48.2638 59.3524L35.3831 46.6712L21.047 57.6855L27.4224 38.8338L14.5416 26.1526L31.3626 27.1828L37.738 8.33107Z" fill="#3F6CCD"/>
<path d="M25.9869 10.153L37.7866 26.1867L53.5027 20.1117L45.0791 36.0961L56.8788 52.1298L39.8731 45.975L31.4495 61.9594L29.363 42.1712L12.3573 36.0164L28.0734 29.9413L25.9869 10.153Z" fill="#3F6CCD"/>
<path d="M16.6245 16.1526L33.7696 26.2912L45.848 14.5553L44.366 32.5571L61.5111 42.6957L43.45 43.6829L41.9679 61.6848L32.2876 44.293L14.2264 45.2802L26.3048 33.5443L16.6245 16.1526Z" fill="#3F6CCD"/>
<path d="M33.4473 40.9074L35.8705 26.2409L39.3333 26.9759L35.5749 41.359L33.4473 40.9074ZM33.2121 47.1445C32.8208 47.0614 32.4796 46.8868 32.1885 46.6205C31.8975 46.3543 31.6894 46.0341 31.5644 45.66C31.4393 45.2859 31.4194 44.8983 31.5045 44.4972C31.6333 43.8907 31.9536 43.4169 32.4656 43.0758C32.9874 42.7367 33.5466 42.6306 34.1433 42.7572C34.7596 42.888 35.2324 43.2133 35.5616 43.733C35.9007 44.2548 36.0058 44.8189 35.8771 45.4254C35.7484 46.0319 35.4231 46.5046 34.9013 46.8437C34.3914 47.175 33.8283 47.2753 33.2121 47.1445Z" fill="white"/>
</svg>
