<svg width="415" height="112" viewBox="0 0 415 112" fill="none" xmlns="http://www.w3.org/2000/svg">
<path d="M165 73H158.5L151.95 46.525H152.925L146.35 73H139.85L132.725 40H138.725L143.425 66.125H143.35L150.225 40H154.65L161.525 66.125H161.425L166.15 40H172.15L165 73ZM307.207 40H317.057C318.874 40 320.574 40.25 322.157 40.75C323.757 41.2333 325.049 42.0583 326.032 43.225C327.016 44.375 327.507 45.9667 327.507 48C327.507 49.3667 327.241 50.6 326.707 51.7C326.191 52.8 325.532 53.6917 324.732 54.375C323.932 55.0583 323.116 55.475 322.282 55.625C322.982 55.6917 323.716 55.9083 324.482 56.275C325.266 56.625 325.999 57.125 326.682 57.775C327.382 58.425 327.949 59.2417 328.382 60.225C328.816 61.2083 329.032 62.3583 329.032 63.675C329.032 65.5083 328.649 67.125 327.882 68.525C327.116 69.925 325.974 71.025 324.457 71.825C322.941 72.6083 321.041 73 318.757 73H307.207V40ZM312.457 68.675H317.907C319.341 68.675 320.457 68.4333 321.257 67.95C322.074 67.4667 322.657 66.825 323.007 66.025C323.357 65.2083 323.532 64.3167 323.532 63.35C323.532 61.7667 323.024 60.525 322.007 59.625C320.991 58.725 319.532 58.275 317.632 58.275H312.457V68.675ZM312.457 54.025H317.207C318.357 54.025 319.307 53.7917 320.057 53.325C320.807 52.8417 321.366 52.2083 321.732 51.425C322.099 50.625 322.282 49.7917 322.282 48.925C322.282 47.175 321.774 45.975 320.757 45.325C319.741 44.6583 318.382 44.325 316.682 44.325H312.457V54.025Z" fill="#F9A5A5"/>
<path d="M185.217 73.6C183.067 73.6 181.15 73.1333 179.467 72.2C177.8 71.25 176.492 69.9667 175.542 68.35C174.592 66.7167 174.117 64.8667 174.117 62.8C174.117 60.7333 174.592 58.875 175.542 57.225C176.492 55.575 177.8 54.275 179.467 53.325C181.15 52.3583 183.067 51.875 185.217 51.875C187.367 51.875 189.267 52.3583 190.917 53.325C192.567 54.275 193.858 55.575 194.792 57.225C195.742 58.875 196.217 60.7333 196.217 62.8C196.217 64.8667 195.742 66.7167 194.792 68.35C193.858 69.9667 192.567 71.25 190.917 72.2C189.267 73.1333 187.367 73.6 185.217 73.6ZM185.217 69.1C186.417 69.1 187.458 68.825 188.342 68.275C189.225 67.725 189.908 66.975 190.392 66.025C190.875 65.075 191.117 63.9917 191.117 62.775C191.117 61.5583 190.875 60.475 190.392 59.525C189.908 58.5583 189.225 57.7917 188.342 57.225C187.458 56.6583 186.417 56.375 185.217 56.375C184.017 56.375 182.967 56.6583 182.067 57.225C181.183 57.7917 180.492 58.5583 179.992 59.525C179.508 60.475 179.267 61.5583 179.267 62.775C179.267 63.9917 179.508 65.075 179.992 66.025C180.492 66.975 181.183 67.725 182.067 68.275C182.967 68.825 184.017 69.1 185.217 69.1ZM205.81 73H200.485V52.475H205.81V55.9H205.685C205.801 55.4833 206.118 54.9667 206.635 54.35C207.168 53.7167 207.901 53.15 208.835 52.65C209.768 52.1333 210.893 51.875 212.21 51.875C213.16 51.875 214.01 52.0083 214.76 52.275C215.51 52.5417 216.043 52.8083 216.36 53.075L214.21 57.475C213.993 57.2083 213.585 56.95 212.985 56.7C212.401 56.4333 211.676 56.3 210.81 56.3C209.726 56.3 208.81 56.6167 208.06 57.25C207.326 57.8833 206.768 58.6417 206.385 59.525C206.001 60.4083 205.81 61.2333 205.81 62V73ZM231.948 52.475H238.223L227.898 62.25L238.998 73H232.623L223.598 64.175V73H218.248V38.6H223.598V60.3L231.948 52.475ZM242.15 73V52.475H247.475V73H242.15ZM244.875 46.325C243.975 46.325 243.2 46 242.55 45.35C241.917 44.7 241.6 43.925 241.6 43.025C241.6 42.125 241.917 41.35 242.55 40.7C243.2 40.0333 243.975 39.7 244.875 39.7C245.475 39.7 246.025 39.8583 246.525 40.175C247.042 40.475 247.45 40.875 247.75 41.375C248.067 41.8583 248.225 42.4083 248.225 43.025C248.225 43.925 247.9 44.7 247.25 45.35C246.6 46 245.809 46.325 244.875 46.325ZM265.988 51.875C267.372 51.875 268.713 52.1583 270.013 52.725C271.313 53.2917 272.38 54.2 273.213 55.45C274.063 56.6833 274.488 58.2917 274.488 60.275V73H269.113V61.25C269.113 59.4 268.672 58.0417 267.788 57.175C266.922 56.2917 265.797 55.85 264.413 55.85C263.497 55.85 262.622 56.1083 261.788 56.625C260.955 57.1417 260.272 57.8417 259.738 58.725C259.222 59.6083 258.963 60.625 258.963 61.775V73H253.613V52.475H258.963V55.925C259.113 55.3583 259.513 54.7667 260.163 54.15C260.83 53.5167 261.672 52.9833 262.688 52.55C263.705 52.1 264.805 51.875 265.988 51.875ZM289.936 83.975C288.37 83.975 286.911 83.8167 285.561 83.5C284.228 83.2 283.036 82.7417 281.986 82.125C280.936 81.525 280.086 80.7833 279.436 79.9L282.761 76.6C283.111 77.0333 283.561 77.4833 284.111 77.95C284.661 78.4333 285.386 78.8333 286.286 79.15C287.186 79.4833 288.328 79.65 289.711 79.65C291.061 79.65 292.211 79.375 293.161 78.825C294.128 78.275 294.861 77.5167 295.361 76.55C295.878 75.6 296.136 74.5 296.136 73.25V72.625H301.386V73.575C301.386 75.8417 300.878 77.7417 299.861 79.275C298.845 80.825 297.47 81.9917 295.736 82.775C294.003 83.575 292.07 83.975 289.936 83.975ZM296.136 73V69.2C296.003 69.6 295.62 70.15 294.986 70.85C294.37 71.55 293.52 72.1833 292.436 72.75C291.37 73.3167 290.103 73.6 288.636 73.6C286.72 73.6 284.995 73.1417 283.461 72.225C281.928 71.3083 280.72 70.0333 279.836 68.4C278.953 66.7667 278.511 64.8833 278.511 62.75C278.511 60.6167 278.953 58.7333 279.836 57.1C280.72 55.4667 281.928 54.1917 283.461 53.275C284.995 52.3417 286.72 51.875 288.636 51.875C290.07 51.875 291.311 52.125 292.361 52.625C293.411 53.125 294.253 53.7 294.886 54.35C295.536 55 295.936 55.5667 296.086 56.05V52.475H301.386V73H296.136ZM283.786 62.75C283.786 64.0667 284.078 65.2167 284.661 66.2C285.245 67.1833 286.003 67.9417 286.936 68.475C287.886 69.0083 288.903 69.275 289.986 69.275C291.153 69.275 292.186 69 293.086 68.45C294.003 67.9 294.72 67.1417 295.236 66.175C295.77 65.1917 296.036 64.05 296.036 62.75C296.036 61.45 295.77 60.3167 295.236 59.35C294.72 58.3667 294.003 57.6 293.086 57.05C292.186 56.4833 291.153 56.2 289.986 56.2C288.903 56.2 287.886 56.475 286.936 57.025C286.003 57.5583 285.245 58.3167 284.661 59.3C284.078 60.2833 283.786 61.4333 283.786 62.75ZM339.159 73H333.834V52.475H339.159V55.9H339.034C339.151 55.4833 339.468 54.9667 339.984 54.35C340.518 53.7167 341.251 53.15 342.184 52.65C343.118 52.1333 344.243 51.875 345.559 51.875C346.509 51.875 347.359 52.0083 348.109 52.275C348.859 52.5417 349.393 52.8083 349.709 53.075L347.559 57.475C347.343 57.2083 346.934 56.95 346.334 56.7C345.751 56.4333 345.026 56.3 344.159 56.3C343.076 56.3 342.159 56.6167 341.409 57.25C340.676 57.8833 340.118 58.6417 339.734 59.525C339.351 60.4083 339.159 61.2333 339.159 62V73ZM368.109 73V69.2C367.976 69.6 367.592 70.15 366.959 70.85C366.342 71.55 365.492 72.1833 364.409 72.75C363.342 73.3167 362.076 73.6 360.609 73.6C358.692 73.6 356.967 73.1417 355.434 72.225C353.901 71.3083 352.692 70.0333 351.809 68.4C350.926 66.7667 350.484 64.8833 350.484 62.75C350.484 60.6167 350.926 58.7333 351.809 57.1C352.692 55.4667 353.901 54.1917 355.434 53.275C356.967 52.3417 358.692 51.875 360.609 51.875C362.042 51.875 363.284 52.125 364.334 52.625C365.384 53.125 366.226 53.7 366.859 54.35C367.509 55 367.909 55.5667 368.059 56.05V52.475H373.359V73H368.109ZM355.759 62.75C355.759 64.0667 356.051 65.2167 356.634 66.2C357.217 67.1833 357.976 67.9417 358.909 68.475C359.859 69.0083 360.876 69.275 361.959 69.275C363.126 69.275 364.159 69 365.059 68.45C365.976 67.9 366.692 67.1417 367.209 66.175C367.742 65.1917 368.009 64.05 368.009 62.75C368.009 61.45 367.742 60.3167 367.209 59.35C366.692 58.3667 365.976 57.6 365.059 57.05C364.159 56.4833 363.126 56.2 361.959 56.2C360.876 56.2 359.859 56.475 358.909 57.025C357.976 57.5583 357.217 58.3167 356.634 59.3C356.051 60.2833 355.759 61.4333 355.759 62.75ZM379.26 73V52.475H384.585V73H379.26ZM381.985 46.325C381.085 46.325 380.31 46 379.66 45.35C379.026 44.7 378.71 43.925 378.71 43.025C378.71 42.125 379.026 41.35 379.66 40.7C380.31 40.0333 381.085 39.7 381.985 39.7C382.585 39.7 383.135 39.8583 383.635 40.175C384.151 40.475 384.56 40.875 384.86 41.375C385.176 41.8583 385.335 42.4083 385.335 43.025C385.335 43.925 385.01 44.7 384.36 45.35C383.71 46 382.918 46.325 381.985 46.325ZM403.098 51.875C404.481 51.875 405.823 52.1583 407.123 52.725C408.423 53.2917 409.489 54.2 410.323 55.45C411.173 56.6833 411.598 58.2917 411.598 60.275V73H406.223V61.25C406.223 59.4 405.781 58.0417 404.898 57.175C404.031 56.2917 402.906 55.85 401.523 55.85C400.606 55.85 399.731 56.1083 398.898 56.625C398.064 57.1417 397.381 57.8417 396.848 58.725C396.331 59.6083 396.073 60.625 396.073 61.775V73H390.723V52.475H396.073V55.925C396.223 55.3583 396.623 54.7667 397.273 54.15C397.939 53.5167 398.781 52.9833 399.798 52.55C400.814 52.1 401.914 51.875 403.098 51.875Z" fill="#6893EF"/>
<path d="M17.8124 47.5879L53.2245 67.239L36.0897 78.2573L0.287109 57.448L17.8124 47.5879Z" fill="#6893EF"/>
<path d="M19.4121 72.0098L36.09 81.4378L54.9383 70.1924L54.5957 88.9348L54.5957 97.1133C56.2141 99.7797 57.7942 99.4987 59.3934 96.3181C60.9927 93.1376 94.12 84.3912 94.12 84.3912L56.9322 105.125L19.6406 84.3912L19.4121 72.0098Z" fill="#6893EF"/>
<path d="M77.1475 77.7228L111.94 57.6976L95.7191 47.8154L60.3071 67.2391L77.1475 77.7228Z" fill="#6893EF"/>
<path d="M58.4795 70.0781L77.3278 81.6643L93.8915 72.2363V84.3905L58.4795 101.997C58.7331 98.41 58.5542 85.1611 58.4795 70.0781Z" fill="#6893EF"/>
<path d="M56.7419 1.24316L60.8783 3.40132C48.1087 10.3332 38.7853 15.867 23.2959 24.8698V20.9893L56.7419 1.24316Z" fill="#F9A5A5"/>
<path d="M89.9554 19.9557L89.5826 25.2251C78.0234 17.945 69.1421 12.9421 54.5649 4.50416L58.1932 1.93848L89.9554 19.9557Z" fill="#F9A5A5"/>
<path d="M89.9901 40.8923L85.2305 42.1904C85.7018 35.1057 85.5515 29.8261 85.5014 21.0977L89.5612 21.9761L89.9901 40.8923Z" fill="#F9A5A5"/>
<path d="M27.6195 40.8934L22.8599 42.1913C23.3312 35.1067 23.1809 29.827 23.1308 21.0986L27.1906 21.977L27.6195 40.8934Z" fill="#F9A5A5"/>
<path d="M90.0075 37.0234L96.6156 40.9841L56.5434 62.6705L51.7397 59.9687C69.4457 49.8591 84.0542 43.387 90.0075 37.0234Z" fill="#F9A5A5"/>
<path d="M24.0343 36.1387L16.6704 40.7727L54.4107 61.5936L59.3796 58.3135C42.9775 48.6041 29.2664 42.6233 24.0343 36.1387Z" fill="#F9A5A5"/>
<path d="M56.1946 49.6328L48.6553 54.1764" stroke="#F9A5A5" stroke-width="6" stroke-linecap="round"/>
<path d="M63.9624 54.1764L57.3369 49.6328" stroke="#F9A5A5" stroke-width="6" stroke-linecap="round"/>
<path d="M80.1833 45.3156L72.187 39.8633" stroke="#F9A5A5" stroke-width="6" stroke-linecap="round"/>
<path d="M40.9925 40.0908L32.8911 45.3875" stroke="#F9A5A5" stroke-width="6" stroke-linecap="round"/>
<path d="M56.6519 23.7334V32.8206" stroke="#F9A5A5" stroke-width="6" stroke-linecap="round"/>
<path d="M47.0562 18.5088L56.0826 23.1246" stroke="#F9A5A5" stroke-width="6" stroke-linecap="round"/>
<path d="M57.3369 32.8213L66.3633 37.4371" stroke="#F9A5A5" stroke-width="6" stroke-linecap="round"/>
<path d="M56.6519 39.8633L65.6783 44.4791" stroke="#F9A5A5" stroke-width="6" stroke-linecap="round"/>
<path d="M66.247 17.8271L57.3369 23.0523" stroke="#F9A5A5" stroke-width="6" stroke-linecap="round"/>
<path d="M55.9663 32.8213L47.0562 38.0464" stroke="#F9A5A5" stroke-width="6" stroke-linecap="round"/>
<path d="M56.1948 39.8633L47.2847 45.0884" stroke="#F9A5A5" stroke-width="6" stroke-linecap="round"/>
<path d="M56.1948 39.8633L47.2847 45.0884" stroke="#F9A5A5" stroke-width="6" stroke-linecap="round"/>
<path d="M56.6465 48.837V47.0195" stroke="#F9A5A5" stroke-width="6" stroke-linecap="round"/>
<path d="M78.8936 35.9994L78.8125 27.1416" stroke="#F9A5A5" stroke-width="6" stroke-linecap="round"/>
<path d="M33.6578 35.9994L33.5767 27.1416" stroke="#F9A5A5" stroke-width="6" stroke-linecap="round"/>
<path d="M65.3335 27.823L78.1275 17.8271" stroke="#F9A5A5" stroke-width="6" stroke-linecap="round"/>
<path d="M68.5317 27.5957L72.6441 32.3665" stroke="#F9A5A5" stroke-width="6" stroke-linecap="round"/>
<path d="M66.2472 9.87598L62.5918 13.0565" stroke="#F9A5A5" stroke-width="6" stroke-linecap="round"/>
<path d="M56.7422 1.24316L60.8783 3.40132C48.1087 10.3332 38.7856 15.867 23.2959 24.8698V20.9893L56.7422 1.24316Z" fill="#F9A5A5"/>
<path d="M89.9554 19.9557L89.5826 25.2251C78.0234 17.945 69.1421 12.9421 54.5649 4.50416L58.1932 1.93848L89.9554 19.9557Z" fill="#F9A5A5"/>
<path d="M89.9901 40.8923L85.2305 42.1904C85.7018 35.1057 85.5515 29.8261 85.5014 21.0977L89.5612 21.9761L89.9901 40.8923Z" fill="#F9A5A5"/>
<path d="M27.6195 40.8934L22.8599 42.1913C23.3312 35.1067 23.1809 29.827 23.1308 21.0986L27.1906 21.977L27.6195 40.8934Z" fill="#F9A5A5"/>
<path d="M90.0075 37.0234L96.6156 40.9841L56.5434 62.6705L51.7397 59.9687C69.4457 49.8591 84.0542 43.387 90.0075 37.0234Z" fill="#F9A5A5"/>
<path d="M24.0343 36.1387L16.6704 40.7727L54.4107 61.5936L59.3798 58.3135C42.9776 48.6041 29.2666 42.6233 24.0343 36.1387Z" fill="#F9A5A5"/>
<path d="M56.1946 49.6328L48.6553 54.1764" stroke="#F9A5A5" stroke-width="6" stroke-linecap="round"/>
<path d="M63.9624 54.1764L57.3369 49.6328" stroke="#F9A5A5" stroke-width="6" stroke-linecap="round"/>
<path d="M80.1833 45.3156L72.187 39.8633" stroke="#F9A5A5" stroke-width="6" stroke-linecap="round"/>
<path d="M40.9925 40.0908L32.8911 45.3875" stroke="#F9A5A5" stroke-width="6" stroke-linecap="round"/>
<path d="M56.6519 23.7334V32.8206" stroke="#F9A5A5" stroke-width="6" stroke-linecap="round"/>
<path d="M47.0562 18.5088L56.0826 23.1246" stroke="#F9A5A5" stroke-width="6" stroke-linecap="round"/>
<path d="M57.3369 32.8213L66.3633 37.4371" stroke="#F9A5A5" stroke-width="6" stroke-linecap="round"/>
<path d="M56.6519 39.8633L65.6783 44.4791" stroke="#F9A5A5" stroke-width="6" stroke-linecap="round"/>
<path d="M66.247 17.8271L57.3369 23.0523" stroke="#F9A5A5" stroke-width="6" stroke-linecap="round"/>
<path d="M55.9663 32.8213L47.0562 38.0464" stroke="#F9A5A5" stroke-width="6" stroke-linecap="round"/>
<path d="M56.1948 39.8633L47.2847 45.0884" stroke="#F9A5A5" stroke-width="6" stroke-linecap="round"/>
<path d="M56.1948 39.8633L47.2847 45.0884" stroke="#F9A5A5" stroke-width="6" stroke-linecap="round"/>
<path d="M56.6465 48.837V47.0195" stroke="#F9A5A5" stroke-width="6" stroke-linecap="round"/>
<path d="M78.8936 35.9994L78.8125 27.1416" stroke="#F9A5A5" stroke-width="6" stroke-linecap="round"/>
<path d="M33.6578 35.9994L33.5767 27.1416" stroke="#F9A5A5" stroke-width="6" stroke-linecap="round"/>
<path d="M65.3335 27.823L78.1275 17.8271" stroke="#F9A5A5" stroke-width="6" stroke-linecap="round"/>
<path d="M68.5317 27.5957L72.6441 32.3665" stroke="#F9A5A5" stroke-width="6" stroke-linecap="round"/>
<path d="M66.2472 9.87598L62.5918 13.0565" stroke="#F9A5A5" stroke-width="6" stroke-linecap="round"/>
<path d="M50.9091 13.5377L47.7417 9.87598" stroke="#F9A5A5" stroke-width="6" stroke-linecap="round"/>
<path d="M45.914 48.0417C47.1758 48.0417 48.1987 47.0245 48.1987 45.7699C48.1987 44.5152 47.1758 43.498 45.914 43.498C44.6523 43.498 43.6294 44.5152 43.6294 45.7699C43.6294 47.0245 44.6523 48.0417 45.914 48.0417Z" fill="#F9A5A5"/>
<path d="M56.6518 16.237C57.9136 16.237 58.9365 15.2198 58.9365 13.9652C58.9365 12.7105 57.9136 11.6934 56.6518 11.6934C55.3901 11.6934 54.3672 12.7105 54.3672 13.9652C54.3672 15.2198 55.3901 16.237 56.6518 16.237Z" fill="#F9A5A5"/>
<path d="M47.0561 20.5534C48.3179 20.5534 49.3408 19.5363 49.3408 18.2816C49.3408 17.0269 48.3179 16.0098 47.0561 16.0098C45.7944 16.0098 44.7715 17.0269 44.7715 18.2816C44.7715 19.5363 45.7944 20.5534 47.0561 20.5534Z" fill="#F9A5A5"/>
<path d="M66.4756 20.0993C67.7373 20.0993 68.7602 19.0822 68.7602 17.8275C68.7602 16.5728 67.7373 15.5557 66.4756 15.5557C65.2138 15.5557 64.1909 16.5728 64.1909 17.8275C64.1909 19.0822 65.2138 20.0993 66.4756 20.0993Z" fill="#F9A5A5"/>
<path d="M78.8125 28.7321C80.0743 28.7321 81.0971 27.715 81.0971 26.4603C81.0971 25.2056 80.0743 24.1885 78.8125 24.1885C77.5507 24.1885 76.5278 25.2056 76.5278 26.4603C76.5278 27.715 77.5507 28.7321 78.8125 28.7321Z" fill="#F9A5A5"/>
<path d="M78.8125 38.2731C80.0743 38.2731 81.0971 37.256 81.0971 36.0013C81.0971 34.7466 80.0743 33.7295 78.8125 33.7295C77.5507 33.7295 76.5278 34.7466 76.5278 36.0013C76.5278 37.256 77.5507 38.2731 78.8125 38.2731Z" fill="#F9A5A5"/>
<path d="M33.5766 38.2731C34.8384 38.2731 35.8613 37.256 35.8613 36.0013C35.8613 34.7466 34.8384 33.7295 33.5766 33.7295C32.3149 33.7295 31.292 34.7466 31.292 36.0013C31.292 37.256 32.3149 38.2731 33.5766 38.2731Z" fill="#F9A5A5"/>
<path d="M33.5766 29.4137C34.8384 29.4137 35.8613 28.3966 35.8613 27.1419C35.8613 25.8872 34.8384 24.8701 33.5766 24.8701C32.3149 24.8701 31.292 25.8872 31.292 27.1419C31.292 28.3966 32.3149 29.4137 33.5766 29.4137Z" fill="#F9A5A5"/>
<path d="M66.7041 47.5876C67.9658 47.5876 68.9887 46.5704 68.9887 45.3158C68.9887 44.0611 67.9658 43.0439 66.7041 43.0439C65.4423 43.0439 64.4194 44.0611 64.4194 45.3158C64.4194 46.5704 65.4423 47.5876 66.7041 47.5876Z" fill="#F9A5A5"/>
<path d="M48.1984 27.5959L33.5767 17.8271" stroke="#F9A5A5" stroke-width="6" stroke-linecap="round"/>
<path d="M40.8877 32.3669L45.0001 26.0059" stroke="#F9A5A5" stroke-width="6" stroke-linecap="round"/>
<path d="M50.9091 13.5377L47.7417 9.87598" stroke="#F9A5A5" stroke-width="6" stroke-linecap="round"/>
<path d="M45.914 48.0417C47.1758 48.0417 48.1987 47.0245 48.1987 45.7699C48.1987 44.5152 47.1758 43.498 45.914 43.498C44.6523 43.498 43.6294 44.5152 43.6294 45.7699C43.6294 47.0245 44.6523 48.0417 45.914 48.0417Z" fill="#F9A5A5"/>
<path d="M66.7041 47.5876C67.9658 47.5876 68.9887 46.5704 68.9887 45.3158C68.9887 44.0611 67.9658 43.0439 66.7041 43.0439C65.4423 43.0439 64.4194 44.0611 64.4194 45.3158C64.4194 46.5704 65.4423 47.5876 66.7041 47.5876Z" fill="#F9A5A5"/>
<path d="M48.1984 27.5959L33.5767 17.8271" stroke="#F9A5A5" stroke-width="6" stroke-linecap="round"/>
<path d="M40.8877 32.3669L45.0001 26.0059" stroke="#F9A5A5" stroke-width="6" stroke-linecap="round"/>
</svg>
