<svg width="503" height="497" viewBox="0 0 503 497" fill="none" xmlns="http://www.w3.org/2000/svg">
<ellipse cx="250.606" cy="453.737" rx="179.626" ry="42.6591" fill="#A0A0A0" fill-opacity="0.48"/>
<path d="M205.197 455.354C205.197 463.564 191.499 469.897 182.471 471.513C175.474 473.551 157.255 475.068 155.699 461.494C154.765 451.153 169.396 437.903 184.339 439.519C192.248 439.519 205.197 447.144 205.197 455.354Z" fill="#03293D"/>
<path d="M183.676 389.749L205.152 396.481L205.467 455.575L183.676 456.323V389.749Z" fill="#03293D"/>
<path d="M292.63 462.192C292.63 469.706 306.23 475.502 315.193 476.981C322.14 478.846 340.229 480.234 341.774 467.812C342.702 458.347 328.175 446.221 313.339 447.699C305.486 447.699 292.63 454.678 292.63 462.192Z" fill="#03293D"/>
<path d="M313.957 410.433L292.939 415.756L292.63 462.488L313.957 463.08V410.433Z" fill="#03293D"/>
<line y1="-9.5" x2="31.4911" y2="-9.5" transform="matrix(0.929252 -0.369447 0.346116 0.938192 66.6211 163.526)" stroke="#021B27" stroke-width="19"/>
<path d="M387.27 134.441L442.59 143.814" stroke="#021B27" stroke-width="21"/>
<path d="M247.804 23.2686L268.04 40.3968L294.19 28.1162L323.453 34.9029L338.707 51.708L356.14 49.7689L371.083 62.6959V77.8851L395.054 89.8426L401.28 104.386L396.922 122.483L414.603 131.855V145.998L394.635 236.564L306.546 295.677H191.553L103.464 236.564L83.4961 145.998L98.9982 126.038L102.423 100.507L116.432 88.5499L125.771 81.7632L129.507 66.2508L143.516 60.7569H155.968L161.883 44.5981L186.476 34.9029L197.683 37.1651L215.739 23.2686H247.804Z" fill="#F9A5A5"/>
<path d="M67.5625 366.712V157.207L306.478 211.981V427.64L67.5625 366.712Z" fill="#BFD2FC" stroke="#03293D" stroke-width="12"/>
<path d="M314.729 210.494L437.552 145.266L444.277 348.011L313.854 426.35L314.729 210.494ZM312.332 427.265C312.333 427.264 312.334 427.263 312.335 427.263L312.332 427.265Z" fill="#3F6CCD" stroke="#03293D" stroke-width="12"/>
<path d="M74.6367 183.416C74.6367 174.418 83.0021 167.757 91.7712 169.771L294.141 216.26C300.499 217.721 305.006 223.38 305.006 229.904V422.12C305.006 424.448 303.828 425.427 301.566 424.874C280.935 419.833 171.598 391.884 85.1815 369.933C78.9733 368.356 74.6367 362.77 74.6367 356.365V183.416Z" fill="#6893EF"/>
<path d="M298.781 217.22L305.007 213.019V426.314L298.781 424.375V217.22Z" fill="#386BD7"/>
<path d="M61.4371 157.897C61.6327 157.687 61.8103 157.614 61.959 157.587C62.1312 157.554 62.3434 157.571 62.5588 157.66C62.7742 157.748 62.9358 157.885 63.0352 158.026C63.1203 158.146 63.1988 158.319 63.1988 158.608L63.1988 233.62C63.1988 234.209 62.6711 234.705 62.0338 234.616C60.8314 234.448 59.6803 234.29 58.5696 234.137C43.3736 232.047 35.7475 230.998 7.95285 221.221C7.31587 220.997 7.11349 220.24 7.48367 219.752C23.9704 198.033 37.9749 183.032 56.902 162.757C58.3824 161.171 59.8929 159.553 61.4371 157.897Z" fill="#3F6CCD" stroke="#03293D" stroke-width="8"/>
<path d="M62.1851 158.402L62.1851 166.159L13.932 222.068L8.3284 220.129C26.5177 196.783 38.6118 183.263 62.1851 158.402Z" fill="#2856B7"/>
<path d="M303.773 285.925L414.383 255.138" stroke="#03293D" stroke-width="29" stroke-linecap="round"/>
<path d="M436.341 144.449C439.219 142.868 442.813 143.503 444.976 145.973C464.338 168.082 477.352 183.252 491.46 204.115C493.419 207.012 492.756 210.987 489.862 213.138C445.52 246.079 414.376 262.728 363.974 285.902C360.656 287.428 356.704 286.112 354.953 282.867L319.221 216.68C317.393 213.295 318.639 209.07 322.011 207.218L436.341 144.449Z" fill="url(#paint0_linear_166_3813)" stroke="#03293D" stroke-width="12"/>
<path d="M319.949 214.958L444.785 147.414C458.308 163.086 469.982 177.871 481.863 193.417C486.76 199.824 485.187 209.044 478.427 213.443C437.054 240.363 407.719 256.127 355.75 280.562L319.949 214.958Z" fill="#6893EF"/>
<path d="M71.2734 256.199L90.5314 259.698" stroke="#03293D" stroke-width="29" stroke-linecap="round"/>
<path d="M125.992 89.376L131.461 71.6743L147.026 64.2414L161.346 71.6744" stroke="#FBCCCC" stroke-width="12" stroke-linecap="round"/>
<path d="M176.937 268.33C176.602 294.395 156.077 314.6 131.863 314.264C107.649 313.929 87.6512 293.162 87.9865 267.096C88.3217 241.031 108.847 220.826 133.061 221.162C157.275 221.497 177.272 242.264 176.937 268.33Z" fill="#D1E0FF" stroke="#03293D" stroke-width="20"/>
<path d="M298.099 288.432C297.779 313.305 278.328 332.455 255.544 332.139C232.761 331.824 213.809 312.141 214.129 287.268C214.449 262.395 233.9 243.245 256.684 243.561C279.467 243.876 298.419 263.559 298.099 288.432Z" fill="#D1E0FF" stroke="#03293D" stroke-width="20"/>
<path d="M296.262 289.052C295.973 311.54 280.13 329.553 260.875 329.286C251.537 329.156 249.673 328.807 247.191 328.126C277.464 322.405 307.51 285.976 263.487 247.228C277.495 247.422 296.552 266.565 296.262 289.052Z" fill="#BDD0F5"/>
<path d="M280.221 325.998C266.725 334.469 260.818 333.809 249.633 332.038C238.447 330.267 228.447 321.015 225.805 319.019C243.269 342.616 300.099 344.248 298.479 286.174C297.059 299.729 293.718 317.528 280.221 325.998Z" fill="#395A6B"/>
<path d="M155.523 308.505C140.244 316.242 134.073 315.066 122.451 312.294C110.828 309.521 101.345 299.03 98.786 296.727C114.468 322.82 171.679 330.721 176.838 269.916C173.732 283.96 170.802 300.768 155.523 308.505Z" fill="#537789"/>
<path d="M174.472 269.285C174.164 293.189 155.861 312.316 138.157 312.071C128.58 311.938 126.987 310.987 124.442 310.265C155.495 304.168 185.61 266.651 140.477 225.484C154.844 225.684 176.647 245.378 174.472 269.285Z" fill="#BDD0F5"/>
<path d="M144.518 213.619C143.02 214.058 132.167 211.86 118.597 215.829C105.027 219.798 95.5457 228.615 95.3769 227.993C95.3769 227.993 104.52 217.932 118.09 213.963C131.66 209.994 145.118 213.444 144.518 213.619Z" fill="#537789"/>
<path d="M267.31 235.409C265.833 235.92 254.892 234.258 241.518 238.889C228.144 243.519 219.075 252.791 218.878 252.178C218.878 252.178 227.553 241.68 240.927 237.049C254.301 232.418 267.901 235.205 267.31 235.409Z" fill="#537789"/>
<path d="M279.555 280.817C279.337 297.729 265.364 311.248 248.345 311.013C231.326 310.777 218.784 293.757 226.316 273.557C237.055 300.205 273.139 268.012 242.816 256.218C263.347 248.587 279.773 263.904 279.555 280.817Z" fill="#002E3D"/>
<ellipse cx="4.66968" cy="4.8476" rx="4.66968" ry="4.8476" transform="matrix(0.999904 0.013861 -0.0128621 0.999917 247.684 289.672)" fill="#D1E0FF"/>
<path d="M159.805 266.625C157.11 285.069 140.343 297.59 122.356 294.59C104.369 291.59 93.5694 270.973 104.49 250.115C111.977 280.962 154.878 251.6 124.489 233.828C147.34 228.798 162.501 248.181 159.805 266.625Z" fill="#002E3D"/>
<ellipse cx="5.00218" cy="5.34302" rx="5.00218" ry="5.34302" transform="matrix(0.986523 0.164533 -0.144587 0.98936 124.77 271.165)" fill="#D1E0FF"/>
<path d="M186.547 265.621C194.825 263.938 199.501 264.828 207.469 269.721" stroke="#03293D" stroke-width="29" stroke-linecap="round"/>
<path d="M205.421 259.352C204.912 259.307 200.816 258.014 196.207 257.608C191.598 257.202 187.359 257.285 187.395 256.84C187.395 256.84 191.611 256.206 196.22 256.612C200.829 257.018 205.624 259.37 205.421 259.352Z" fill="#537789"/>
<path d="M337.608 269.587C336.802 269.765 330.945 272.322 323.639 273.933C316.333 275.545 309.743 277.109 309.604 276.43C309.604 276.43 316.101 273.586 323.407 271.975C330.713 270.364 337.931 269.516 337.608 269.587Z" fill="#537789"/>
<path d="M79.4865 249.9C79.215 249.837 73.8711 248.924 72.6326 248.789C69.2127 248.419 66.2856 250.087 66.3957 249.579C66.3957 249.579 70.1628 247.165 74.8714 248.263C77.3302 248.837 79.5951 249.926 79.4865 249.9Z" fill="#537789"/>
<path d="M277.418 42.3359L294.54 32.9639L321.624 38.1347L333.142 53.3239" stroke="#FBCCCC" stroke-width="11" stroke-linecap="round"/>
<path d="M320.114 70.7049L313.577 66.264L306.66 64.4208L297.613 64.4392L289.606 66.264L278.398 71.6744" stroke="#E27B7B" stroke-width="9" stroke-linecap="round"/>
<path d="M343.732 148.635L345.643 141.157L346.13 132.755L343.732 124.998L339.106 119.505L337.461 119.505" stroke="#FBCCCC" stroke-width="9" stroke-linecap="round"/>
<path d="M330.611 180.655L334.551 179.911L337.047 176.425L338.794 173.475L338.794 168.636L337.859 164.103" stroke="#E27B7B" stroke-width="9" stroke-linecap="round"/>
<path d="M198.616 179.039L194.257 172.575L192.144 167.914L189.588 165.789L185.229 164.359L180.871 163.85" stroke="#E27B7B" stroke-width="8" stroke-linecap="round"/>
<path d="M153.253 157.316L152.319 153.438L152.319 148.267L154.187 141.803L155.432 137.925L159.48 135.663" stroke="#E27B7B" stroke-width="9" stroke-linecap="round"/>
<path d="M198.927 179.363L196.437 173.546L197.461 155.701L205.153 130.887L209.2 111.496L214.27 101.084L223.209 81.1175L228.19 76.2699L237.929 50.9919L233.571 45.1748L227.656 47.1137" stroke="#E27B7B" stroke-width="9" stroke-linecap="round"/>
<path d="M227.346 170.94L224.144 170.296L220.383 170.031L217.461 170.815L213.88 171.969L208.887 174.838" stroke="#FBCCCC" stroke-width="8" stroke-linecap="round"/>
<path d="M100.331 131.139L102.199 105.285L120.566 89.1263L146.716 92.0349" stroke="#FBCCCC" stroke-width="12" stroke-linecap="round"/>
<path d="M205.154 179.362L206.088 170.96L207.955 162.88L209.512 155.77L214.493 145.429L218.229 125.069L221.653 115.374L225.477 100.114L244.778 75.2295L246.646 64.2415L258.476 51.6377L267.193 48.4059L274.975 48.406" stroke="#FBCCCC" stroke-width="12" stroke-linecap="round"/>
<path d="M85.6105 152.215L89.5953 139.955L105.505 129.413L128.341 128.741" stroke="#FBCCCC" stroke-width="12" stroke-linecap="round"/>
<path d="M383.843 122.16H398.163L414.436 129.755V156.578L383.843 170.636L375.438 155.447L381.975 140.904L383.843 122.16Z" fill="#E27B7B"/>
<path d="M375.526 154.407L381.753 148.59L385.488 140.834L386.734 130.169L385.488 122.483" stroke="#B95F5F" stroke-width="9" stroke-linecap="round"/>
<path d="M400.966 124.746L385.401 125.763" stroke="#B95F5F" stroke-width="9" stroke-linecap="round"/>
<path d="M335.992 51.2178L352.18 49.6985L367.746 60.6864L370.859 79.1074" stroke="#FBCCCC" stroke-width="12" stroke-linecap="round"/>
<path d="M367.434 80.077L383.622 83.6319L395.763 102.053L391.405 122.09" stroke="#E27B7B" stroke-width="12" stroke-linecap="round"/>
<path d="M157.25 67.2212L161.033 50.3457L189.363 41.2968L217.692 53.5775" stroke="#FBCCCC" stroke-width="12" stroke-linecap="round"/>
<path d="M199.902 38.1348L219.251 25.7837L249.137 26.7532L266.211 42.6592" stroke="#FBCCCC" stroke-width="12" stroke-linecap="round"/>
<path d="M83.4707 157.063L87.7261 136.078L103.636 125.536L126.472 124.863" stroke="#03293D" stroke-width="12" stroke-linecap="round"/>
<path d="M98.4601 126.614L100.327 100.76L118.695 84.601L144.845 87.5095" stroke="#03293D" stroke-width="12" stroke-linecap="round"/>
<path d="M124.746 83.5586L130.215 65.857L145.78 58.424L160.1 65.857" stroke="#03293D" stroke-width="12" stroke-linecap="round"/>
<path d="M203.685 181.877L208.977 169.919L218.317 165.072L227.656 165.072" stroke="#03293D" stroke-width="9" stroke-linecap="round"/>
<path d="M199.326 180.585L198.081 171.859L194.034 163.456L182.516 160.548" stroke="#03293D" stroke-width="9" stroke-linecap="round"/>
<path d="M154.187 158.931L152.631 155.376L150.452 150.205L143.603 146.004L136.754 147.773" stroke="#03293D" stroke-width="9" stroke-linecap="round"/>
<path d="M155.12 159.255L154.187 155.377L154.187 150.206L156.054 143.743L157.3 139.865L161.347 137.603" stroke="#03293D" stroke-width="9" stroke-linecap="round"/>
<path d="M260.031 188.017L261.899 184.785L264.39 178.968L266.147 171.83L265.324 164.425L260.031 156.992" stroke="#03293D" stroke-width="9" stroke-linecap="round"/>
<path d="M344.98 190.424L342.441 187.73L339.105 185.109L331.634 181.23L323.851 180.184L318.559 180.184" stroke="#03293D" stroke-width="9" stroke-linecap="round"/>
<path d="M329.485 180.631L332.059 177.972L334.555 174.486L336.301 171.536L336.301 166.697L335.367 162.164" stroke="#03293D" stroke-width="9" stroke-linecap="round"/>
<path d="M303.076 98.0974L299.53 97.2921L295.355 97.0021L292.098 98.0974L288.102 99.6979L284.938 102.969M295.355 97.0021L292.098 98.0974L288.102 99.6979" stroke="#03293D" stroke-width="9" stroke-linecap="round"/>
<path d="M306.638 104.102L301.969 102.164L296.383 102.164L293.462 102.948L289.881 104.102L287.066 106.517" stroke="#FBCCCC" stroke-width="8" stroke-linecap="round"/>
<path d="M285.43 174.953L280.76 173.015L275.175 173.015L273.018 174.191L271.773 174.953L265.547 181.947" stroke="#FBCCCC" stroke-width="8" stroke-linecap="round"/>
<path d="M299 77.9558C299.544 78.052 300.061 77.689 300.154 77.1449C300.247 76.6008 299.882 76.0818 299.338 75.9856L299 77.9558ZM298.488 82.2362C301.426 82.4559 303.972 80.2519 304.176 77.3134C304.38 74.375 302.164 71.8148 299.227 71.5951C296.29 71.3755 293.743 73.5795 293.539 76.5179C293.335 79.4564 295.551 82.0165 298.488 82.2362ZM299.338 75.9856L299.026 75.9306L298.689 77.9008L299 77.9558L299.338 75.9856Z" fill="#FBCCCC"/>
<path d="M247.24 182.511C248.056 182.655 248.831 182.111 248.971 181.294C249.111 180.478 248.563 179.7 247.746 179.556L247.24 182.511ZM246.628 188.959C251.034 189.288 254.854 185.982 255.16 181.575C255.465 177.167 252.142 173.327 247.736 172.997C243.33 172.668 239.51 175.974 239.204 180.382C238.898 184.789 242.222 188.629 246.628 188.959ZM247.746 179.556L247.435 179.501L246.929 182.456L247.24 182.511L247.746 179.556Z" fill="#FBCCCC"/>
<path d="M251.143 90.39C251.415 90.4381 251.674 90.2566 251.72 89.9846C251.767 89.7125 251.584 89.453 251.312 89.4049L251.143 90.39ZM250.732 92.5027C252.2 92.6125 253.474 91.5105 253.575 90.0413C253.677 88.5721 252.57 87.292 251.101 87.1822C249.632 87.0723 248.359 88.1743 248.257 89.6436C248.155 91.1128 249.263 92.3929 250.732 92.5027ZM251.312 89.4049L251.001 89.3499L250.832 90.335L251.143 90.39L251.312 89.4049Z" fill="#FBCCCC"/>
<path d="M289.745 76.8168C290.017 76.8649 290.275 76.6834 290.322 76.4113C290.368 76.1393 290.186 75.8798 289.914 75.8317L289.745 76.8168ZM289.333 78.9295C290.802 79.0393 292.075 77.9373 292.177 76.4681C292.279 74.9988 291.171 73.7188 289.702 73.6089C288.234 73.4991 286.961 74.6011 286.859 76.0703C286.757 77.5395 287.865 78.8196 289.333 78.9295ZM289.914 75.8317L289.602 75.7766L289.433 76.7617L289.745 76.8168L289.914 75.8317Z" fill="#FBCCCC"/>
<path d="M245.542 171.184C245.814 171.232 246.072 171.051 246.119 170.779C246.165 170.506 245.982 170.247 245.71 170.199L245.542 171.184ZM245.13 173.297C246.599 173.406 247.872 172.304 247.974 170.835C248.076 169.366 246.968 168.086 245.499 167.976C244.031 167.866 242.757 168.968 242.655 170.438C242.553 171.907 243.661 173.187 245.13 173.297ZM245.71 170.199L245.399 170.144L245.23 171.129L245.542 171.184L245.71 170.199Z" fill="#FBCCCC"/>
<path d="M314.03 147.915C314.302 147.964 314.56 147.782 314.607 147.51C314.654 147.238 314.471 146.978 314.199 146.93L314.03 147.915ZM313.618 150.028C315.087 150.138 316.36 149.036 316.462 147.567C316.564 146.097 315.456 144.817 313.988 144.708C312.519 144.598 311.246 145.7 311.144 147.169C311.042 148.638 312.15 149.918 313.618 150.028ZM314.199 146.93L313.887 146.875L313.719 147.86L314.03 147.915L314.199 146.93Z" fill="#FBCCCC"/>
<path d="M367.573 124C367.845 124.048 368.103 123.867 368.15 123.595C368.197 123.323 368.014 123.063 367.742 123.015L367.573 124ZM367.161 126.113C368.63 126.223 369.903 125.121 370.005 123.652C370.107 122.182 368.999 120.902 367.531 120.793C366.062 120.683 364.789 121.785 364.687 123.254C364.585 124.723 365.693 126.003 367.161 126.113ZM367.742 123.015L367.43 122.96L367.262 123.945L367.573 124L367.742 123.015Z" fill="#FBCCCC"/>
<path d="M361.262 117.384C361.806 117.48 362.323 117.117 362.416 116.573C362.509 116.029 362.144 115.51 361.6 115.413L361.262 117.384ZM360.75 121.664C363.687 121.884 366.234 119.68 366.438 116.741C366.642 113.803 364.426 111.243 361.489 111.023C358.551 110.803 356.005 113.007 355.801 115.946C355.597 118.884 357.813 121.444 360.75 121.664ZM361.6 115.413L361.288 115.358L360.951 117.329L361.262 117.384L361.6 115.413Z" fill="#FBCCCC"/>
<path d="M95.4064 153.579C95.9505 153.675 96.4672 153.312 96.5605 152.768C96.6537 152.224 96.2882 151.705 95.7441 151.609L95.4064 153.579ZM94.8947 157.859C97.832 158.079 100.378 155.875 100.582 152.936C100.786 149.998 98.5704 147.438 95.6331 147.218C92.6958 146.999 90.1493 149.203 89.9454 152.141C89.7415 155.079 91.9574 157.64 94.8947 157.859ZM95.7441 151.609L95.4327 151.554L95.0951 153.524L95.4064 153.579L95.7441 151.609Z" fill="#FBCCCC"/>
<path d="M192.531 74.7234C193.076 74.8196 193.592 74.4565 193.685 73.9125C193.779 73.3684 193.413 72.8494 192.869 72.7532L192.531 74.7234ZM192.02 79.0038C194.957 79.2235 197.503 77.0195 197.707 74.081C197.911 71.1425 195.695 68.5824 192.758 68.3627C189.821 68.143 187.274 70.3471 187.07 73.2855C186.867 76.224 189.082 78.7841 192.02 79.0038ZM192.869 72.7532L192.558 72.6981L192.22 74.6684L192.531 74.7234L192.869 72.7532Z" fill="#FBCCCC"/>
<path d="M150.027 113.197C151.115 113.389 152.148 112.663 152.335 111.575C152.521 110.487 151.79 109.449 150.702 109.256L150.027 113.197ZM149.315 121.813C155.189 122.252 160.282 117.844 160.69 111.967C161.098 106.09 156.666 100.97 150.791 100.53C144.917 100.091 139.824 104.499 139.416 110.376C139.008 116.253 143.44 121.373 149.315 121.813ZM150.702 109.256L150.391 109.201L149.715 113.142L150.027 113.197L150.702 109.256Z" fill="#FBCCCC"/>
<path d="M140.94 120.122C141.212 120.171 141.47 119.989 141.517 119.717C141.564 119.445 141.381 119.185 141.109 119.137L140.94 120.122ZM140.529 122.235C141.997 122.345 143.27 121.243 143.372 119.774C143.474 118.305 142.366 117.024 140.898 116.915C139.429 116.805 138.156 117.907 138.054 119.376C137.952 120.845 139.06 122.125 140.529 122.235ZM141.109 119.137L140.798 119.082L140.629 120.067L140.94 120.122L141.109 119.137Z" fill="#FBCCCC"/>
<path d="M147.167 74.2308C147.439 74.2789 147.697 74.0974 147.744 73.8254C147.79 73.5534 147.607 73.2938 147.335 73.2457L147.167 74.2308ZM146.755 76.3435C148.224 76.4534 149.497 75.3514 149.599 73.8821C149.701 72.4129 148.593 71.1328 147.124 71.023C145.656 70.9131 144.382 72.0152 144.28 73.4844C144.178 74.9536 145.286 76.2337 146.755 76.3435ZM147.335 73.2457L147.024 73.1907L146.855 74.1758L147.167 74.2308L147.335 73.2457Z" fill="#FBCCCC"/>
<path d="M142.849 73.3391C142.985 73.3631 143.115 73.2723 143.138 73.1363C143.161 73.0003 143.07 72.8706 142.934 72.8465L142.849 73.3391ZM142.488 74.3679C143.222 74.4228 143.859 73.8718 143.91 73.1372C143.961 72.4026 143.407 71.7625 142.673 71.7076C141.938 71.6527 141.302 72.2037 141.251 72.9383C141.2 73.6729 141.754 74.313 142.488 74.3679ZM142.934 72.8465L142.623 72.7915L142.538 73.284L142.849 73.3391L142.934 72.8465Z" fill="#FBCCCC"/>
<path d="M100.471 147.269C100.743 147.317 101.002 147.135 101.048 146.863C101.095 146.591 100.912 146.332 100.64 146.284L100.471 147.269ZM100.06 149.382C101.528 149.491 102.802 148.389 102.904 146.92C103.006 145.451 101.898 144.171 100.429 144.061C98.9603 143.951 97.6871 145.053 97.5851 146.522C97.4832 147.992 98.5911 149.272 100.06 149.382ZM100.64 146.284L100.329 146.229L100.16 147.214L100.471 147.269L100.64 146.284Z" fill="#FBCCCC"/>
<path d="M163.354 156.318C163.626 156.366 163.885 156.184 163.931 155.912C163.978 155.64 163.795 155.381 163.523 155.333L163.354 156.318ZM162.943 158.43C164.411 158.54 165.684 157.438 165.786 155.969C165.888 154.5 164.78 153.22 163.312 153.11C161.843 153 160.57 154.102 160.468 155.571C160.366 157.041 161.474 158.321 162.943 158.43ZM163.523 155.333L163.212 155.278L163.043 156.263L163.354 156.318L163.523 155.333Z" fill="#FBCCCC"/>
<path d="M257.233 79.1572L254.032 78.5136L250.27 78.2489L247.349 79.0326L243.768 80.1865L240.953 82.6016M250.27 78.2489L247.349 79.0326L243.768 80.1866" stroke="#FBCCCC" stroke-width="8" stroke-linecap="round"/>
<path d="M229.122 77.5619L226.631 74.6523L223.518 72.9156L219.915 72.5806L216.179 72.9156L212.934 74.6523" stroke="#E27B7B" stroke-width="8" stroke-linecap="round"/>
<path d="M208.65 115.467L208.609 111.575L208.609 107.94L204.84 104.385L201.817 103.147L198.27 102.248" stroke="#E27B7B" stroke-width="8" stroke-linecap="round"/>
<path d="M197.992 152.539L197.992 146.399L194.879 140.582L188.342 135.009L183.983 135.009L179.446 135.344L174.644 136.381" stroke="#E27B7B" stroke-width="8" stroke-linecap="round"/>
<path d="M241.667 106.95L238.465 106.307L234.703 106.042L231.782 106.826L228.201 107.98L225.387 110.395M234.703 106.042L231.782 106.826L228.201 107.98" stroke="#FBCCCC" stroke-width="8" stroke-linecap="round"/>
<path d="M245.312 145.752L241.265 139.79L233.794 137.026L227.879 138.319L221.977 140.944L216.672 145.752" stroke="#FBCCCC" stroke-width="8" stroke-linecap="round"/>
<path d="M119.774 156.467L116.516 157.562L112.521 159.162L110.602 160.871" stroke="#03293D" stroke-width="9" stroke-linecap="round"/>
<path d="M327.817 120.597L331.401 119.996L335.387 118.678L338.464 117.34L342.217 113.364L345.953 108.84" stroke="#03293D" stroke-width="9" stroke-linecap="round"/>
<path d="M377.251 174.111L378.652 170.604L379.484 166.348L379.77 162.887L376.961 158.322L373.262 154.407" stroke="#03293D" stroke-width="9" stroke-linecap="round"/>
<path d="M371.793 153.76L378.019 147.943L381.755 140.187L383 129.522L381.755 119.181L374.676 109.809" stroke="#03293D" stroke-width="9" stroke-linecap="round"/>
<path d="M340.615 149.281L342.527 141.803L343.013 133.401L340.615 125.644L335.989 120.15L327.272 120.15" stroke="#03293D" stroke-width="9" stroke-linecap="round"/>
<path d="M270.203 132.944L272.115 125.467L272.115 118.536L267.501 110.456L262.52 105.285L252.246 102.7" stroke="#03293D" stroke-width="9" stroke-linecap="round"/>
<path d="M317.001 74.5829L310.463 70.142L303.547 68.2988L294.499 68.3172L286.492 70.142L275.285 75.5524" stroke="#03293D" stroke-width="9" stroke-linecap="round"/>
<path d="M341.596 65.2109L337.859 58.7474L331.322 54.2229L326.03 52.6071L318.87 51.6375L310.465 53.2413L306.417 56.162" stroke="#03293D" stroke-width="9" stroke-linecap="round"/>
<path d="M191.247 91.1507L183.986 91.1905L176.902 94.7205L172.864 98.622L168.409 104.521L165.451 112.844L165.807 117.948" stroke="#03293D" stroke-width="9" stroke-linecap="round"/>
<path d="M206.13 73.68L203.296 66.7399L197.428 61.3157L192.403 58.9516L185.443 56.9579L176.905 57.3328L172.505 59.6408" stroke="#03293D" stroke-width="9" stroke-linecap="round"/>
<path d="M260.033 188.664L262.212 185.432L266.57 180.908L272.485 176.06L277.155 176.06L284.003 177.03" stroke="#03293D" stroke-width="9" stroke-linecap="round"/>
<path d="M307.098 131.481L305.016 134.781L300.793 139.441L295.023 144.474L290.356 144.623L283.482 143.871" stroke="#E27B7B" stroke-width="9" stroke-linecap="round"/>
<path d="M313.759 160.442L313.16 161.848L312.146 163.971L310.894 166.392L310.268 166.942L309.443 167.405" stroke="#E27B7B" stroke-width="9" stroke-linecap="round"/>
<path d="M283.641 194.109L289.245 192.289L297.028 191.298L303.483 194.109L307.612 197.137L309.48 202.308" stroke="#E27B7B" stroke-width="9" stroke-linecap="round"/>
<path d="M322.537 98.7757L325.429 96.3454L329.588 93.7691L335.632 92.4278" stroke="#E27B7B" stroke-width="9" stroke-linecap="round"/>
<path d="M402.823 142.241L402.601 146.097L401.627 151.022L398.505 156.559" stroke="#B95F5F" stroke-width="9" stroke-linecap="round"/>
<path d="M200.881 181.878L205.862 154.731L221.116 134.371L239.483 132.432L249.134 142.45" stroke="#03293D" stroke-width="11" stroke-linecap="round"/>
<path d="M200.882 181.878L205.863 154.731L218.627 108.84L229.523 101.407L241.042 101.407" stroke="#03293D" stroke-width="11" stroke-linecap="round"/>
<path d="M201.503 183.816L206.484 156.669L221.116 94.943L227.653 82.0159L241.662 74.9061L255.983 72.9671" stroke="#03293D" stroke-width="12" stroke-linecap="round"/>
<path d="M201.502 183.816L206.483 156.669L221.116 94.9431L240.417 70.0586L242.285 59.0707L254.115 46.4669L262.832 43.2351L270.614 43.2351" stroke="#03293D" stroke-width="12" stroke-linecap="round"/>
<path d="M200.882 181.877L203.684 154.407L200.882 141.157L190.609 129.523L176.6 131.139" stroke="#03293D" stroke-width="11" stroke-linecap="round"/>
<path d="M200.883 181.877L203.685 154.407L212.401 110.132L208.043 102.053L199.637 99.1445" stroke="#03293D" stroke-width="9" stroke-linecap="round"/>
<path d="M200.882 181.877L203.683 154.407L232.324 74.9063L223.295 68.766L213.956 70.3819" stroke="#03293D" stroke-width="9" stroke-linecap="round"/>
<path d="M200.883 181.877L203.684 154.407L209.91 128.877L220.494 99.7909L244.153 49.6986L239.795 43.8815L233.88 45.8205" stroke="#03293D" stroke-width="9" stroke-linecap="round"/>
<path d="M154.81 61.6563L159.791 43.8817L188.12 34.8328L216.449 47.1134" stroke="#03293D" stroke-width="12" stroke-linecap="round"/>
<path d="M197.34 34.1631L219.25 20.6127L249.136 21.5822L274.352 45.174" stroke="#03293D" stroke-width="12" stroke-linecap="round"/>
<path d="M197.34 34.1631L219.25 20.6127L249.136 21.5822L274.352 45.174" stroke="#03293D" stroke-width="12" stroke-linecap="round"/>
<path d="M197.34 34.1631L219.25 20.6127L249.136 21.5822L274.352 45.174" stroke="#03293D" stroke-width="12" stroke-linecap="round"/>
<path d="M271.238 39.2637L292.719 26.7532L325.095 32.2472L341.594 54.8694" stroke="#03293D" stroke-width="12" stroke-linecap="round"/>
<path d="M340.348 49.9258L356.536 48.4065L372.101 59.3944L375.214 77.8154" stroke="#03293D" stroke-width="12" stroke-linecap="round"/>
<path d="M382.066 122.855L398.255 121.336L413.82 132.324L416.933 150.745" stroke="#03293D" stroke-width="12" stroke-linecap="round"/>
<path d="M352.488 86.541L365.252 79.4312L375.525 79.4312L391.713 82.9861L403.854 101.407L399.496 121.444" stroke="#03293D" stroke-width="12" stroke-linecap="round"/>
<path d="M401.164 416.062C399.138 415.162 398.327 412.968 398.794 411.599L398.953 411.13C405.678 403.505 395.662 392.46 387.429 398.503L386.57 399.134L385.899 399.254C384.219 399.553 383.058 398.503 382.868 397.523C382.694 396.622 382.513 395.572 382.275 394.153C382.152 393.42 382.162 392.873 382.243 392.474C382.864 389.404 384.108 387.694 386.801 385.851C389.935 383.707 393.629 382.693 397.327 382.928C401.023 383.163 404.56 384.636 407.405 387.15C407.582 387.306 407.759 387.462 407.934 387.616C409.629 389.109 411.248 390.536 412.626 392.091C414.148 393.808 415 395.282 415.281 396.572C416.033 400.033 415.123 404.629 413.366 408.693C412.112 411.594 409.336 413.615 405.267 415.967C403.839 416.542 403.156 416.597 402.835 416.587C402.52 416.578 402.16 416.504 401.164 416.062ZM386.509 399.178C386.509 399.178 386.509 399.178 386.51 399.178L386.509 399.178Z" fill="#6893EF" stroke="#03293D" stroke-width="9"/>
<path d="M399.285 388.815C401.366 389.161 403.705 387.196 402.272 385.634C400.77 384.248 398.185 383.977 396.109 384.023C393.957 384.071 391.869 384.672 389.907 385.543C388.426 386.201 386.751 387.052 385.772 387.897C383.767 389.627 382.967 393.565 382.938 395.238C382.937 395.299 382.952 395.363 382.977 395.419C383.476 396.532 383.794 397.078 384.006 397.344C384.16 397.536 384.838 397.223 384.838 396.978C384.838 396.956 384.842 396.934 384.849 396.914C387.185 389.741 389.435 387.569 395.701 388.22L399.285 388.815Z" fill="#3F6CCD"/>
<path d="M393.743 358.653L394.051 359.078C405.049 374.244 408.278 388.173 410.061 398.045C410.286 399.294 410.482 400.432 410.662 401.47C411.225 404.733 411.62 407.018 412.218 408.717C412.245 408.794 412.271 408.866 412.297 408.934C417.79 404.061 420.362 400.171 421.555 395.072C423.006 388.871 422.543 380.47 420.847 365.832C415.721 347.902 406.187 332.101 396.155 322.179C391.097 317.176 386.128 313.881 381.764 312.406C377.491 310.962 374.099 311.328 371.422 313.111L393.743 358.653ZM393.743 358.653L393.345 358.311M393.743 358.653L393.345 358.311M393.345 358.311C377.911 345.012 370.027 334.731 367.325 327.224M393.345 358.311L367.325 327.224M367.325 327.224C366.013 323.58 366.02 320.867 366.676 318.819M367.325 327.224L366.676 318.819M366.676 318.819C367.328 316.783 368.794 314.861 371.422 313.111L366.676 318.819Z" fill="#6893EF" stroke="#03293D" stroke-width="9"/>
<path d="M403.794 367.214C404.728 370.769 411.33 378.809 409.046 382.727C405.973 382.727 404.377 374.647 399.124 365.598C391.809 359.797 359.276 325.525 368.304 317.445C366.974 322.04 402.86 363.659 403.794 367.214Z" fill="#3F6CCD"/>
<path d="M408.234 377.355L416.869 402.116C414.549 408.218 411.243 411.071 406.596 413.427L396.945 384.665C405.662 385.634 405.432 385.112 408.234 377.355Z" fill="#6893EF"/>
<path d="M408.152 376.909C408.858 378.242 409.568 378.41 409.708 380.787C407.307 387.019 402.619 388.486 398.19 388.543L396.971 384.644C405.198 384.538 404.577 384.785 408.152 376.909Z" fill="#3F6CCD"/>
<ellipse cx="2.53104" cy="7.02824" rx="2.53104" ry="7.02824" transform="matrix(0.816656 -0.577124 0.548366 0.836238 388.477 325.72)" fill="#B5CAF5"/>
<path d="M164.882 338.041C175.543 343.45 198.56 336.74 209.088 341.273" stroke="#03293D" stroke-width="17" stroke-linecap="round"/>
<path d="M121.254 194.119C111.194 191.161 98.7536 197.403 95.6801 202.865" stroke="#03293D" stroke-width="17" stroke-linecap="round"/>
<path d="M226.984 226.984C236.572 229.499 249.449 224.417 253.036 219.918" stroke="#03293D" stroke-width="17" stroke-linecap="round"/>
<path d="M158.404 356.609L155.39 353.353L158.404 356.609L158.088 356.928C154.237 366.818 140.121 363.009 141.902 352.511L142.303 350.149L142.077 349.232C141.525 346.991 139.7 346.018 138.276 346.33C137.609 346.476 136.851 346.652 135.923 346.873C135.049 347.081 134.49 347.354 134.143 347.628L131.554 343.993L134.143 347.628C132.04 349.289 131.078 351.086 130.596 354.578C130.027 358.697 130.708 363.037 132.595 366.922C134.481 370.806 137.438 373.957 140.983 375.915C141.196 376.033 141.409 376.151 141.622 376.269C143.66 377.398 145.636 378.493 147.62 379.286C149.845 380.175 151.495 380.432 152.664 380.22C155.861 379.64 159.409 377.01 162.211 373.649C164.158 371.314 164.781 367.711 165.131 362.523C165.018 360.564 164.712 359.718 164.467 359.248C164.167 358.672 163.745 358.198 162.527 356.979C161.094 355.545 159.195 355.81 158.404 356.609ZM142.308 350.168L142.308 350.168L142.308 350.168Z" fill="#6893EF" stroke="#03293D" stroke-width="9"/>
<path d="M138.772 367.064C139.843 368.844 138.894 371.805 137.02 371.017C134.993 369.955 133.584 367.063 132.762 364.835C132.075 362.975 131.765 360.985 131.688 358.975C131.617 357.101 131.627 354.776 131.988 353.312C132.659 350.594 135.768 348.221 137.244 347.511C137.312 347.478 137.391 347.465 137.465 347.469C138.761 347.54 139.372 347.66 139.668 347.781C139.904 347.877 139.858 348.632 139.621 348.739C139.597 348.75 139.575 348.766 139.556 348.784C134.219 354.018 133.261 357.175 136.505 363.295L138.772 367.064Z" fill="#3F6CCD"/>
<path d="M109.563 372.841L109.064 372.699L108.613 372.442C90.2292 361.989 77.803 358.083 70.1154 358.319C66.4286 358.432 64.2092 359.482 62.818 360.831C61.3962 362.21 60.2871 364.437 59.8443 367.941C59.3744 371.66 60.6286 375.565 63.8692 379.517C67.1364 383.501 72.2512 387.287 78.8309 390.448C91.8392 396.696 109.715 400.083 127.551 398.232C136.762 394.483 141.561 391.809 145.982 387.879C150.032 384.278 153.849 379.57 160.153 371.667C158.645 371.851 156.802 372.279 154.334 372.853C153.332 373.086 152.227 373.342 151.001 373.616C141.45 375.75 127.693 378.012 109.563 372.841Z" fill="#6893EF" stroke="#03293D" stroke-width="9"/>
<path d="M121.394 379.908C124.933 379.442 134.85 382.964 137.338 379.077C136.029 375.947 128.21 377.54 117.976 375.795C109.734 370.657 65.5893 351.177 62.298 363.59C65.7901 360.405 117.855 380.373 121.394 379.908Z" fill="#3F6CCD"/>
<path d="M132.243 380.387L154.236 377.772C160.507 375.746 162.791 375.485 163.423 365.489L133.845 366.227C138.412 374.591 137.855 374.564 132.243 380.387Z" fill="#6893EF"/>
<path d="M131.821 380.483C133.299 380.671 133.75 381.328 135.911 380.524C140.394 375.595 139.692 370.236 137.855 365.702L133.89 366.015C137.303 374.436 137.257 373.705 131.821 380.483Z" fill="#3F6CCD"/>
<ellipse cx="2.68549" cy="7.11004" rx="2.68549" ry="7.11004" transform="matrix(-0.152596 1.0006 0.961339 0.222751 78.207 380.837)" fill="#B5CAF5"/>
<path d="M156.663 370.656C154.566 372.082 151.94 371.994 152.487 372.903C153.035 373.812 156.548 375.375 158.646 373.949C160.743 372.524 160.387 368.542 159.839 367.633C159.292 366.723 158.761 369.231 156.663 370.656Z" fill="#B5CAF5"/>
<path d="M238.23 246.162L257.998 237.432L279.715 249.782L309.001 265.497L214.038 261.539L238.23 246.162Z" fill="#03293D"/>
<defs>
<linearGradient id="paint0_linear_166_3813" x1="375.674" y1="173.591" x2="429.829" y2="256.11" gradientUnits="userSpaceOnUse">
<stop stop-color="#BFD2FC"/>
<stop offset="0.76" stop-color="#386BD7"/>
<stop offset="1" stop-color="#386BD7"/>
</linearGradient>
</defs>
</svg>
