<svg width="515" height="790" viewBox="0 0 515 790" fill="none" xmlns="http://www.w3.org/2000/svg">
<path d="M412.661 61.0918C415.438 37.155 410.653 31.2098 388.689 25.3453C411.444 27.3629 416.065 23.1259 425.177 0.240753C423.04 25.8841 429.309 29.1143 449.297 34.5831C428.972 32.9693 421.973 34.0172 412.661 61.0918Z" fill="#F9A5A5"/>
<path d="M382.881 91.957C364.772 107.855 364.336 115.474 376.701 134.551C361.17 117.798 354.901 117.843 332.797 128.713C351.575 111.121 349.09 104.521 337.926 87.0618C351.925 101.887 357.82 105.802 382.881 91.957Z" fill="#F9A5A5"/>
<path d="M331.413 188.824C321.333 198.983 321.386 203.515 329.491 214.314C319.605 205.022 315.892 205.305 303.239 212.648C313.647 201.457 311.905 197.649 304.577 187.76C313.477 195.972 317.13 198.051 331.413 188.824Z" fill="#F9A5A5"/>
<path d="M189.03 201C197.148 223.689 204.073 226.897 226.361 222.421C205.068 230.697 202.803 236.543 204.777 261.096C195.329 237.161 188.278 237.043 167.935 240.999C186.871 233.439 192.681 229.397 189.03 201Z" fill="#F9A5A5"/>
<path d="M260.161 284.502C265.898 297.613 270.131 299.231 283.154 295.669C270.876 301.442 269.773 304.998 271.946 319.465C265.37 305.67 261.188 305.888 249.296 309.063C260.207 303.81 263.484 301.178 260.161 284.502Z" fill="#F9A5A5"/>
<path d="M453.563 204.469C430.925 212.73 427.76 219.674 432.377 241.934C423.967 220.694 418.107 218.466 393.567 220.594C417.442 210.995 417.515 203.944 413.431 183.627C421.111 202.514 425.189 208.299 453.563 204.469Z" fill="#F9A5A5"/>
<path d="M370.51 276.123C357.435 281.943 355.843 286.186 359.488 299.187C353.638 286.945 350.075 285.865 335.622 288.128C349.375 281.466 349.13 277.285 345.881 265.414C351.203 276.291 353.855 279.551 370.51 276.123Z" fill="#F9A5A5"/>
<path d="M201.189 53C186.53 72.1259 187.59 79.6837 203.439 95.9817C184.938 82.5806 178.798 83.8484 159.239 98.823C174.224 77.9039 170.499 71.9163 156.143 56.9711C172.765 68.7794 179.311 71.4688 201.189 53Z" fill="#F9A5A5"/>
<path d="M169.612 158.049C161.708 169.98 162.644 174.414 172.7 183.423C161.191 176.239 157.605 177.241 146.629 186.912C154.653 173.906 152.201 170.51 143.084 162.242C153.415 168.559 157.403 169.885 169.612 158.049Z" fill="#F9A5A5"/>
<ellipse cx="258.114" cy="749.781" rx="182.188" ry="40.2188" fill="#A0A0A0" fill-opacity="0.48"/>
<path d="M212.057 751.305C212.057 759.045 198.164 765.016 189.008 766.539C181.91 768.461 163.432 769.891 161.853 757.094C160.906 747.344 175.746 734.852 190.902 736.375C198.924 736.375 212.057 743.564 212.057 751.305Z" fill="#03293D"/>
<path d="M190.228 689.453L212.01 695.8L212.33 751.514L190.228 752.219V689.453Z" fill="#03293D"/>
<path d="M300.741 757.753C300.741 764.837 314.535 770.301 323.626 771.695C330.673 773.454 349.019 774.762 350.587 763.051C351.527 754.127 336.793 742.695 321.745 744.089C313.781 744.089 300.741 750.668 300.741 757.753Z" fill="#03293D"/>
<path d="M322.372 708.953L301.054 713.972L300.741 758.031L322.372 758.588V708.953Z" fill="#03293D"/>
<path d="M27.3564 590.612L31.5423 588.829L27.3564 590.612L27.5362 591.004C27.7147 600.9 42.542 602.269 44.5788 592.509L44.8531 591.194L45.2808 590.645C46.3528 589.267 47.9619 589.23 48.799 589.806C49.4808 590.275 50.2607 590.831 51.2806 591.567C51.8939 592.009 52.2566 592.399 52.4576 592.719C53.9618 595.117 54.1993 597.045 53.4556 600.089C52.5852 603.652 50.5394 606.849 47.6245 609.196C44.7097 611.543 41.0845 612.914 37.2947 613.103C37.0592 613.115 36.8249 613.127 36.5916 613.139C34.3398 613.254 32.1893 613.363 30.1334 613.223C27.8518 613.068 26.2728 612.629 25.2564 611.969C22.4623 610.156 20.0857 606.472 18.6665 602.535C17.6769 599.79 18.341 596.591 19.7723 592.221C20.4653 590.814 20.9505 590.315 21.2109 590.1C21.4934 589.867 21.8588 589.667 23.0507 589.254C25.02 588.572 26.8609 589.53 27.3564 590.612ZM44.8708 591.11C44.8707 591.11 44.8707 591.11 44.8706 591.11L44.8708 591.11Z" fill="#6893EF" stroke="#03293D" stroke-width="9"/>
<path d="M42.2282 606.693C40.5186 607.817 40.1925 610.708 42.2598 610.814C44.3191 610.755 46.4313 609.17 47.9344 607.731C49.4505 606.28 50.5684 604.499 51.4221 602.609C52.0787 601.155 52.7547 599.425 52.9114 598.178C53.2292 595.648 51.1848 592.416 50.083 591.246C50.0394 591.199 49.9821 591.163 49.9219 591.14C48.7801 590.702 48.1787 590.545 47.8505 590.511C47.606 590.486 47.3389 591.15 47.5078 591.323C47.5233 591.339 47.5362 591.357 47.5456 591.377C50.6323 597.863 50.4295 600.864 45.3721 604.627L42.2282 606.693Z" fill="#3F6CCD"/>
<path d="M21.599 602.939C22.687 603.642 23.9384 604.535 25.4693 605.627C26.3016 606.221 27.2165 606.874 28.2327 607.587C36.1932 613.175 47.9587 620.578 66.2887 623.594L66.8166 623.681L67.3508 623.648C87.667 622.395 100.334 624.153 107.298 627.454C110.664 629.049 112.407 630.865 113.256 632.624C114.106 634.384 114.329 636.647 113.562 639.623L21.599 602.939ZM21.599 602.939C24.4001 611.249 26.2168 616.398 28.5735 620.802C31.2936 625.886 34.7996 630.068 41.9648 636.911C57.6738 645.66 75.178 650.045 89.1536 650.107C96.2263 650.138 102.105 649.061 106.33 647.132C110.485 645.236 112.776 642.67 113.562 639.623L21.599 602.939Z" fill="#6893EF" stroke="#03293D" stroke-width="9"/>
<path d="M53.4913 624.465C50.4184 622.655 40.1564 621.58 39.2133 617.359C41.4799 615.295 48.0762 619.761 58.0193 622.435C67.3049 621.498 114.286 623.136 113.046 634.74C110.946 630.697 56.5641 626.275 53.4913 624.465Z" fill="#3F6CCD"/>
<path d="M43.4213 620.497L24.2289 609.478C19.1945 605.277 17.1978 604.141 20.0395 595.61L46.8009 608.126C39.7695 613.214 40.2871 613.416 43.4213 620.497Z" fill="#6893EF"/>
<path d="M43.7742 620.748C42.3599 620.308 41.7233 620.67 40.0252 619.135C37.6159 613.249 40.0897 609.094 43.3185 606.078L46.8325 607.933C40.8361 613.533 41.1279 612.946 43.7742 620.748Z" fill="#3F6CCD"/>
<ellipse cx="2.49304" cy="6.82334" rx="2.49304" ry="6.82334" transform="matrix(-0.218511 0.958731 -0.994289 -0.211014 92.6196 642.619)" fill="#B5CAF5"/>
<path d="M24.4433 602.609C25.8716 604.633 28.2999 605.617 27.489 606.15C26.678 606.683 22.9351 606.562 21.5067 604.538C20.0784 602.513 21.7658 599.359 22.5767 598.826C23.3876 598.294 23.015 600.584 24.4433 602.609Z" fill="#B5CAF5"/>
<line y1="-9.5" x2="31.6425" y2="-9.5" transform="matrix(0.937996 -0.346646 0.368893 0.929472 71.5071 476.172)" stroke="#021B27" stroke-width="19"/>
<path d="M396.73 448.75L452.84 457.587" stroke="#021B27" stroke-width="21"/>
<path d="M255.273 343.938L275.797 360.086L302.32 348.508L332 354.906L347.472 370.75L365.154 368.922L380.31 381.109V395.43L404.623 406.703L410.938 420.414L406.517 437.477L424.451 446.312V459.646L404.198 545.031L314.852 600.762H198.22L108.874 545.031L88.6208 459.646L104.344 440.828L107.817 416.758L122.026 405.484L131.499 399.086L135.288 384.461L149.496 379.281H162.126L168.126 364.047L193.07 354.906L204.437 357.039L222.751 343.938H255.273Z" fill="#F9A5A5"/>
<path d="M72.3757 667.385V470.527L314.871 522.204V724.868L72.3757 667.385ZM316.101 725.16L316.098 725.159C316.099 725.16 316.1 725.16 316.101 725.16Z" fill="#BFD2FC" stroke="#03293D" stroke-width="12"/>
<path d="M323.065 520.78L447.82 459.195L454.622 649.787L322.18 723.734L323.065 520.78Z" fill="#3F6CCD" stroke="#03293D" stroke-width="12"/>
<path d="M79.6372 495.653C79.6372 486.744 87.8483 480.101 96.5608 481.961L302.216 525.876C308.676 527.255 313.293 532.962 313.293 539.567V719.535C313.293 722.012 312.049 723.079 309.634 722.53C288.293 717.677 177.814 691.426 90.4108 670.788C84.0911 669.296 79.6372 663.658 79.6372 657.164V495.653Z" fill="#6893EF"/>
<path d="M306.978 526.793L313.293 522.832V723.926L306.978 722.098V526.793Z" fill="#386BD7"/>
<path d="M66.3014 470.841C66.5006 470.642 66.6799 470.57 66.8318 470.542C67.0054 470.51 67.2149 470.525 67.4247 470.608C67.6344 470.69 67.7925 470.82 67.8907 470.956C67.9759 471.074 68.0516 471.242 68.0516 471.517L68.0516 541.971C68.0516 542.565 67.5009 543.075 66.8512 542.99C65.6707 542.837 64.5387 542.693 63.4454 542.553C48.0376 540.583 40.2874 539.592 12.1603 530.399C11.5132 530.187 11.3249 529.429 11.7236 528.942C28.3037 508.678 42.4401 494.602 61.5231 475.601C63.0815 474.049 64.6729 472.464 66.3014 470.841Z" fill="#3F6CCD" stroke="#03293D" stroke-width="8"/>
<path d="M67.0073 471.34L67.0073 478.653L18.0659 531.364L12.3824 529.536C30.8311 507.525 43.0977 494.779 67.0073 471.34Z" fill="#2856B7"/>
<path d="M312.041 591.568L424.228 562.542" stroke="#03293D" stroke-width="29" stroke-linecap="round"/>
<path d="M446.899 458.264C449.667 456.851 453.045 457.436 455.179 459.701C474.643 480.358 487.771 494.556 501.858 513.788C504.016 516.736 503.324 520.95 500.198 523.104C455.456 553.927 423.851 569.575 372.636 591.446C369.413 592.822 365.653 591.575 363.882 588.526L328.216 527.117C326.199 523.645 327.511 519.192 331.087 517.367L446.899 458.264Z" fill="url(#paint0_linear_988_5881)" stroke="#03293D" stroke-width="12"/>
<path d="M328.449 524.66L455.065 460.98C468.415 475.362 479.989 488.952 491.71 503.182C497.08 509.703 495.428 519.465 488.196 523.831C446.753 548.847 417.055 563.656 364.76 586.512L328.449 524.66Z" fill="#6893EF"/>
<path d="M76.2261 563.543L95.7587 566.842" stroke="#03293D" stroke-width="29" stroke-linecap="round"/>
<path d="M131.725 406.262L137.271 389.573L153.059 382.566L167.583 389.573" stroke="#FBCCCC" stroke-width="12" stroke-linecap="round"/>
<path d="M183.536 574.98C183.21 598.57 163.016 618.04 137.685 617.713C112.354 617.387 92.7054 597.404 93.0319 573.814C93.3583 550.224 113.552 530.754 138.884 531.08C164.215 531.407 183.863 551.39 183.536 574.98Z" fill="#D1E0FF" stroke="#03293D" stroke-width="20"/>
<path d="M306.428 593.932C306.117 616.4 287.011 634.873 263.132 634.566C239.252 634.258 220.664 615.299 220.975 592.831C221.286 570.364 240.392 551.89 264.271 552.198C288.15 552.506 306.739 571.465 306.428 593.932Z" fill="#D1E0FF" stroke="#03293D" stroke-width="20"/>
<path d="M304.421 594.516C304.128 615.717 288.058 632.699 268.529 632.447C259.057 632.325 257.167 631.996 254.65 631.355C285.355 625.961 315.829 591.616 271.178 555.084C285.386 555.267 304.714 573.315 304.421 594.516Z" fill="#BDD0F5"/>
<path d="M288.151 629.349C274.462 637.335 268.471 636.714 257.126 635.044C245.781 633.374 235.638 624.651 232.958 622.769C250.672 645.016 308.312 646.555 306.669 591.803C305.229 604.583 301.84 621.363 288.151 629.349Z" fill="#395A6B"/>
<path d="M161.676 612.857C146.179 620.151 139.92 619.043 128.132 616.429C116.344 613.815 106.725 603.924 104.13 601.753C120.036 626.353 178.063 633.802 183.295 576.475C180.145 589.716 177.173 605.563 161.676 612.857Z" fill="#537789"/>
<path d="M180.894 575.879C180.582 598.415 162.017 616.449 144.062 616.217C134.347 616.092 132.732 615.195 130.15 614.514C161.646 608.766 192.191 573.395 146.414 534.584C160.986 534.772 183.101 553.34 180.894 575.879Z" fill="#BDD0F5"/>
<path d="M150.514 523.399C148.995 523.812 137.987 521.74 124.223 525.482C110.459 529.224 100.843 537.537 100.672 536.95C100.672 536.95 109.945 527.465 123.709 523.722C137.473 519.98 151.122 523.234 150.514 523.399Z" fill="#537789"/>
<path d="M275.058 543.942C273.56 544.424 262.463 542.856 248.898 547.222C235.333 551.588 226.135 560.329 225.935 559.751C225.935 559.751 234.734 549.853 248.299 545.488C261.864 541.122 275.657 543.749 275.058 543.942Z" fill="#537789"/>
<path d="M287.477 586.753C287.256 602.698 273.084 615.443 255.822 615.221C238.56 614.998 225.839 598.953 233.479 579.908C244.371 605.031 280.969 574.68 250.214 563.561C271.037 556.367 287.697 570.807 287.477 586.753Z" fill="#002E3D"/>
<ellipse cx="4.73623" cy="4.57034" rx="4.73623" ry="4.57034" transform="matrix(0.999917 0.0128844 -0.0138369 0.999904 255.152 595.1)" fill="#D1E0FF"/>
<path d="M166.02 573.372C163.286 590.761 146.281 602.565 128.037 599.737C109.794 596.909 98.8397 577.471 109.916 557.807C117.51 586.889 161.023 559.207 130.2 542.451C153.377 537.709 168.754 555.983 166.02 573.372Z" fill="#002E3D"/>
<ellipse cx="5.06561" cy="5.04432" rx="5.06561" ry="5.04432" transform="matrix(0.988065 0.153178 -0.155333 0.987997 130.483 577.652)" fill="#D1E0FF"/>
<path d="M193.141 572.426C201.537 570.839 206.279 571.678 214.361 576.292" stroke="#03293D" stroke-width="29" stroke-linecap="round"/>
<path d="M212.286 566.515C211.77 566.472 207.615 565.253 202.941 564.871C198.266 564.488 193.966 564.565 194.003 564.146C194.003 564.146 198.279 563.548 202.954 563.931C207.628 564.314 212.492 566.531 212.286 566.515Z" fill="#537789"/>
<path d="M346.358 576.165C345.54 576.333 339.599 578.743 332.189 580.263C324.78 581.782 318.095 583.257 317.955 582.617C317.955 582.617 324.544 579.935 331.954 578.416C339.364 576.897 346.685 576.098 346.358 576.165Z" fill="#537789"/>
<path d="M84.5529 557.604C84.2776 557.544 78.8575 556.683 77.6013 556.557C74.1326 556.207 71.1638 557.78 71.2754 557.301C71.2754 557.301 75.0963 555.025 79.872 556.061C82.3659 556.601 84.6631 557.628 84.5529 557.604Z" fill="#537789"/>
<path d="M285.311 361.914L302.677 353.078L330.147 357.953L341.83 372.273" stroke="#FBCCCC" stroke-width="11" stroke-linecap="round"/>
<path d="M328.617 388.66L321.986 384.473L314.971 382.735L305.794 382.752L297.673 384.473L286.306 389.574" stroke="#E27B7B" stroke-width="9" stroke-linecap="round"/>
<path d="M352.569 462.131L354.508 455.082L355.001 447.16L352.569 439.847L347.877 434.668L346.209 434.668" stroke="#FBCCCC" stroke-width="9" stroke-linecap="round"/>
<path d="M339.262 492.32L343.258 491.619L345.79 488.332L347.561 485.551L347.561 480.989L346.614 476.715" stroke="#E27B7B" stroke-width="9" stroke-linecap="round"/>
<path d="M205.384 490.797L200.964 484.703L198.82 480.308L196.227 478.305L191.807 476.957L187.386 476.477" stroke="#E27B7B" stroke-width="8" stroke-linecap="round"/>
<path d="M159.374 470.316L158.427 466.659L158.427 461.784L160.321 455.691L161.584 452.034L165.689 449.901" stroke="#E27B7B" stroke-width="9" stroke-linecap="round"/>
<path d="M205.7 491.102L203.174 485.618L204.212 468.794L212.015 445.399L216.12 427.118L221.262 417.302L230.328 398.477L235.38 393.907L245.258 370.075L240.838 364.591L234.838 366.419" stroke="#E27B7B" stroke-width="9" stroke-linecap="round"/>
<path d="M234.526 483.161L231.279 482.554L227.463 482.304L224.501 483.043L220.869 484.131L215.804 486.836" stroke="#FBCCCC" stroke-width="8" stroke-linecap="round"/>
<path d="M105.697 445.636L107.591 421.261L126.22 406.027L152.743 408.769" stroke="#FBCCCC" stroke-width="12" stroke-linecap="round"/>
<path d="M212.015 491.103L212.962 483.181L214.857 475.563L216.435 468.86L221.487 459.11L225.276 439.915L228.75 430.774L232.628 416.388L252.204 392.927L254.099 382.567L266.098 370.685L274.939 367.638L282.832 367.638" stroke="#FBCCCC" stroke-width="12" stroke-linecap="round"/>
<path d="M90.7667 465.508L94.8083 453.95L110.945 444.011L134.107 443.377" stroke="#FBCCCC" stroke-width="12" stroke-linecap="round"/>
<path d="M393.256 437.172H407.78L424.285 444.332V469.621L393.256 482.875L384.73 468.555L391.361 454.844L393.256 437.172Z" fill="#E27B7B"/>
<path d="M384.82 467.574L391.135 462.09L394.924 454.777L396.187 444.723L394.924 437.477" stroke="#B95F5F" stroke-width="9" stroke-linecap="round"/>
<path d="M410.622 439.609L394.835 440.568" stroke="#B95F5F" stroke-width="9" stroke-linecap="round"/>
<path d="M344.72 370.287L361.139 368.855L376.926 379.214L380.084 396.581" stroke="#FBCCCC" stroke-width="12" stroke-linecap="round"/>
<path d="M376.611 397.496L393.03 400.847L405.344 418.214L400.923 437.105" stroke="#E27B7B" stroke-width="12" stroke-linecap="round"/>
<path d="M163.431 385.374L167.268 369.464L196.001 360.933L224.735 372.511" stroke="#FBCCCC" stroke-width="12" stroke-linecap="round"/>
<path d="M206.688 357.953L226.313 346.309L256.626 347.223L273.943 362.219" stroke="#FBCCCC" stroke-width="12" stroke-linecap="round"/>
<path d="M88.5977 470.079L92.9138 450.294L109.05 440.355L132.213 439.721" stroke="#03293D" stroke-width="12" stroke-linecap="round"/>
<path d="M103.802 441.371L105.696 416.996L124.325 401.761L150.848 404.503" stroke="#03293D" stroke-width="12" stroke-linecap="round"/>
<path d="M130.462 400.778L136.008 384.089L151.796 377.081L166.32 384.089" stroke="#03293D" stroke-width="12" stroke-linecap="round"/>
<path d="M210.526 493.473L215.893 482.2L225.366 477.63L234.838 477.63" stroke="#03293D" stroke-width="9" stroke-linecap="round"/>
<path d="M206.105 492.254L204.842 484.027L200.737 476.105L189.055 473.363" stroke="#03293D" stroke-width="9" stroke-linecap="round"/>
<path d="M160.321 471.84L158.743 468.488L156.532 463.613L149.586 459.652L142.639 461.32" stroke="#03293D" stroke-width="9" stroke-linecap="round"/>
<path d="M161.268 472.144L160.321 468.487L160.321 463.612L162.216 457.519L163.479 453.862L167.584 451.73" stroke="#03293D" stroke-width="9" stroke-linecap="round"/>
<path d="M267.677 499.262L269.571 496.215L272.097 490.73L273.879 484L273.045 477.02L267.677 470.012" stroke="#03293D" stroke-width="9" stroke-linecap="round"/>
<path d="M353.836 501.532L351.261 498.992L347.877 496.52L340.299 492.864L332.405 491.877L327.038 491.877" stroke="#03293D" stroke-width="9" stroke-linecap="round"/>
<path d="M338.122 492.297L340.732 489.791L343.264 486.504L345.035 483.723L345.035 479.16L344.088 474.887" stroke="#03293D" stroke-width="9" stroke-linecap="round"/>
<path d="M311.334 414.485L307.737 413.726L303.503 413.453L300.199 414.485L296.146 415.994L292.937 419.078M303.502 413.453L300.199 414.485L296.146 415.994" stroke="#03293D" stroke-width="9" stroke-linecap="round"/>
<path d="M314.95 420.147L310.213 418.32L304.548 418.32L301.585 419.059L297.953 420.147L295.099 422.424" stroke="#FBCCCC" stroke-width="8" stroke-linecap="round"/>
<path d="M293.437 486.945L288.701 485.118L283.036 485.118L280.849 486.227L279.586 486.945L273.271 493.539" stroke="#FBCCCC" stroke-width="8" stroke-linecap="round"/>
<path d="M307.206 395.553C307.751 395.643 308.268 395.274 308.36 394.729C308.452 394.184 308.086 393.67 307.541 393.581L307.206 395.553ZM306.661 399.834C309.599 400.038 312.159 397.822 312.378 394.885C312.598 391.948 310.393 389.401 307.455 389.197C304.517 388.992 301.957 391.208 301.737 394.145C301.518 397.083 303.722 399.629 306.661 399.834ZM307.541 393.581L307.225 393.529L306.891 395.502L307.206 395.553L307.541 393.581Z" fill="#FBCCCC"/>
<path d="M254.708 494.156C255.525 494.29 256.3 493.737 256.439 492.92C256.577 492.102 256.027 491.331 255.21 491.197L254.708 494.156ZM254.048 500.602C258.455 500.909 262.295 497.585 262.624 493.179C262.953 488.773 259.647 484.953 255.239 484.647C250.831 484.34 246.992 487.664 246.663 492.07C246.334 496.476 249.64 500.296 254.048 500.602ZM255.21 491.197L254.894 491.145L254.393 494.104L254.708 494.156L255.21 491.197Z" fill="#FBCCCC"/>
<path d="M258.665 407.248C258.937 407.292 259.195 407.108 259.241 406.836C259.287 406.563 259.104 406.306 258.832 406.261L258.665 407.248ZM258.234 409.362C259.703 409.464 260.983 408.356 261.093 406.888C261.202 405.419 260.1 404.146 258.631 404.043C257.162 403.941 255.882 405.049 255.772 406.518C255.663 407.986 256.765 409.26 258.234 409.362ZM258.832 406.261L258.516 406.209L258.349 407.196L258.665 407.248L258.832 406.261Z" fill="#FBCCCC"/>
<path d="M297.818 394.451C298.09 394.496 298.348 394.311 298.395 394.039C298.441 393.766 298.257 393.509 297.985 393.464L297.818 394.451ZM297.387 396.565C298.856 396.667 300.136 395.559 300.246 394.091C300.356 392.622 299.253 391.349 297.784 391.246C296.315 391.144 295.035 392.252 294.925 393.721C294.816 395.19 295.918 396.463 297.387 396.565ZM297.985 393.464L297.669 393.413L297.502 394.399L297.818 394.451L297.985 393.464Z" fill="#FBCCCC"/>
<path d="M252.981 483.42C253.253 483.464 253.512 483.28 253.558 483.007C253.604 482.735 253.421 482.478 253.148 482.433L252.981 483.42ZM252.55 485.534C254.019 485.636 255.299 484.528 255.409 483.059C255.519 481.591 254.417 480.317 252.947 480.215C251.478 480.113 250.198 481.221 250.089 482.69C249.979 484.158 251.081 485.432 252.55 485.534ZM253.148 482.433L252.832 482.381L252.665 483.368L252.981 483.42L253.148 482.433Z" fill="#FBCCCC"/>
<path d="M322.446 461.482C322.719 461.527 322.977 461.342 323.023 461.07C323.069 460.798 322.886 460.54 322.613 460.496L322.446 461.482ZM322.016 463.596C323.485 463.698 324.765 462.591 324.874 461.122C324.984 459.653 323.882 458.38 322.413 458.278C320.943 458.176 319.664 459.283 319.554 460.752C319.444 462.221 320.546 463.494 322.016 463.596ZM322.613 460.496L322.298 460.444L322.131 461.43L322.446 461.482L322.613 460.496Z" fill="#FBCCCC"/>
<path d="M376.755 438.935C377.028 438.98 377.286 438.795 377.332 438.523C377.378 438.251 377.195 437.994 376.923 437.949L376.755 438.935ZM376.325 441.049C377.794 441.152 379.074 440.044 379.183 438.575C379.293 437.106 378.191 435.833 376.722 435.731C375.253 435.629 373.973 436.737 373.863 438.205C373.753 439.674 374.855 440.947 376.325 441.049ZM376.923 437.949L376.607 437.897L376.44 438.883L376.755 438.935L376.923 437.949Z" fill="#FBCCCC"/>
<path d="M370.357 432.725C370.902 432.815 371.418 432.446 371.51 431.901C371.603 431.356 371.236 430.842 370.691 430.752L370.357 432.725ZM369.811 437.006C372.75 437.21 375.309 434.994 375.529 432.057C375.748 429.12 373.544 426.573 370.605 426.368C367.667 426.164 365.107 428.38 364.888 431.317C364.668 434.254 366.873 436.801 369.811 437.006ZM370.691 430.752L370.375 430.701L370.041 432.673L370.357 432.725L370.691 430.752Z" fill="#FBCCCC"/>
<path d="M100.706 466.85C101.25 466.94 101.767 466.571 101.859 466.026C101.952 465.481 101.585 464.967 101.04 464.877L100.706 466.85ZM100.16 471.131C103.099 471.335 105.658 469.119 105.878 466.182C106.097 463.245 103.893 460.698 100.954 460.493C98.0158 460.289 95.456 462.505 95.2367 465.442C95.0174 468.379 97.2217 470.926 100.16 471.131ZM101.04 464.877L100.724 464.826L100.39 466.798L100.706 466.85L101.04 464.877Z" fill="#FBCCCC"/>
<path d="M199.22 392.507C199.765 392.596 200.281 392.227 200.373 391.682C200.466 391.137 200.099 390.623 199.554 390.534L199.22 392.507ZM198.674 396.787C201.613 396.991 204.173 394.775 204.392 391.838C204.611 388.901 202.407 386.354 199.468 386.15C196.53 385.945 193.97 388.161 193.751 391.098C193.532 394.036 195.736 396.583 198.674 396.787ZM199.554 390.534L199.239 390.482L198.904 392.455L199.22 392.507L199.554 390.534Z" fill="#FBCCCC"/>
<path d="M156.111 428.837C157.2 429.016 158.233 428.278 158.418 427.188C158.602 426.099 157.869 425.07 156.779 424.891L156.111 428.837ZM155.335 437.449C161.212 437.858 166.332 433.426 166.77 427.552C167.209 421.677 162.8 416.583 156.923 416.175C151.046 415.766 145.927 420.198 145.488 426.072C145.05 431.947 149.458 437.041 155.335 437.449ZM156.779 424.891L156.464 424.839L155.795 428.785L156.111 428.837L156.779 424.891Z" fill="#FBCCCC"/>
<path d="M146.889 435.279C147.161 435.324 147.419 435.139 147.466 434.867C147.512 434.594 147.328 434.337 147.056 434.293L146.889 435.279ZM146.458 437.393C147.927 437.495 149.207 436.387 149.317 434.919C149.427 433.45 148.325 432.177 146.855 432.075C145.386 431.972 144.106 433.08 143.997 434.549C143.887 436.018 144.989 437.291 146.458 437.393ZM147.056 434.293L146.74 434.241L146.573 435.227L146.889 435.279L147.056 434.293Z" fill="#FBCCCC"/>
<path d="M153.204 392.013C153.476 392.058 153.734 391.874 153.781 391.601C153.827 391.329 153.643 391.072 153.371 391.027L153.204 392.013ZM152.773 394.128C154.242 394.23 155.522 393.122 155.632 391.653C155.742 390.185 154.639 388.911 153.17 388.809C151.701 388.707 150.421 389.815 150.311 391.283C150.202 392.752 151.304 394.025 152.773 394.128ZM153.371 391.027L153.055 390.975L152.888 391.961L153.204 392.013L153.371 391.027Z" fill="#FBCCCC"/>
<path d="M148.825 391.157C148.961 391.18 149.091 391.087 149.114 390.951C149.137 390.815 149.045 390.687 148.909 390.664L148.825 391.157ZM148.452 392.189C149.187 392.24 149.827 391.686 149.881 390.951C149.936 390.217 149.385 389.58 148.651 389.529C147.916 389.478 147.276 390.032 147.221 390.766C147.166 391.501 147.717 392.137 148.452 392.189ZM148.909 390.664L148.593 390.612L148.509 391.105L148.825 391.157L148.909 390.664Z" fill="#FBCCCC"/>
<path d="M105.841 460.873C106.114 460.917 106.372 460.733 106.418 460.461C106.464 460.188 106.281 459.931 106.009 459.886L105.841 460.873ZM105.411 462.987C106.88 463.089 108.16 461.981 108.269 460.513C108.379 459.044 107.277 457.771 105.808 457.668C104.338 457.566 103.059 458.674 102.949 460.143C102.839 461.611 103.941 462.885 105.411 462.987ZM106.009 459.886L105.693 459.834L105.526 460.821L105.841 460.873L106.009 459.886Z" fill="#FBCCCC"/>
<path d="M169.623 469.404C169.895 469.449 170.154 469.264 170.2 468.992C170.246 468.719 170.063 468.462 169.79 468.418L169.623 469.404ZM169.192 471.518C170.662 471.62 171.941 470.512 172.051 469.044C172.161 467.575 171.059 466.302 169.589 466.2C168.12 466.097 166.84 467.205 166.731 468.674C166.621 470.143 167.723 471.416 169.192 471.518ZM169.79 468.418L169.474 468.366L169.307 469.352L169.623 469.404L169.79 468.418Z" fill="#FBCCCC"/>
<path d="M264.839 396.63L261.591 396.023L257.776 395.773L254.813 396.512L251.181 397.6L248.326 399.877M257.776 395.773L254.813 396.512L251.181 397.6" stroke="#FBCCCC" stroke-width="8" stroke-linecap="round"/>
<path d="M236.328 395.126L233.802 392.383L230.644 390.745L226.99 390.43L223.201 390.745L219.909 392.383" stroke="#E27B7B" stroke-width="8" stroke-linecap="round"/>
<path d="M215.563 430.862L215.521 427.192L215.521 423.765L211.699 420.414L208.632 419.246L205.034 418.398" stroke="#E27B7B" stroke-width="8" stroke-linecap="round"/>
<path d="M204.753 465.812L204.753 460.023L201.595 454.538L194.964 449.285L190.544 449.285L185.942 449.6L181.071 450.577" stroke="#E27B7B" stroke-width="8" stroke-linecap="round"/>
<path d="M249.051 422.833L245.804 422.226L241.988 421.976L239.025 422.715L235.393 423.803L232.539 426.08M241.988 421.976L239.025 422.715L235.393 423.803" stroke="#FBCCCC" stroke-width="8" stroke-linecap="round"/>
<path d="M252.747 459.414L248.642 453.793L241.064 451.187L235.065 452.406L229.078 454.881L223.698 459.414" stroke="#FBCCCC" stroke-width="8" stroke-linecap="round"/>
<path d="M125.419 469.515L122.115 470.548L118.063 472.057L116.116 473.668" stroke="#03293D" stroke-width="9" stroke-linecap="round"/>
<path d="M336.429 435.697L340.064 435.132L344.107 433.889L347.228 432.627L351.035 428.879L354.824 424.613" stroke="#03293D" stroke-width="9" stroke-linecap="round"/>
<path d="M386.568 486.15L387.989 482.845L388.834 478.832L389.124 475.569L386.275 471.265L382.522 467.574" stroke="#03293D" stroke-width="9" stroke-linecap="round"/>
<path d="M381.031 466.965L387.346 461.48L391.135 454.168L392.398 444.113L391.135 434.363L383.955 425.527" stroke="#03293D" stroke-width="9" stroke-linecap="round"/>
<path d="M349.412 462.74L351.351 455.691L351.844 447.769L349.412 440.456L344.72 435.277L335.879 435.277" stroke="#03293D" stroke-width="9" stroke-linecap="round"/>
<path d="M277.995 447.338L279.934 440.288L279.934 433.753L275.254 426.136L270.202 421.261L259.782 418.824" stroke="#03293D" stroke-width="9" stroke-linecap="round"/>
<path d="M325.459 392.316L318.828 388.129L311.813 386.391L302.637 386.409L294.515 388.129L283.148 393.23" stroke="#03293D" stroke-width="9" stroke-linecap="round"/>
<path d="M350.404 383.48L346.614 377.387L339.983 373.121L334.615 371.598L327.353 370.684L318.829 372.196L314.723 374.949" stroke="#03293D" stroke-width="9" stroke-linecap="round"/>
<path d="M197.912 407.936L190.547 407.973L183.363 411.301L179.267 414.98L174.748 420.541L171.748 428.388L172.109 433.2" stroke="#03293D" stroke-width="9" stroke-linecap="round"/>
<path d="M213.006 391.465L210.131 384.922L204.18 379.808L199.083 377.579L192.024 375.7L183.364 376.053L178.901 378.229" stroke="#03293D" stroke-width="9" stroke-linecap="round"/>
<path d="M267.676 499.87L269.886 496.824L274.307 492.558L280.306 487.988L285.042 487.988L291.989 488.902" stroke="#03293D" stroke-width="9" stroke-linecap="round"/>
<path d="M315.417 445.96L313.304 449.07L309.021 453.464L303.17 458.21L298.436 458.349L291.463 457.641" stroke="#E27B7B" stroke-width="9" stroke-linecap="round"/>
<path d="M322.169 473.264L321.561 474.589L320.533 476.591L319.263 478.873L318.629 479.392L317.792 479.828" stroke="#E27B7B" stroke-width="9" stroke-linecap="round"/>
<path d="M291.625 505.005L297.309 503.289L305.203 502.355L311.75 505.005L315.938 507.859L317.832 512.734" stroke="#E27B7B" stroke-width="9" stroke-linecap="round"/>
<path d="M331.074 415.125L334.007 412.834L338.226 410.405L344.356 409.141" stroke="#E27B7B" stroke-width="9" stroke-linecap="round"/>
<path d="M412.506 456.105L412.281 459.74L411.293 464.384L408.126 469.603" stroke="#B95F5F" stroke-width="9" stroke-linecap="round"/>
<path d="M207.684 493.473L212.736 467.879L228.208 448.684L246.837 446.856L256.625 456.301" stroke="#03293D" stroke-width="11" stroke-linecap="round"/>
<path d="M207.684 493.473L212.736 467.88L225.682 424.614L236.733 417.606L248.416 417.606" stroke="#03293D" stroke-width="11" stroke-linecap="round"/>
<path d="M208.315 495.301L213.367 469.708L228.208 411.512L234.839 399.325L249.047 392.622L263.572 390.794" stroke="#03293D" stroke-width="12" stroke-linecap="round"/>
<path d="M208.314 495.301L213.366 469.707L228.208 411.512L247.784 388.051L249.678 377.692L261.677 365.809L270.518 362.762L278.412 362.762" stroke="#03293D" stroke-width="12" stroke-linecap="round"/>
<path d="M207.684 493.473L210.526 467.575L207.684 455.083L197.264 444.114L183.055 445.637" stroke="#03293D" stroke-width="11" stroke-linecap="round"/>
<path d="M207.684 493.472L210.526 467.574L219.367 425.832L214.946 418.214L206.421 415.472" stroke="#03293D" stroke-width="9" stroke-linecap="round"/>
<path d="M207.685 493.472L210.527 467.574L239.576 392.621L230.418 386.831L220.946 388.355" stroke="#03293D" stroke-width="9" stroke-linecap="round"/>
<path d="M207.686 493.474L210.528 467.575L216.842 443.505L227.577 416.083L251.573 368.856L247.153 363.372L241.154 365.2" stroke="#03293D" stroke-width="9" stroke-linecap="round"/>
<path d="M160.953 380.13L166.005 363.372L194.738 354.841L223.472 366.419" stroke="#03293D" stroke-width="12" stroke-linecap="round"/>
<path d="M204.091 354.209L226.313 341.434L256.626 342.348L282.201 364.59" stroke="#03293D" stroke-width="12" stroke-linecap="round"/>
<path d="M204.091 354.209L226.313 341.434L256.626 342.348L282.201 364.59" stroke="#03293D" stroke-width="12" stroke-linecap="round"/>
<path d="M204.091 354.209L226.313 341.434L256.626 342.348L282.201 364.59" stroke="#03293D" stroke-width="12" stroke-linecap="round"/>
<path d="M279.043 359.018L300.83 347.223L333.668 352.402L350.403 373.731" stroke="#03293D" stroke-width="12" stroke-linecap="round"/>
<path d="M349.14 369.068L365.559 367.636L381.347 377.995L384.504 395.363" stroke="#03293D" stroke-width="12" stroke-linecap="round"/>
<path d="M391.451 437.826L407.87 436.394L423.657 446.753L426.815 464.12" stroke="#03293D" stroke-width="12" stroke-linecap="round"/>
<path d="M361.455 403.59L374.4 396.887L384.82 396.887L401.239 400.238L413.553 417.605L409.133 436.496" stroke="#03293D" stroke-width="12" stroke-linecap="round"/>
<path d="M410.33 713.803C408.506 713.026 407.95 711.198 408.323 710.183L408.464 709.797C415.401 702.451 405.982 691.373 397.579 697.106L396.204 698.044L395.464 698.167C393.621 698.473 392.359 697.369 392.143 696.299C391.993 695.557 391.833 694.698 391.635 693.597C391.496 692.829 391.512 692.289 391.596 691.922C392.196 689.294 393.355 687.763 396.058 686.044C399.234 684.025 403.026 683.041 406.866 683.268C410.706 683.495 414.355 684.919 417.263 687.307C417.443 687.454 417.621 687.601 417.8 687.746C419.519 689.154 421.164 690.502 422.562 691.969C424.12 693.602 424.943 694.959 425.205 696.079C425.932 699.19 425.059 703.391 423.299 707.176C422.086 709.784 419.35 711.665 415.177 713.907C413.616 714.493 412.881 714.53 412.505 714.506C412.069 714.478 411.615 714.351 410.33 713.803ZM396.285 698.031L396.284 698.031L396.285 698.031Z" fill="#6893EF" stroke="#03293D" stroke-width="9"/>
<path d="M409.135 688.606C411.122 688.913 413.351 686.998 411.945 685.573C410.377 684.228 407.644 683.997 405.509 684.059C403.454 684.119 401.445 684.653 399.537 685.433C398.003 686.06 396.232 686.887 395.21 687.706C393.182 689.333 392.369 693.03 392.336 694.614C392.334 694.681 392.351 694.749 392.38 694.809C392.91 695.907 393.238 696.416 393.452 696.651C393.616 696.829 394.263 696.515 394.263 696.272C394.263 696.249 394.267 696.226 394.275 696.204C396.644 689.445 398.926 687.397 405.28 688.011L409.135 688.606Z" fill="#3F6CCD"/>
<path d="M403.46 660.259L403.136 659.844L402.725 659.515C387.048 646.959 379.104 637.296 376.401 630.317C375.1 626.957 375.135 624.536 375.749 622.752C376.369 620.954 377.797 619.163 380.494 617.494C383.28 615.769 386.841 615.421 391.257 616.808C395.734 618.215 400.787 621.339 405.906 626.045C416.057 635.378 425.683 650.214 430.859 667.018C432.577 680.808 433.025 688.613 431.583 694.339C430.389 699.082 427.79 702.739 422.048 707.432C422.012 707.346 421.975 707.253 421.936 707.151C421.346 705.592 420.957 703.5 420.389 700.443C420.206 699.457 420.004 698.371 419.771 697.17C417.954 687.813 414.656 674.611 403.46 660.259Z" fill="#6893EF" stroke="#03293D" stroke-width="9"/>
<path d="M413.49 668.207C414.437 671.559 421.134 679.138 418.817 682.832C415.7 682.832 414.081 675.215 408.753 666.684C401.334 661.214 368.337 628.902 377.494 621.285C376.144 625.617 412.543 664.855 413.49 668.207Z" fill="#3F6CCD"/>
<path d="M417.993 677.769L426.751 701.113C424.398 706.866 421.045 709.555 416.331 711.777L406.543 684.66C415.384 685.574 415.151 685.081 417.993 677.769Z" fill="#6893EF"/>
<path d="M417.91 677.346C418.626 678.603 419.346 678.761 419.489 681.003C417.053 686.878 412.298 688.261 407.806 688.315L406.57 684.639C414.914 684.539 414.284 684.772 417.91 677.346Z" fill="#3F6CCD"/>
<ellipse cx="2.50834" cy="6.78114" rx="2.50834" ry="6.78114" transform="matrix(0.835801 -0.549033 0.576455 0.817129 397.952 629.086)" fill="#B5CAF5"/>
<path d="M171.167 640.703C183.798 666.297 207.163 660.203 216.004 643.75" stroke="#03293D" stroke-width="17" stroke-linecap="round"/>
<path d="M126.921 505.014C116.717 502.225 104.099 508.11 100.982 513.26" stroke="#03293D" stroke-width="17" stroke-linecap="round"/>
<path d="M300.137 541.203C294.314 532.65 280.783 529.13 274.933 531.055" stroke="#03293D" stroke-width="17" stroke-linecap="round"/>
<defs>
<linearGradient id="paint0_linear_988_5881" x1="384.968" y1="485.66" x2="434.453" y2="566.778" gradientUnits="userSpaceOnUse">
<stop stop-color="#BFD2FC"/>
<stop offset="0.76" stop-color="#386BD7"/>
<stop offset="1" stop-color="#386BD7"/>
</linearGradient>
</defs>
</svg>
