<svg width="443" height="428" viewBox="0 0 443 428" fill="none" xmlns="http://www.w3.org/2000/svg">
<g clip-path="url(#clip0_548_4742)">
<rect width="443" height="428" rx="50" fill="#F1F1F1"/>
<path d="M49.8437 311.313L54.1947 330.762L72.3987 331.79L56.8838 342.782L61.2349 362.23L47.2952 349.575L31.7803 360.567L38.6799 341.754L24.7401 329.098L42.9441 330.127L49.8437 311.313Z" fill="#3F6CCD"/>
<path d="M37.1238 313.132L49.8937 329.133L66.902 323.07L57.7859 339.022L70.5558 355.023L52.1519 348.881L43.0358 364.832L40.7776 345.085L22.3737 338.942L39.382 332.88L37.1238 313.132Z" fill="#3F6CCD"/>
<path d="M26.9916 319.12L45.5467 329.238L58.6184 317.526L57.0144 335.491L75.5696 345.609L56.0232 346.594L54.4192 364.559L43.9428 347.203L24.3964 348.188L37.468 336.476L26.9916 319.12Z" fill="#3F6CCD"/>
<path d="M46.1751 341.218L48.8439 326.616L52.318 327.296L48.3096 341.635L46.1751 341.218ZM45.8406 347.415C45.4481 347.339 45.1074 347.17 44.8186 346.91C44.5298 346.65 44.3254 346.335 44.2054 345.965C44.0854 345.595 44.0714 345.211 44.1633 344.811C44.3024 344.207 44.6323 343.732 45.153 343.385C45.6835 343.041 46.2481 342.928 46.8467 343.045C47.465 343.166 47.9358 343.482 48.2591 343.993C48.5922 344.507 48.6892 345.065 48.5501 345.67C48.411 346.274 48.0762 346.748 47.5457 347.092C47.0272 347.429 46.4589 347.536 45.8406 347.415Z" fill="white"/>
<circle cx="48" cy="136" r="18" fill="#80A878"/>
<circle cx="48" cy="198" r="18" fill="#D6C07D"/>
<circle cx="48" cy="275" r="18" fill="#E27B7B"/>
<path d="M38.7747 63.085C38.7747 64.445 39.0597 65.68 39.6297 66.79C40.1997 67.89 40.9847 68.765 41.9847 69.415C42.9847 70.055 44.1347 70.375 45.4347 70.375C46.7547 70.375 47.9097 70.055 48.8997 69.415C49.8997 68.765 50.6797 67.89 51.2397 66.79C51.8097 65.68 52.0947 64.445 52.0947 63.085C52.0947 61.725 51.8097 60.495 51.2397 59.395C50.6797 58.295 49.8997 57.425 48.8997 56.785C47.9097 56.145 46.7547 55.825 45.4347 55.825C44.1347 55.825 42.9847 56.145 41.9847 56.785C40.9847 57.425 40.1997 58.295 39.6297 59.395C39.0597 60.495 38.7747 61.725 38.7747 63.085ZM35.4897 63.085C35.4897 61.645 35.7397 60.305 36.2397 59.065C36.7497 57.815 37.4497 56.725 38.3397 55.795C39.2397 54.865 40.2947 54.14 41.5047 53.62C42.7147 53.1 44.0247 52.84 45.4347 52.84C46.8647 52.84 48.1797 53.1 49.3797 53.62C50.5897 54.14 51.6447 54.865 52.5447 55.795C53.4447 56.725 54.1397 57.815 54.6297 59.065C55.1197 60.305 55.3647 61.645 55.3647 63.085C55.3647 64.535 55.1197 65.885 54.6297 67.135C54.1497 68.375 53.4647 69.465 52.5747 70.405C51.6847 71.335 50.6347 72.06 49.4247 72.58C48.2147 73.1 46.8847 73.36 45.4347 73.36C43.9747 73.36 42.6347 73.1 41.4147 72.58C40.2047 72.06 39.1547 71.335 38.2647 70.405C37.3847 69.465 36.6997 68.375 36.2097 67.135C35.7297 65.885 35.4897 64.535 35.4897 63.085ZM61.2302 73H58.0352V60.685H61.2302V62.74H61.1552C61.2252 62.49 61.4152 62.18 61.7252 61.81C62.0452 61.43 62.4852 61.09 63.0452 60.79C63.6052 60.48 64.2802 60.325 65.0702 60.325C65.6402 60.325 66.1502 60.405 66.6002 60.565C67.0502 60.725 67.3702 60.885 67.5602 61.045L66.2702 63.685C66.1402 63.525 65.8952 63.37 65.5352 63.22C65.1852 63.06 64.7502 62.98 64.2302 62.98C63.5802 62.98 63.0302 63.17 62.5802 63.55C62.1402 63.93 61.8052 64.385 61.5752 64.915C61.3452 65.445 61.2302 65.94 61.2302 66.4V73ZM69.3529 73V60.685H72.5479V73H69.3529ZM70.9879 56.995C70.4479 56.995 69.9829 56.8 69.5929 56.41C69.2129 56.02 69.0229 55.555 69.0229 55.015C69.0229 54.475 69.2129 54.01 69.5929 53.62C69.9829 53.22 70.4479 53.02 70.9879 53.02C71.3479 53.02 71.6779 53.115 71.9779 53.305C72.2879 53.485 72.5329 53.725 72.7129 54.025C72.9029 54.315 72.9979 54.645 72.9979 55.015C72.9979 55.555 72.8029 56.02 72.4129 56.41C72.0229 56.8 71.5479 56.995 70.9879 56.995ZM78.4957 67.6C78.5157 68.25 78.6707 68.835 78.9607 69.355C79.2507 69.875 79.6757 70.285 80.2357 70.585C80.8057 70.875 81.5007 71.02 82.3207 71.02C83.0307 71.02 83.6407 70.925 84.1507 70.735C84.6707 70.535 85.1007 70.3 85.4407 70.03C85.7807 69.75 86.0307 69.49 86.1907 69.25L87.6157 71.185C87.3057 71.605 86.9157 71.98 86.4457 72.31C85.9757 72.64 85.3907 72.895 84.6907 73.075C84.0007 73.265 83.1457 73.36 82.1257 73.36C80.7857 73.36 79.6207 73.085 78.6307 72.535C77.6407 71.985 76.8707 71.21 76.3207 70.21C75.7807 69.21 75.5107 68.04 75.5107 66.7C75.5107 65.5 75.7607 64.42 76.2607 63.46C76.7607 62.49 77.4857 61.725 78.4357 61.165C79.3957 60.605 80.5457 60.325 81.8857 60.325C83.1357 60.325 84.2207 60.575 85.1407 61.075C86.0607 61.575 86.7707 62.295 87.2707 63.235C87.7807 64.165 88.0357 65.29 88.0357 66.61C88.0357 66.69 88.0307 66.855 88.0207 67.105C88.0207 67.355 88.0107 67.52 87.9907 67.6H78.4957ZM85.0357 65.26C85.0257 64.94 84.9157 64.575 84.7057 64.165C84.5057 63.755 84.1807 63.4 83.7307 63.1C83.2807 62.79 82.6807 62.635 81.9307 62.635C81.1607 62.635 80.5357 62.785 80.0557 63.085C79.5757 63.375 79.2207 63.725 78.9907 64.135C78.7607 64.535 78.6257 64.91 78.5857 65.26H85.0357ZM98.1283 60.325C98.9583 60.325 99.7633 60.495 100.543 60.835C101.323 61.175 101.963 61.72 102.463 62.47C102.973 63.21 103.228 64.175 103.228 65.365V73H100.003V65.95C100.003 64.84 99.7383 64.025 99.2083 63.505C98.6883 62.975 98.0133 62.71 97.1833 62.71C96.6333 62.71 96.1083 62.865 95.6083 63.175C95.1083 63.485 94.6983 63.905 94.3783 64.435C94.0683 64.965 93.9133 65.575 93.9133 66.265V73H90.7033V60.685H93.9133V62.755C94.0033 62.415 94.2433 62.06 94.6333 61.69C95.0333 61.31 95.5383 60.99 96.1483 60.73C96.7583 60.46 97.4183 60.325 98.1283 60.325ZM105.387 60.685H107.697V55.63H110.877V60.685H113.922V63.385H110.877V68.65C110.877 69.31 110.987 69.805 111.207 70.135C111.437 70.465 111.762 70.63 112.182 70.63C112.532 70.63 112.807 70.565 113.007 70.435C113.217 70.305 113.342 70.215 113.382 70.165L114.567 72.49C114.507 72.55 114.332 72.65 114.042 72.79C113.752 72.93 113.377 73.06 112.917 73.18C112.457 73.3 111.932 73.36 111.342 73.36C110.302 73.36 109.432 73.05 108.732 72.43C108.042 71.81 107.697 70.84 107.697 69.52V63.385H105.387V60.685ZM126.442 73V70.72C126.362 70.96 126.132 71.29 125.752 71.71C125.382 72.13 124.872 72.51 124.222 72.85C123.582 73.19 122.822 73.36 121.942 73.36C120.792 73.36 119.757 73.085 118.837 72.535C117.917 71.985 117.192 71.22 116.662 70.24C116.132 69.26 115.867 68.13 115.867 66.85C115.867 65.57 116.132 64.44 116.662 63.46C117.192 62.48 117.917 61.715 118.837 61.165C119.757 60.605 120.792 60.325 121.942 60.325C122.802 60.325 123.547 60.475 124.177 60.775C124.807 61.075 125.312 61.42 125.692 61.81C126.082 62.2 126.322 62.54 126.412 62.83V60.685H129.592V73H126.442ZM119.032 66.85C119.032 67.64 119.207 68.33 119.557 68.92C119.907 69.51 120.362 69.965 120.922 70.285C121.492 70.605 122.102 70.765 122.752 70.765C123.452 70.765 124.072 70.6 124.612 70.27C125.162 69.94 125.592 69.485 125.902 68.905C126.222 68.315 126.382 67.63 126.382 66.85C126.382 66.07 126.222 65.39 125.902 64.81C125.592 64.22 125.162 63.76 124.612 63.43C124.072 63.09 123.452 62.92 122.752 62.92C122.102 62.92 121.492 63.085 120.922 63.415C120.362 63.735 119.907 64.19 119.557 64.78C119.207 65.37 119.032 66.06 119.032 66.85ZM138.967 70.765C139.677 70.765 140.252 70.65 140.692 70.42C141.142 70.18 141.432 70.005 141.562 69.895L143.077 72.145C142.957 72.245 142.707 72.395 142.327 72.595C141.947 72.785 141.462 72.96 140.872 73.12C140.292 73.28 139.632 73.36 138.892 73.36C137.672 73.36 136.562 73.105 135.562 72.595C134.572 72.075 133.777 71.33 133.177 70.36C132.587 69.38 132.292 68.205 132.292 66.835C132.292 65.455 132.587 64.28 133.177 63.31C133.777 62.34 134.572 61.6 135.562 61.09C136.562 60.58 137.672 60.325 138.892 60.325C139.622 60.325 140.272 60.41 140.842 60.58C141.422 60.74 141.902 60.925 142.282 61.135C142.662 61.345 142.917 61.51 143.047 61.63L141.502 63.88C141.432 63.81 141.287 63.7 141.067 63.55C140.857 63.39 140.577 63.245 140.227 63.115C139.877 62.985 139.457 62.92 138.967 62.92C138.367 62.92 137.792 63.08 137.242 63.4C136.692 63.72 136.242 64.175 135.892 64.765C135.542 65.345 135.367 66.035 135.367 66.835C135.367 67.635 135.542 68.33 135.892 68.92C136.242 69.51 136.692 69.965 137.242 70.285C137.792 70.605 138.367 70.765 138.967 70.765ZM137.512 79.42C136.712 79.42 136.012 79.295 135.412 79.045C134.822 78.805 134.397 78.57 134.137 78.34L135.322 76.975C135.512 77.155 135.787 77.335 136.147 77.515C136.507 77.705 136.887 77.8 137.287 77.8C137.727 77.8 138.092 77.7 138.382 77.5C138.672 77.3 138.817 77.035 138.817 76.705C138.817 76.335 138.682 76.06 138.412 75.88C138.142 75.71 137.802 75.625 137.392 75.625C137.082 75.625 136.807 75.645 136.567 75.685C136.337 75.735 136.172 75.785 136.072 75.835L135.697 75.595L136.852 72.37L138.142 72.865L137.497 74.605C138.007 74.525 138.522 74.545 139.042 74.665C139.562 74.785 139.997 75.005 140.347 75.325C140.707 75.655 140.887 76.095 140.887 76.645C140.887 77.235 140.722 77.735 140.392 78.145C140.072 78.565 139.652 78.88 139.132 79.09C138.622 79.31 138.082 79.42 137.512 79.42ZM150.974 73.36C149.684 73.36 148.534 73.08 147.524 72.52C146.524 71.95 145.739 71.18 145.169 70.21C144.599 69.23 144.314 68.12 144.314 66.88C144.314 65.64 144.599 64.525 145.169 63.535C145.739 62.545 146.524 61.765 147.524 61.195C148.534 60.615 149.684 60.325 150.974 60.325C152.264 60.325 153.404 60.615 154.394 61.195C155.384 61.765 156.159 62.545 156.719 63.535C157.289 64.525 157.574 65.64 157.574 66.88C157.574 68.12 157.289 69.23 156.719 70.21C156.159 71.18 155.384 71.95 154.394 72.52C153.404 73.08 152.264 73.36 150.974 73.36ZM150.974 70.66C151.694 70.66 152.319 70.495 152.849 70.165C153.379 69.835 153.789 69.385 154.079 68.815C154.369 68.245 154.514 67.595 154.514 66.865C154.514 66.135 154.369 65.485 154.079 64.915C153.789 64.335 153.379 63.875 152.849 63.535C152.319 63.195 151.694 63.025 150.974 63.025C150.254 63.025 149.624 63.195 149.084 63.535C148.554 63.875 148.139 64.335 147.839 64.915C147.549 65.485 147.404 66.135 147.404 66.865C147.404 67.595 147.549 68.245 147.839 68.815C148.139 69.385 148.554 69.835 149.084 70.165C149.624 70.495 150.254 70.66 150.974 70.66ZM145.694 57.88C145.784 57.39 145.954 56.88 146.204 56.35C146.464 55.82 146.799 55.375 147.209 55.015C147.619 54.645 148.109 54.46 148.679 54.46C149.289 54.46 149.814 54.555 150.254 54.745C150.694 54.925 151.104 55.11 151.484 55.3C151.874 55.49 152.294 55.585 152.744 55.585C153.074 55.585 153.339 55.455 153.539 55.195C153.739 54.935 153.874 54.69 153.944 54.46H155.999C155.889 54.95 155.704 55.46 155.444 55.99C155.194 56.52 154.859 56.97 154.439 57.34C154.029 57.7 153.544 57.88 152.984 57.88C152.364 57.88 151.829 57.79 151.379 57.61C150.939 57.42 150.529 57.235 150.149 57.055C149.779 56.865 149.384 56.77 148.964 56.77C148.654 56.77 148.389 56.895 148.169 57.145C147.959 57.395 147.819 57.64 147.749 57.88H145.694ZM162.314 67.6C162.334 68.25 162.489 68.835 162.779 69.355C163.069 69.875 163.494 70.285 164.054 70.585C164.624 70.875 165.319 71.02 166.139 71.02C166.849 71.02 167.459 70.925 167.969 70.735C168.489 70.535 168.919 70.3 169.259 70.03C169.599 69.75 169.849 69.49 170.009 69.25L171.434 71.185C171.124 71.605 170.734 71.98 170.264 72.31C169.794 72.64 169.209 72.895 168.509 73.075C167.819 73.265 166.964 73.36 165.944 73.36C164.604 73.36 163.439 73.085 162.449 72.535C161.459 71.985 160.689 71.21 160.139 70.21C159.599 69.21 159.329 68.04 159.329 66.7C159.329 65.5 159.579 64.42 160.079 63.46C160.579 62.49 161.304 61.725 162.254 61.165C163.214 60.605 164.364 60.325 165.704 60.325C166.954 60.325 168.039 60.575 168.959 61.075C169.879 61.575 170.589 62.295 171.089 63.235C171.599 64.165 171.854 65.29 171.854 66.61C171.854 66.69 171.849 66.855 171.839 67.105C171.839 67.355 171.829 67.52 171.809 67.6H162.314ZM168.854 65.26C168.844 64.94 168.734 64.575 168.524 64.165C168.324 63.755 167.999 63.4 167.549 63.1C167.099 62.79 166.499 62.635 165.749 62.635C164.979 62.635 164.354 62.785 163.874 63.085C163.394 63.375 163.039 63.725 162.809 64.135C162.579 64.535 162.444 64.91 162.404 65.26H168.854ZM179.472 60.325C180.162 60.325 180.802 60.39 181.392 60.52C181.982 60.65 182.487 60.805 182.907 60.985C183.327 61.165 183.617 61.315 183.777 61.435L182.607 63.415C182.407 63.245 182.047 63.05 181.527 62.83C181.017 62.61 180.442 62.5 179.802 62.5C179.162 62.5 178.622 62.615 178.182 62.845C177.742 63.075 177.522 63.42 177.522 63.88C177.522 64.33 177.752 64.69 178.212 64.96C178.682 65.23 179.317 65.455 180.117 65.635C180.777 65.785 181.407 65.995 182.007 66.265C182.607 66.525 183.097 66.9 183.477 67.39C183.867 67.87 184.062 68.515 184.062 69.325C184.062 70.095 183.897 70.74 183.567 71.26C183.247 71.77 182.817 72.18 182.277 72.49C181.737 72.8 181.137 73.02 180.477 73.15C179.827 73.29 179.172 73.36 178.512 73.36C177.702 73.36 176.977 73.28 176.337 73.12C175.707 72.96 175.182 72.775 174.762 72.565C174.342 72.345 174.042 72.16 173.862 72.01L175.032 69.79C175.292 70.04 175.717 70.305 176.307 70.585C176.897 70.855 177.557 70.99 178.287 70.99C179.067 70.99 179.692 70.84 180.162 70.54C180.632 70.24 180.867 69.84 180.867 69.34C180.867 68.97 180.752 68.67 180.522 68.44C180.302 68.21 179.997 68.025 179.607 67.885C179.217 67.745 178.782 67.62 178.302 67.51C177.852 67.4 177.397 67.26 176.937 67.09C176.487 66.91 176.072 66.68 175.692 66.4C175.312 66.11 175.007 65.75 174.777 65.32C174.547 64.89 174.432 64.385 174.432 63.805C174.432 63.065 174.667 62.435 175.137 61.915C175.607 61.395 176.227 61 176.997 60.73C177.767 60.46 178.592 60.325 179.472 60.325ZM189.451 73.36C188.841 73.36 188.316 73.145 187.876 72.715C187.446 72.275 187.231 71.745 187.231 71.125C187.231 70.505 187.446 69.975 187.876 69.535C188.316 69.095 188.841 68.875 189.451 68.875C190.081 68.875 190.611 69.095 191.041 69.535C191.481 69.975 191.701 70.505 191.701 71.125C191.701 71.745 191.481 72.275 191.041 72.715C190.611 73.145 190.081 73.36 189.451 73.36ZM189.451 64.09C188.841 64.09 188.316 63.875 187.876 63.445C187.446 63.005 187.231 62.475 187.231 61.855C187.231 61.235 187.446 60.705 187.876 60.265C188.316 59.825 188.841 59.605 189.451 59.605C190.081 59.605 190.611 59.825 191.041 60.265C191.481 60.705 191.701 61.235 191.701 61.855C191.701 62.475 191.481 63.005 191.041 63.445C190.611 63.875 190.081 64.09 189.451 64.09Z" fill="black"/>
<path d="M85.65 121.2H88.32L95.64 141H92.895L91.185 136.23H82.785L81.045 141H78.3L85.65 121.2ZM83.61 133.92H90.375L87.015 124.35H86.97L83.61 133.92ZM96.6305 128.685H99.0455V123.63H101.64V128.685H104.805V130.92H101.64V137.01C101.64 137.73 101.765 138.26 102.015 138.6C102.275 138.94 102.62 139.11 103.05 139.11C103.43 139.11 103.725 139.04 103.935 138.9C104.145 138.76 104.27 138.665 104.31 138.615L105.345 140.535C105.285 140.585 105.125 140.68 104.865 140.82C104.605 140.96 104.27 141.085 103.86 141.195C103.45 141.305 102.97 141.36 102.42 141.36C101.46 141.36 100.655 141.07 100.005 140.49C99.3655 139.9 99.0455 138.97 99.0455 137.7V130.92H96.6305V128.685ZM107.897 141V128.685H110.507V141H107.897ZM109.232 124.47C108.762 124.47 108.357 124.305 108.017 123.975C107.687 123.635 107.522 123.23 107.522 122.76C107.522 122.29 107.687 121.885 108.017 121.545C108.357 121.205 108.762 121.035 109.232 121.035C109.542 121.035 109.827 121.115 110.087 121.275C110.357 121.435 110.572 121.645 110.732 121.905C110.892 122.155 110.972 122.44 110.972 122.76C110.972 123.23 110.802 123.635 110.462 123.975C110.122 124.305 109.712 124.47 109.232 124.47ZM113.267 128.685H116.072L120.092 138.585L124.112 128.685H126.902L121.637 141H118.562L113.267 128.685ZM129.635 141V128.685H132.245V141H129.635ZM130.97 124.47C130.5 124.47 130.095 124.305 129.755 123.975C129.425 123.635 129.26 123.23 129.26 122.76C129.26 122.29 129.425 121.885 129.755 121.545C130.095 121.205 130.5 121.035 130.97 121.035C131.28 121.035 131.565 121.115 131.825 121.275C132.095 121.435 132.31 121.645 132.47 121.905C132.63 122.155 132.71 122.44 132.71 122.76C132.71 123.23 132.54 123.635 132.2 123.975C131.86 124.305 131.45 124.47 130.97 124.47ZM141.665 141.36C140.535 141.36 139.52 141.09 138.62 140.55C137.73 140.01 137.025 139.255 136.505 138.285C135.995 137.305 135.74 136.16 135.74 134.85C135.74 133.54 135.995 132.4 136.505 131.43C137.025 130.45 137.73 129.69 138.62 129.15C139.52 128.6 140.535 128.325 141.665 128.325C142.575 128.325 143.375 128.485 144.065 128.805C144.755 129.115 145.305 129.48 145.715 129.9C146.125 130.32 146.36 130.685 146.42 130.995V120.36H149.045V141H146.465V138.6C146.355 138.94 146.08 139.325 145.64 139.755C145.21 140.185 144.655 140.56 143.975 140.88C143.295 141.2 142.525 141.36 141.665 141.36ZM142.265 139.2C143.025 139.2 143.72 139.02 144.35 138.66C144.98 138.3 145.48 137.795 145.85 137.145C146.23 136.485 146.42 135.72 146.42 134.85C146.42 133.98 146.23 133.22 145.85 132.57C145.48 131.91 144.98 131.4 144.35 131.04C143.72 130.67 143.025 130.485 142.265 130.485C141.565 130.485 140.915 130.665 140.315 131.025C139.715 131.385 139.23 131.89 138.86 132.54C138.5 133.19 138.32 133.96 138.32 134.85C138.32 135.74 138.5 136.51 138.86 137.16C139.23 137.81 139.715 138.315 140.315 138.675C140.915 139.025 141.565 139.2 142.265 139.2ZM161.868 141V138.6C161.788 138.85 161.553 139.195 161.163 139.635C160.783 140.075 160.258 140.475 159.588 140.835C158.928 141.185 158.148 141.36 157.248 141.36C156.108 141.36 155.073 141.09 154.143 140.55C153.223 140.01 152.488 139.255 151.938 138.285C151.398 137.305 151.128 136.16 151.128 134.85C151.128 133.54 151.398 132.4 151.938 131.43C152.488 130.45 153.223 129.69 154.143 129.15C155.073 128.6 156.108 128.325 157.248 128.325C158.138 128.325 158.908 128.485 159.558 128.805C160.218 129.125 160.743 129.495 161.133 129.915C161.533 130.335 161.768 130.695 161.838 130.995V128.685H164.418V141H161.868ZM153.708 134.85C153.708 135.74 153.903 136.51 154.293 137.16C154.683 137.81 155.188 138.315 155.808 138.675C156.438 139.025 157.108 139.2 157.818 139.2C158.578 139.2 159.258 139.02 159.858 138.66C160.458 138.3 160.933 137.795 161.283 137.145C161.633 136.485 161.808 135.72 161.808 134.85C161.808 133.98 161.633 133.22 161.283 132.57C160.933 131.91 160.458 131.4 159.858 131.04C159.258 130.67 158.578 130.485 157.818 130.485C157.108 130.485 156.438 130.665 155.808 131.025C155.188 131.385 154.683 131.89 154.293 132.54C153.903 133.19 153.708 133.96 153.708 134.85ZM173.335 141.36C172.205 141.36 171.19 141.09 170.29 140.55C169.4 140.01 168.695 139.255 168.175 138.285C167.665 137.305 167.41 136.16 167.41 134.85C167.41 133.54 167.665 132.4 168.175 131.43C168.695 130.45 169.4 129.69 170.29 129.15C171.19 128.6 172.205 128.325 173.335 128.325C174.245 128.325 175.045 128.485 175.735 128.805C176.425 129.115 176.975 129.48 177.385 129.9C177.795 130.32 178.03 130.685 178.09 130.995V120.36H180.715V141H178.135V138.6C178.025 138.94 177.75 139.325 177.31 139.755C176.88 140.185 176.325 140.56 175.645 140.88C174.965 141.2 174.195 141.36 173.335 141.36ZM173.935 139.2C174.695 139.2 175.39 139.02 176.02 138.66C176.65 138.3 177.15 137.795 177.52 137.145C177.9 136.485 178.09 135.72 178.09 134.85C178.09 133.98 177.9 133.22 177.52 132.57C177.15 131.91 176.65 131.4 176.02 131.04C175.39 130.67 174.695 130.485 173.935 130.485C173.235 130.485 172.585 130.665 171.985 131.025C171.385 131.385 170.9 131.89 170.53 132.54C170.17 133.19 169.99 133.96 169.99 134.85C169.99 135.74 170.17 136.51 170.53 137.16C170.9 137.81 171.385 138.315 171.985 138.675C172.585 139.025 173.235 139.2 173.935 139.2ZM185.273 135.375C185.283 136.115 185.443 136.79 185.753 137.4C186.063 138.01 186.523 138.495 187.133 138.855C187.753 139.215 188.513 139.395 189.413 139.395C190.173 139.395 190.818 139.285 191.348 139.065C191.888 138.835 192.328 138.565 192.668 138.255C193.008 137.935 193.253 137.65 193.403 137.4L194.678 138.975C194.348 139.455 193.943 139.875 193.463 140.235C192.993 140.595 192.418 140.87 191.738 141.06C191.058 141.26 190.228 141.36 189.248 141.36C187.928 141.36 186.783 141.08 185.812 140.52C184.853 139.95 184.113 139.165 183.593 138.165C183.073 137.155 182.813 136 182.813 134.7C182.813 133.5 183.058 132.42 183.548 131.46C184.038 130.49 184.748 129.725 185.678 129.165C186.618 128.605 187.748 128.325 189.068 128.325C190.278 128.325 191.328 128.58 192.218 129.09C193.118 129.59 193.813 130.3 194.303 131.22C194.803 132.14 195.053 133.24 195.053 134.52C195.053 134.6 195.048 134.745 195.038 134.955C195.028 135.155 195.018 135.295 195.008 135.375H185.273ZM192.563 133.41C192.553 133 192.433 132.55 192.203 132.06C191.983 131.57 191.623 131.15 191.123 130.8C190.623 130.45 189.948 130.275 189.098 130.275C188.218 130.275 187.508 130.445 186.968 130.785C186.438 131.125 186.048 131.54 185.798 132.03C185.548 132.51 185.403 132.97 185.363 133.41H192.563ZM211.21 139.2C211.99 139.2 212.62 139.075 213.1 138.825C213.58 138.575 213.88 138.395 214 138.285L215.275 140.16C215.175 140.25 214.935 140.395 214.555 140.595C214.185 140.785 213.705 140.96 213.115 141.12C212.535 141.28 211.875 141.36 211.135 141.36C210.005 141.36 208.955 141.11 207.985 140.61C207.015 140.1 206.23 139.36 205.63 138.39C205.04 137.42 204.745 136.235 204.745 134.835C204.745 133.425 205.04 132.24 205.63 131.28C206.23 130.31 207.015 129.575 207.985 129.075C208.955 128.575 210.005 128.325 211.135 128.325C211.865 128.325 212.515 128.415 213.085 128.595C213.655 128.765 214.125 128.955 214.495 129.165C214.865 129.375 215.11 129.535 215.23 129.645L213.94 131.52C213.86 131.44 213.705 131.32 213.475 131.16C213.255 130.99 212.955 130.835 212.575 130.695C212.195 130.555 211.74 130.485 211.21 130.485C210.57 130.485 209.945 130.66 209.335 131.01C208.735 131.35 208.24 131.845 207.85 132.495C207.46 133.145 207.265 133.925 207.265 134.835C207.265 135.745 207.46 136.53 207.85 137.19C208.24 137.84 208.735 138.34 209.335 138.69C209.945 139.03 210.57 139.2 211.21 139.2ZM223.556 141.36C222.286 141.36 221.156 141.075 220.166 140.505C219.186 139.935 218.416 139.165 217.856 138.195C217.296 137.215 217.016 136.11 217.016 134.88C217.016 133.65 217.296 132.54 217.856 131.55C218.416 130.56 219.186 129.775 220.166 129.195C221.156 128.615 222.286 128.325 223.556 128.325C224.816 128.325 225.931 128.615 226.901 129.195C227.881 129.775 228.646 130.56 229.196 131.55C229.746 132.54 230.021 133.65 230.021 134.88C230.021 136.11 229.746 137.215 229.196 138.195C228.646 139.165 227.881 139.935 226.901 140.505C225.931 141.075 224.816 141.36 223.556 141.36ZM223.556 139.125C224.356 139.125 225.051 138.94 225.641 138.57C226.241 138.2 226.706 137.695 227.036 137.055C227.366 136.405 227.531 135.675 227.531 134.865C227.531 134.055 227.366 133.325 227.036 132.675C226.706 132.025 226.241 131.51 225.641 131.13C225.051 130.75 224.356 130.56 223.556 130.56C222.746 130.56 222.041 130.75 221.441 131.13C220.841 131.51 220.371 132.025 220.031 132.675C219.701 133.325 219.536 134.055 219.536 134.865C219.536 135.675 219.701 136.405 220.031 137.055C220.371 137.695 220.841 138.2 221.441 138.57C222.041 138.94 222.746 139.125 223.556 139.125ZM235.48 141H232.885V128.685H235.48V130.815H235.405C235.455 130.555 235.64 130.23 235.96 129.84C236.28 129.45 236.72 129.1 237.28 128.79C237.84 128.48 238.51 128.325 239.29 128.325C239.86 128.325 240.36 128.405 240.79 128.565C241.23 128.715 241.54 128.865 241.72 129.015L240.655 131.175C240.515 131.035 240.27 130.895 239.92 130.755C239.57 130.605 239.135 130.53 238.615 130.53C237.955 130.53 237.39 130.735 236.92 131.145C236.45 131.555 236.09 132.05 235.84 132.63C235.6 133.2 235.48 133.73 235.48 134.22V141ZM245.968 141H243.373V128.685H245.968V130.815H245.893C245.943 130.555 246.128 130.23 246.448 129.84C246.768 129.45 247.208 129.1 247.768 128.79C248.328 128.48 248.998 128.325 249.778 128.325C250.348 128.325 250.848 128.405 251.278 128.565C251.718 128.715 252.028 128.865 252.208 129.015L251.143 131.175C251.003 131.035 250.758 130.895 250.408 130.755C250.058 130.605 249.623 130.53 249.103 130.53C248.443 130.53 247.878 130.735 247.408 131.145C246.938 131.555 246.578 132.05 246.328 132.63C246.088 133.2 245.968 133.73 245.968 134.22V141ZM254.176 141V128.685H256.786V141H254.176ZM255.511 124.47C255.041 124.47 254.636 124.305 254.296 123.975C253.966 123.635 253.801 123.23 253.801 122.76C253.801 122.29 253.966 121.885 254.296 121.545C254.636 121.205 255.041 121.035 255.511 121.035C255.821 121.035 256.106 121.115 256.366 121.275C256.636 121.435 256.851 121.645 257.011 121.905C257.171 122.155 257.251 122.44 257.251 122.76C257.251 123.23 257.081 123.635 256.741 123.975C256.401 124.305 255.991 124.47 255.511 124.47ZM266.656 147.585C265.686 147.585 264.806 147.485 264.016 147.285C263.236 147.085 262.551 146.8 261.961 146.43C261.381 146.07 260.916 145.645 260.566 145.155L262.276 143.52C262.466 143.78 262.721 144.055 263.041 144.345C263.371 144.645 263.816 144.9 264.376 145.11C264.936 145.32 265.666 145.425 266.566 145.425C267.446 145.425 268.191 145.235 268.801 144.855C269.411 144.485 269.876 143.98 270.196 143.34C270.516 142.7 270.676 141.98 270.676 141.18V140.775H273.226V141.345C273.226 142.705 272.931 143.845 272.341 144.765C271.761 145.695 270.976 146.395 269.986 146.865C268.996 147.345 267.886 147.585 266.656 147.585ZM270.676 141V138.6C270.596 138.85 270.361 139.195 269.971 139.635C269.591 140.075 269.066 140.475 268.396 140.835C267.736 141.185 266.956 141.36 266.056 141.36C264.916 141.36 263.881 141.09 262.951 140.55C262.031 140.01 261.296 139.255 260.746 138.285C260.206 137.305 259.936 136.16 259.936 134.85C259.936 133.54 260.206 132.4 260.746 131.43C261.296 130.45 262.031 129.69 262.951 129.15C263.881 128.6 264.916 128.325 266.056 128.325C266.946 128.325 267.716 128.485 268.366 128.805C269.026 129.125 269.551 129.495 269.941 129.915C270.341 130.335 270.576 130.695 270.646 130.995V128.685H273.226V141H270.676ZM262.516 134.85C262.516 135.74 262.711 136.51 263.101 137.16C263.491 137.81 263.996 138.315 264.616 138.675C265.246 139.025 265.916 139.2 266.626 139.2C267.386 139.2 268.066 139.02 268.666 138.66C269.266 138.3 269.741 137.795 270.091 137.145C270.441 136.485 270.616 135.72 270.616 134.85C270.616 133.98 270.441 133.22 270.091 132.57C269.741 131.91 269.266 131.4 268.666 131.04C268.066 130.67 267.386 130.485 266.626 130.485C265.916 130.485 265.246 130.665 264.616 131.025C263.996 131.385 263.491 131.89 263.101 132.54C262.711 133.19 262.516 133.96 262.516 134.85ZM277.116 141V128.685H279.726V141H277.116ZM278.451 124.47C277.981 124.47 277.576 124.305 277.236 123.975C276.906 123.635 276.741 123.23 276.741 122.76C276.741 122.29 276.906 121.885 277.236 121.545C277.576 121.205 277.981 121.035 278.451 121.035C278.761 121.035 279.046 121.115 279.306 121.275C279.576 121.435 279.791 121.645 279.951 121.905C280.111 122.155 280.191 122.44 280.191 122.76C280.191 123.23 280.021 123.635 279.681 123.975C279.341 124.305 278.931 124.47 278.451 124.47ZM289.146 141.36C288.016 141.36 287.001 141.09 286.101 140.55C285.211 140.01 284.506 139.255 283.986 138.285C283.476 137.305 283.221 136.16 283.221 134.85C283.221 133.54 283.476 132.4 283.986 131.43C284.506 130.45 285.211 129.69 286.101 129.15C287.001 128.6 288.016 128.325 289.146 128.325C290.056 128.325 290.856 128.485 291.546 128.805C292.236 129.115 292.786 129.48 293.196 129.9C293.606 130.32 293.841 130.685 293.901 130.995V120.36H296.526V141H293.946V138.6C293.836 138.94 293.561 139.325 293.121 139.755C292.691 140.185 292.136 140.56 291.456 140.88C290.776 141.2 290.006 141.36 289.146 141.36ZM289.746 139.2C290.506 139.2 291.201 139.02 291.831 138.66C292.461 138.3 292.961 137.795 293.331 137.145C293.711 136.485 293.901 135.72 293.901 134.85C293.901 133.98 293.711 133.22 293.331 132.57C292.961 131.91 292.461 131.4 291.831 131.04C291.201 130.67 290.506 130.485 289.746 130.485C289.046 130.485 288.396 130.665 287.796 131.025C287.196 131.385 286.711 131.89 286.341 132.54C285.981 133.19 285.801 133.96 285.801 134.85C285.801 135.74 285.981 136.51 286.341 137.16C286.711 137.81 287.196 138.315 287.796 138.675C288.396 139.025 289.046 139.2 289.746 139.2ZM309.348 141V138.6C309.268 138.85 309.033 139.195 308.643 139.635C308.263 140.075 307.738 140.475 307.068 140.835C306.408 141.185 305.628 141.36 304.728 141.36C303.588 141.36 302.553 141.09 301.623 140.55C300.703 140.01 299.968 139.255 299.418 138.285C298.878 137.305 298.608 136.16 298.608 134.85C298.608 133.54 298.878 132.4 299.418 131.43C299.968 130.45 300.703 129.69 301.623 129.15C302.553 128.6 303.588 128.325 304.728 128.325C305.618 128.325 306.388 128.485 307.038 128.805C307.698 129.125 308.223 129.495 308.613 129.915C309.013 130.335 309.248 130.695 309.318 130.995V128.685H311.898V141H309.348ZM301.188 134.85C301.188 135.74 301.383 136.51 301.773 137.16C302.163 137.81 302.668 138.315 303.288 138.675C303.918 139.025 304.588 139.2 305.298 139.2C306.058 139.2 306.738 139.02 307.338 138.66C307.938 138.3 308.413 137.795 308.763 137.145C309.113 136.485 309.288 135.72 309.288 134.85C309.288 133.98 309.113 133.22 308.763 132.57C308.413 131.91 307.938 131.4 307.338 131.04C306.738 130.67 306.058 130.485 305.298 130.485C304.588 130.485 303.918 130.665 303.288 131.025C302.668 131.385 302.163 131.89 301.773 132.54C301.383 133.19 301.188 133.96 301.188 134.85ZM317.456 131.82C316.906 131.82 316.431 131.625 316.031 131.235C315.641 130.835 315.446 130.36 315.446 129.81C315.446 129.24 315.641 128.76 316.031 128.37C316.431 127.97 316.906 127.77 317.456 127.77C318.026 127.77 318.506 127.97 318.896 128.37C319.286 128.76 319.481 129.24 319.481 129.81C319.481 130.36 319.286 130.835 318.896 131.235C318.506 131.625 318.026 131.82 317.456 131.82ZM317.501 137.235C318.111 137.235 318.631 137.45 319.061 137.88C319.501 138.31 319.721 138.89 319.721 139.62C319.721 140.36 319.571 141.065 319.271 141.735C318.971 142.405 318.576 143 318.086 143.52C317.596 144.04 317.066 144.455 316.496 144.765L315.521 143.76C315.821 143.62 316.146 143.42 316.496 143.16C316.846 142.9 317.161 142.6 317.441 142.26C317.721 141.93 317.911 141.575 318.011 141.195C317.791 141.305 317.531 141.36 317.231 141.36C316.721 141.35 316.281 141.155 315.911 140.775C315.541 140.385 315.356 139.915 315.356 139.365C315.356 138.955 315.451 138.59 315.641 138.27C315.831 137.95 316.086 137.7 316.406 137.52C316.736 137.33 317.101 137.235 317.501 137.235Z" fill="#80A878"/>
<path d="M85.65 187.2H88.32L95.64 207H92.895L91.185 202.23H82.785L81.045 207H78.3L85.65 187.2ZM83.61 199.92H90.375L87.015 190.35H86.97L83.61 199.92ZM96.6305 194.685H99.0455V189.63H101.64V194.685H104.805V196.92H101.64V203.01C101.64 203.73 101.765 204.26 102.015 204.6C102.275 204.94 102.62 205.11 103.05 205.11C103.43 205.11 103.725 205.04 103.935 204.9C104.145 204.76 104.27 204.665 104.31 204.615L105.345 206.535C105.285 206.585 105.125 206.68 104.865 206.82C104.605 206.96 104.27 207.085 103.86 207.195C103.45 207.305 102.97 207.36 102.42 207.36C101.46 207.36 100.655 207.07 100.005 206.49C99.3655 205.9 99.0455 204.97 99.0455 203.7V196.92H96.6305V194.685ZM107.897 207V194.685H110.507V207H107.897ZM109.232 190.47C108.762 190.47 108.357 190.305 108.017 189.975C107.687 189.635 107.522 189.23 107.522 188.76C107.522 188.29 107.687 187.885 108.017 187.545C108.357 187.205 108.762 187.035 109.232 187.035C109.542 187.035 109.827 187.115 110.087 187.275C110.357 187.435 110.572 187.645 110.732 187.905C110.892 188.155 110.972 188.44 110.972 188.76C110.972 189.23 110.802 189.635 110.462 189.975C110.122 190.305 109.712 190.47 109.232 190.47ZM113.267 194.685H116.072L120.092 204.585L124.112 194.685H126.902L121.637 207H118.562L113.267 194.685ZM129.635 207V194.685H132.245V207H129.635ZM130.97 190.47C130.5 190.47 130.095 190.305 129.755 189.975C129.425 189.635 129.26 189.23 129.26 188.76C129.26 188.29 129.425 187.885 129.755 187.545C130.095 187.205 130.5 187.035 130.97 187.035C131.28 187.035 131.565 187.115 131.825 187.275C132.095 187.435 132.31 187.645 132.47 187.905C132.63 188.155 132.71 188.44 132.71 188.76C132.71 189.23 132.54 189.635 132.2 189.975C131.86 190.305 131.45 190.47 130.97 190.47ZM141.665 207.36C140.535 207.36 139.52 207.09 138.62 206.55C137.73 206.01 137.025 205.255 136.505 204.285C135.995 203.305 135.74 202.16 135.74 200.85C135.74 199.54 135.995 198.4 136.505 197.43C137.025 196.45 137.73 195.69 138.62 195.15C139.52 194.6 140.535 194.325 141.665 194.325C142.575 194.325 143.375 194.485 144.065 194.805C144.755 195.115 145.305 195.48 145.715 195.9C146.125 196.32 146.36 196.685 146.42 196.995V186.36H149.045V207H146.465V204.6C146.355 204.94 146.08 205.325 145.64 205.755C145.21 206.185 144.655 206.56 143.975 206.88C143.295 207.2 142.525 207.36 141.665 207.36ZM142.265 205.2C143.025 205.2 143.72 205.02 144.35 204.66C144.98 204.3 145.48 203.795 145.85 203.145C146.23 202.485 146.42 201.72 146.42 200.85C146.42 199.98 146.23 199.22 145.85 198.57C145.48 197.91 144.98 197.4 144.35 197.04C143.72 196.67 143.025 196.485 142.265 196.485C141.565 196.485 140.915 196.665 140.315 197.025C139.715 197.385 139.23 197.89 138.86 198.54C138.5 199.19 138.32 199.96 138.32 200.85C138.32 201.74 138.5 202.51 138.86 203.16C139.23 203.81 139.715 204.315 140.315 204.675C140.915 205.025 141.565 205.2 142.265 205.2ZM161.868 207V204.6C161.788 204.85 161.553 205.195 161.163 205.635C160.783 206.075 160.258 206.475 159.588 206.835C158.928 207.185 158.148 207.36 157.248 207.36C156.108 207.36 155.073 207.09 154.143 206.55C153.223 206.01 152.488 205.255 151.938 204.285C151.398 203.305 151.128 202.16 151.128 200.85C151.128 199.54 151.398 198.4 151.938 197.43C152.488 196.45 153.223 195.69 154.143 195.15C155.073 194.6 156.108 194.325 157.248 194.325C158.138 194.325 158.908 194.485 159.558 194.805C160.218 195.125 160.743 195.495 161.133 195.915C161.533 196.335 161.768 196.695 161.838 196.995V194.685H164.418V207H161.868ZM153.708 200.85C153.708 201.74 153.903 202.51 154.293 203.16C154.683 203.81 155.188 204.315 155.808 204.675C156.438 205.025 157.108 205.2 157.818 205.2C158.578 205.2 159.258 205.02 159.858 204.66C160.458 204.3 160.933 203.795 161.283 203.145C161.633 202.485 161.808 201.72 161.808 200.85C161.808 199.98 161.633 199.22 161.283 198.57C160.933 197.91 160.458 197.4 159.858 197.04C159.258 196.67 158.578 196.485 157.818 196.485C157.108 196.485 156.438 196.665 155.808 197.025C155.188 197.385 154.683 197.89 154.293 198.54C153.903 199.19 153.708 199.96 153.708 200.85ZM173.335 207.36C172.205 207.36 171.19 207.09 170.29 206.55C169.4 206.01 168.695 205.255 168.175 204.285C167.665 203.305 167.41 202.16 167.41 200.85C167.41 199.54 167.665 198.4 168.175 197.43C168.695 196.45 169.4 195.69 170.29 195.15C171.19 194.6 172.205 194.325 173.335 194.325C174.245 194.325 175.045 194.485 175.735 194.805C176.425 195.115 176.975 195.48 177.385 195.9C177.795 196.32 178.03 196.685 178.09 196.995V186.36H180.715V207H178.135V204.6C178.025 204.94 177.75 205.325 177.31 205.755C176.88 206.185 176.325 206.56 175.645 206.88C174.965 207.2 174.195 207.36 173.335 207.36ZM173.935 205.2C174.695 205.2 175.39 205.02 176.02 204.66C176.65 204.3 177.15 203.795 177.52 203.145C177.9 202.485 178.09 201.72 178.09 200.85C178.09 199.98 177.9 199.22 177.52 198.57C177.15 197.91 176.65 197.4 176.02 197.04C175.39 196.67 174.695 196.485 173.935 196.485C173.235 196.485 172.585 196.665 171.985 197.025C171.385 197.385 170.9 197.89 170.53 198.54C170.17 199.19 169.99 199.96 169.99 200.85C169.99 201.74 170.17 202.51 170.53 203.16C170.9 203.81 171.385 204.315 171.985 204.675C172.585 205.025 173.235 205.2 173.935 205.2ZM185.273 201.375C185.283 202.115 185.443 202.79 185.753 203.4C186.063 204.01 186.523 204.495 187.133 204.855C187.753 205.215 188.513 205.395 189.413 205.395C190.173 205.395 190.818 205.285 191.348 205.065C191.888 204.835 192.328 204.565 192.668 204.255C193.008 203.935 193.253 203.65 193.403 203.4L194.678 204.975C194.348 205.455 193.943 205.875 193.463 206.235C192.993 206.595 192.418 206.87 191.738 207.06C191.058 207.26 190.228 207.36 189.248 207.36C187.928 207.36 186.783 207.08 185.812 206.52C184.853 205.95 184.113 205.165 183.593 204.165C183.073 203.155 182.813 202 182.813 200.7C182.813 199.5 183.058 198.42 183.548 197.46C184.038 196.49 184.748 195.725 185.678 195.165C186.618 194.605 187.748 194.325 189.068 194.325C190.278 194.325 191.328 194.58 192.218 195.09C193.118 195.59 193.813 196.3 194.303 197.22C194.803 198.14 195.053 199.24 195.053 200.52C195.053 200.6 195.048 200.745 195.038 200.955C195.028 201.155 195.018 201.295 195.008 201.375H185.273ZM192.563 199.41C192.553 199 192.433 198.55 192.203 198.06C191.983 197.57 191.623 197.15 191.123 196.8C190.623 196.45 189.948 196.275 189.098 196.275C188.218 196.275 187.508 196.445 186.968 196.785C186.438 197.125 186.048 197.54 185.798 198.03C185.548 198.51 185.403 198.97 185.363 199.41H192.563ZM207.04 201.375C207.05 202.115 207.21 202.79 207.52 203.4C207.83 204.01 208.29 204.495 208.9 204.855C209.52 205.215 210.28 205.395 211.18 205.395C211.94 205.395 212.585 205.285 213.115 205.065C213.655 204.835 214.095 204.565 214.435 204.255C214.775 203.935 215.02 203.65 215.17 203.4L216.445 204.975C216.115 205.455 215.71 205.875 215.23 206.235C214.76 206.595 214.185 206.87 213.505 207.06C212.825 207.26 211.995 207.36 211.015 207.36C209.695 207.36 208.55 207.08 207.58 206.52C206.62 205.95 205.88 205.165 205.36 204.165C204.84 203.155 204.58 202 204.58 200.7C204.58 199.5 204.825 198.42 205.315 197.46C205.805 196.49 206.515 195.725 207.445 195.165C208.385 194.605 209.515 194.325 210.835 194.325C212.045 194.325 213.095 194.58 213.985 195.09C214.885 195.59 215.58 196.3 216.07 197.22C216.57 198.14 216.82 199.24 216.82 200.52C216.82 200.6 216.815 200.745 216.805 200.955C216.795 201.155 216.785 201.295 216.775 201.375H207.04ZM214.33 199.41C214.32 199 214.2 198.55 213.97 198.06C213.75 197.57 213.39 197.15 212.89 196.8C212.39 196.45 211.715 196.275 210.865 196.275C209.985 196.275 209.275 196.445 208.735 196.785C208.205 197.125 207.815 197.54 207.565 198.03C207.315 198.51 207.17 198.97 207.13 199.41H214.33ZM234.477 194.325C235.387 194.325 236.167 194.525 236.817 194.925C237.467 195.315 237.962 195.915 238.302 196.725C238.652 197.535 238.827 198.57 238.827 199.83V207H236.247V200.355C236.247 199.025 236.062 198.025 235.692 197.355C235.322 196.685 234.647 196.35 233.667 196.35C233.147 196.35 232.647 196.495 232.167 196.785C231.697 197.065 231.307 197.5 230.997 198.09C230.697 198.68 230.547 199.435 230.547 200.355V207H228.117V200.355C228.117 199.025 227.887 198.025 227.427 197.355C226.967 196.685 226.322 196.35 225.492 196.35C224.962 196.35 224.462 196.49 223.992 196.77C223.532 197.04 223.157 197.47 222.867 198.06C222.577 198.65 222.432 199.415 222.432 200.355V207H219.837V194.685H222.432V196.575C222.542 196.265 222.777 195.935 223.137 195.585C223.507 195.235 223.977 194.94 224.547 194.7C225.127 194.45 225.772 194.325 226.482 194.325C227.222 194.325 227.842 194.475 228.342 194.775C228.842 195.075 229.237 195.445 229.527 195.885C229.817 196.315 230.017 196.73 230.127 197.13C230.267 196.7 230.537 196.27 230.937 195.84C231.337 195.4 231.842 195.04 232.452 194.76C233.062 194.47 233.737 194.325 234.477 194.325ZM252.547 213.24H249.952V194.685H252.592V196.995C252.682 196.685 252.932 196.32 253.342 195.9C253.752 195.48 254.302 195.115 254.992 194.805C255.692 194.485 256.492 194.325 257.392 194.325C258.532 194.325 259.542 194.6 260.422 195.15C261.312 195.69 262.007 196.45 262.507 197.43C263.017 198.4 263.272 199.54 263.272 200.85C263.272 202.16 263.012 203.305 262.492 204.285C261.972 205.255 261.262 206.01 260.362 206.55C259.472 207.09 258.452 207.36 257.302 207.36C256.372 207.36 255.557 207.185 254.857 206.835C254.167 206.485 253.622 206.09 253.222 205.65C252.832 205.21 252.607 204.86 252.547 204.6V213.24ZM260.692 200.85C260.692 199.96 260.507 199.19 260.137 198.54C259.777 197.89 259.297 197.385 258.697 197.025C258.097 196.665 257.447 196.485 256.747 196.485C255.977 196.485 255.277 196.67 254.647 197.04C254.017 197.4 253.517 197.91 253.147 198.57C252.777 199.22 252.592 199.98 252.592 200.85C252.592 201.72 252.777 202.485 253.147 203.145C253.517 203.795 254.017 204.3 254.647 204.66C255.277 205.02 255.977 205.2 256.747 205.2C257.447 205.2 258.097 205.025 258.697 204.675C259.297 204.315 259.777 203.81 260.137 203.16C260.507 202.51 260.692 201.74 260.692 200.85ZM268.556 207H265.961V194.685H268.556V196.815H268.481C268.531 196.555 268.716 196.23 269.036 195.84C269.356 195.45 269.796 195.1 270.356 194.79C270.916 194.48 271.586 194.325 272.366 194.325C272.936 194.325 273.436 194.405 273.866 194.565C274.306 194.715 274.616 194.865 274.796 195.015L273.731 197.175C273.591 197.035 273.346 196.895 272.996 196.755C272.646 196.605 272.211 196.53 271.691 196.53C271.031 196.53 270.466 196.735 269.996 197.145C269.526 197.555 269.166 198.05 268.916 198.63C268.676 199.2 268.556 199.73 268.556 200.22V207ZM281.916 207.36C280.646 207.36 279.516 207.075 278.526 206.505C277.546 205.935 276.776 205.165 276.216 204.195C275.656 203.215 275.376 202.11 275.376 200.88C275.376 199.65 275.656 198.54 276.216 197.55C276.776 196.56 277.546 195.775 278.526 195.195C279.516 194.615 280.646 194.325 281.916 194.325C283.176 194.325 284.291 194.615 285.261 195.195C286.241 195.775 287.006 196.56 287.556 197.55C288.106 198.54 288.381 199.65 288.381 200.88C288.381 202.11 288.106 203.215 287.556 204.195C287.006 205.165 286.241 205.935 285.261 206.505C284.291 207.075 283.176 207.36 281.916 207.36ZM281.916 205.125C282.716 205.125 283.411 204.94 284.001 204.57C284.601 204.2 285.066 203.695 285.396 203.055C285.726 202.405 285.891 201.675 285.891 200.865C285.891 200.055 285.726 199.325 285.396 198.675C285.066 198.025 284.601 197.51 284.001 197.13C283.411 196.75 282.716 196.56 281.916 196.56C281.106 196.56 280.401 196.75 279.801 197.13C279.201 197.51 278.731 198.025 278.391 198.675C278.061 199.325 277.896 200.055 277.896 200.865C277.896 201.675 278.061 202.405 278.391 203.055C278.731 203.695 279.201 204.2 279.801 204.57C280.401 204.94 281.106 205.125 281.916 205.125ZM297.079 205.2C297.859 205.2 298.489 205.075 298.969 204.825C299.449 204.575 299.749 204.395 299.869 204.285L301.144 206.16C301.044 206.25 300.804 206.395 300.424 206.595C300.054 206.785 299.574 206.96 298.984 207.12C298.404 207.28 297.744 207.36 297.004 207.36C295.874 207.36 294.824 207.11 293.854 206.61C292.884 206.1 292.099 205.36 291.499 204.39C290.909 203.42 290.614 202.235 290.614 200.835C290.614 199.425 290.909 198.24 291.499 197.28C292.099 196.31 292.884 195.575 293.854 195.075C294.824 194.575 295.874 194.325 297.004 194.325C297.734 194.325 298.384 194.415 298.954 194.595C299.524 194.765 299.994 194.955 300.364 195.165C300.734 195.375 300.979 195.535 301.099 195.645L299.809 197.52C299.729 197.44 299.574 197.32 299.344 197.16C299.124 196.99 298.824 196.835 298.444 196.695C298.064 196.555 297.609 196.485 297.079 196.485C296.439 196.485 295.814 196.66 295.204 197.01C294.604 197.35 294.109 197.845 293.719 198.495C293.329 199.145 293.134 199.925 293.134 200.835C293.134 201.745 293.329 202.53 293.719 203.19C294.109 203.84 294.604 204.34 295.204 204.69C295.814 205.03 296.439 205.2 297.079 205.2ZM305.36 201.375C305.37 202.115 305.53 202.79 305.84 203.4C306.15 204.01 306.61 204.495 307.22 204.855C307.84 205.215 308.6 205.395 309.5 205.395C310.26 205.395 310.905 205.285 311.435 205.065C311.975 204.835 312.415 204.565 312.755 204.255C313.095 203.935 313.34 203.65 313.49 203.4L314.765 204.975C314.435 205.455 314.03 205.875 313.55 206.235C313.08 206.595 312.505 206.87 311.825 207.06C311.145 207.26 310.315 207.36 309.335 207.36C308.015 207.36 306.87 207.08 305.9 206.52C304.94 205.95 304.2 205.165 303.68 204.165C303.16 203.155 302.9 202 302.9 200.7C302.9 199.5 303.145 198.42 303.635 197.46C304.125 196.49 304.835 195.725 305.765 195.165C306.705 194.605 307.835 194.325 309.155 194.325C310.365 194.325 311.415 194.58 312.305 195.09C313.205 195.59 313.9 196.3 314.39 197.22C314.89 198.14 315.14 199.24 315.14 200.52C315.14 200.6 315.135 200.745 315.125 200.955C315.115 201.155 315.105 201.295 315.095 201.375H305.36ZM312.65 199.41C312.64 199 312.52 198.55 312.29 198.06C312.07 197.57 311.71 197.15 311.21 196.8C310.71 196.45 310.035 196.275 309.185 196.275C308.305 196.275 307.595 196.445 307.055 196.785C306.525 197.125 306.135 197.54 305.885 198.03C305.635 198.51 305.49 198.97 305.45 199.41H312.65ZM322.642 194.325C323.282 194.325 323.877 194.39 324.427 194.52C324.987 194.65 325.467 194.805 325.867 194.985C326.277 195.165 326.567 195.325 326.737 195.465L325.702 197.115C325.502 196.935 325.142 196.735 324.622 196.515C324.102 196.285 323.522 196.17 322.882 196.17C322.182 196.17 321.587 196.31 321.097 196.59C320.607 196.86 320.362 197.255 320.362 197.775C320.362 198.295 320.612 198.71 321.112 199.02C321.622 199.32 322.302 199.57 323.152 199.77C323.832 199.93 324.467 200.145 325.057 200.415C325.657 200.685 326.142 201.06 326.512 201.54C326.882 202.01 327.067 202.64 327.067 203.43C327.067 204.15 326.917 204.765 326.617 205.275C326.317 205.775 325.912 206.18 325.402 206.49C324.892 206.79 324.322 207.01 323.692 207.15C323.062 207.29 322.422 207.36 321.772 207.36C321.012 207.36 320.327 207.28 319.717 207.12C319.107 206.97 318.592 206.79 318.172 206.58C317.762 206.36 317.462 206.17 317.272 206.01L318.307 204.15C318.567 204.4 318.992 204.665 319.582 204.945C320.182 205.225 320.862 205.365 321.622 205.365C322.462 205.365 323.142 205.19 323.662 204.84C324.182 204.48 324.442 204.015 324.442 203.445C324.442 203.015 324.317 202.67 324.067 202.41C323.817 202.15 323.482 201.94 323.062 201.78C322.642 201.62 322.182 201.48 321.682 201.36C321.202 201.25 320.732 201.105 320.272 200.925C319.822 200.745 319.407 200.515 319.027 200.235C318.657 199.945 318.362 199.595 318.142 199.185C317.922 198.765 317.812 198.275 317.812 197.715C317.812 197.005 318.037 196.4 318.487 195.9C318.937 195.39 319.527 195 320.257 194.73C320.987 194.46 321.782 194.325 322.642 194.325ZM334.713 194.325C335.353 194.325 335.948 194.39 336.498 194.52C337.058 194.65 337.538 194.805 337.938 194.985C338.348 195.165 338.638 195.325 338.808 195.465L337.773 197.115C337.573 196.935 337.213 196.735 336.693 196.515C336.173 196.285 335.593 196.17 334.953 196.17C334.253 196.17 333.658 196.31 333.168 196.59C332.678 196.86 332.433 197.255 332.433 197.775C332.433 198.295 332.683 198.71 333.183 199.02C333.693 199.32 334.373 199.57 335.223 199.77C335.903 199.93 336.538 200.145 337.128 200.415C337.728 200.685 338.213 201.06 338.583 201.54C338.953 202.01 339.138 202.64 339.138 203.43C339.138 204.15 338.988 204.765 338.688 205.275C338.388 205.775 337.983 206.18 337.473 206.49C336.963 206.79 336.393 207.01 335.763 207.15C335.133 207.29 334.493 207.36 333.843 207.36C333.083 207.36 332.398 207.28 331.788 207.12C331.178 206.97 330.663 206.79 330.243 206.58C329.833 206.36 329.533 206.17 329.343 206.01L330.378 204.15C330.638 204.4 331.063 204.665 331.653 204.945C332.253 205.225 332.933 205.365 333.693 205.365C334.533 205.365 335.213 205.19 335.733 204.84C336.253 204.48 336.513 204.015 336.513 203.445C336.513 203.015 336.388 202.67 336.138 202.41C335.888 202.15 335.553 201.94 335.133 201.78C334.713 201.62 334.253 201.48 333.753 201.36C333.273 201.25 332.803 201.105 332.343 200.925C331.893 200.745 331.478 200.515 331.098 200.235C330.728 199.945 330.433 199.595 330.213 199.185C329.993 198.765 329.883 198.275 329.883 197.715C329.883 197.005 330.108 196.4 330.558 195.9C331.008 195.39 331.598 195 332.328 194.73C333.058 194.46 333.853 194.325 334.713 194.325ZM343.798 201.375C343.808 202.115 343.968 202.79 344.278 203.4C344.588 204.01 345.048 204.495 345.658 204.855C346.278 205.215 347.038 205.395 347.938 205.395C348.698 205.395 349.343 205.285 349.873 205.065C350.413 204.835 350.853 204.565 351.193 204.255C351.533 203.935 351.778 203.65 351.928 203.4L353.203 204.975C352.873 205.455 352.468 205.875 351.988 206.235C351.518 206.595 350.943 206.87 350.263 207.06C349.583 207.26 348.753 207.36 347.773 207.36C346.453 207.36 345.308 207.08 344.338 206.52C343.378 205.95 342.638 205.165 342.118 204.165C341.598 203.155 341.338 202 341.338 200.7C341.338 199.5 341.583 198.42 342.073 197.46C342.563 196.49 343.273 195.725 344.203 195.165C345.143 194.605 346.273 194.325 347.593 194.325C348.803 194.325 349.853 194.58 350.743 195.09C351.643 195.59 352.338 196.3 352.828 197.22C353.328 198.14 353.578 199.24 353.578 200.52C353.578 200.6 353.573 200.745 353.563 200.955C353.553 201.155 353.543 201.295 353.533 201.375H343.798ZM351.088 199.41C351.078 199 350.958 198.55 350.728 198.06C350.508 197.57 350.148 197.15 349.648 196.8C349.148 196.45 348.473 196.275 347.623 196.275C346.743 196.275 346.033 196.445 345.493 196.785C344.963 197.125 344.573 197.54 344.323 198.03C344.073 198.51 343.928 198.97 343.888 199.41H351.088ZM361.08 194.325C361.72 194.325 362.315 194.39 362.865 194.52C363.425 194.65 363.905 194.805 364.305 194.985C364.715 195.165 365.005 195.325 365.175 195.465L364.14 197.115C363.94 196.935 363.58 196.735 363.06 196.515C362.54 196.285 361.96 196.17 361.32 196.17C360.62 196.17 360.025 196.31 359.535 196.59C359.045 196.86 358.8 197.255 358.8 197.775C358.8 198.295 359.05 198.71 359.55 199.02C360.06 199.32 360.74 199.57 361.59 199.77C362.27 199.93 362.905 200.145 363.495 200.415C364.095 200.685 364.58 201.06 364.95 201.54C365.32 202.01 365.505 202.64 365.505 203.43C365.505 204.15 365.355 204.765 365.055 205.275C364.755 205.775 364.35 206.18 363.84 206.49C363.33 206.79 362.76 207.01 362.13 207.15C361.5 207.29 360.86 207.36 360.21 207.36C359.45 207.36 358.765 207.28 358.155 207.12C357.545 206.97 357.03 206.79 356.61 206.58C356.2 206.36 355.9 206.17 355.71 206.01L356.745 204.15C357.005 204.4 357.43 204.665 358.02 204.945C358.62 205.225 359.3 205.365 360.06 205.365C360.9 205.365 361.58 205.19 362.1 204.84C362.62 204.48 362.88 204.015 362.88 203.445C362.88 203.015 362.755 202.67 362.505 202.41C362.255 202.15 361.92 201.94 361.5 201.78C361.08 201.62 360.62 201.48 360.12 201.36C359.64 201.25 359.17 201.105 358.71 200.925C358.26 200.745 357.845 200.515 357.465 200.235C357.095 199.945 356.8 199.595 356.58 199.185C356.36 198.765 356.25 198.275 356.25 197.715C356.25 197.005 356.475 196.4 356.925 195.9C357.375 195.39 357.965 195 358.695 194.73C359.425 194.46 360.22 194.325 361.08 194.325ZM374.23 207.36C372.96 207.36 371.83 207.075 370.84 206.505C369.86 205.935 369.09 205.165 368.53 204.195C367.97 203.215 367.69 202.11 367.69 200.88C367.69 199.65 367.97 198.54 368.53 197.55C369.09 196.56 369.86 195.775 370.84 195.195C371.83 194.615 372.96 194.325 374.23 194.325C375.49 194.325 376.605 194.615 377.575 195.195C378.555 195.775 379.32 196.56 379.87 197.55C380.42 198.54 380.695 199.65 380.695 200.88C380.695 202.11 380.42 203.215 379.87 204.195C379.32 205.165 378.555 205.935 377.575 206.505C376.605 207.075 375.49 207.36 374.23 207.36ZM374.23 205.125C375.03 205.125 375.725 204.94 376.315 204.57C376.915 204.2 377.38 203.695 377.71 203.055C378.04 202.405 378.205 201.675 378.205 200.865C378.205 200.055 378.04 199.325 377.71 198.675C377.38 198.025 376.915 197.51 376.315 197.13C375.725 196.75 375.03 196.56 374.23 196.56C373.42 196.56 372.715 196.75 372.115 197.13C371.515 197.51 371.045 198.025 370.705 198.675C370.375 199.325 370.21 200.055 370.21 200.865C370.21 201.675 370.375 202.405 370.705 203.055C371.045 203.695 371.515 204.2 372.115 204.57C372.715 204.94 373.42 205.125 374.23 205.125ZM385.659 197.82C385.109 197.82 384.634 197.625 384.234 197.235C383.844 196.835 383.649 196.36 383.649 195.81C383.649 195.24 383.844 194.76 384.234 194.37C384.634 193.97 385.109 193.77 385.659 193.77C386.229 193.77 386.709 193.97 387.099 194.37C387.489 194.76 387.684 195.24 387.684 195.81C387.684 196.36 387.489 196.835 387.099 197.235C386.709 197.625 386.229 197.82 385.659 197.82ZM385.704 203.235C386.314 203.235 386.834 203.45 387.264 203.88C387.704 204.31 387.924 204.89 387.924 205.62C387.924 206.36 387.774 207.065 387.474 207.735C387.174 208.405 386.779 209 386.289 209.52C385.799 210.04 385.269 210.455 384.699 210.765L383.724 209.76C384.024 209.62 384.349 209.42 384.699 209.16C385.049 208.9 385.364 208.6 385.644 208.26C385.924 207.93 386.114 207.575 386.214 207.195C385.994 207.305 385.734 207.36 385.434 207.36C384.924 207.35 384.484 207.155 384.114 206.775C383.744 206.385 383.559 205.915 383.559 205.365C383.559 204.955 383.654 204.59 383.844 204.27C384.034 203.95 384.289 203.7 384.609 203.52C384.939 203.33 385.304 203.235 385.704 203.235Z" fill="#D6C07D"/>
<path d="M85.65 253.2H88.32L95.64 273H92.895L91.185 268.23H82.785L81.045 273H78.3L85.65 253.2ZM83.61 265.92H90.375L87.015 256.35H86.97L83.61 265.92ZM96.6305 260.685H99.0455V255.63H101.64V260.685H104.805V262.92H101.64V269.01C101.64 269.73 101.765 270.26 102.015 270.6C102.275 270.94 102.62 271.11 103.05 271.11C103.43 271.11 103.725 271.04 103.935 270.9C104.145 270.76 104.27 270.665 104.31 270.615L105.345 272.535C105.285 272.585 105.125 272.68 104.865 272.82C104.605 272.96 104.27 273.085 103.86 273.195C103.45 273.305 102.97 273.36 102.42 273.36C101.46 273.36 100.655 273.07 100.005 272.49C99.3655 271.9 99.0455 270.97 99.0455 269.7V262.92H96.6305V260.685ZM107.897 273V260.685H110.507V273H107.897ZM109.232 256.47C108.762 256.47 108.357 256.305 108.017 255.975C107.687 255.635 107.522 255.23 107.522 254.76C107.522 254.29 107.687 253.885 108.017 253.545C108.357 253.205 108.762 253.035 109.232 253.035C109.542 253.035 109.827 253.115 110.087 253.275C110.357 253.435 110.572 253.645 110.732 253.905C110.892 254.155 110.972 254.44 110.972 254.76C110.972 255.23 110.802 255.635 110.462 255.975C110.122 256.305 109.712 256.47 109.232 256.47ZM113.267 260.685H116.072L120.092 270.585L124.112 260.685H126.902L121.637 273H118.562L113.267 260.685ZM129.635 273V260.685H132.245V273H129.635ZM130.97 256.47C130.5 256.47 130.095 256.305 129.755 255.975C129.425 255.635 129.26 255.23 129.26 254.76C129.26 254.29 129.425 253.885 129.755 253.545C130.095 253.205 130.5 253.035 130.97 253.035C131.28 253.035 131.565 253.115 131.825 253.275C132.095 253.435 132.31 253.645 132.47 253.905C132.63 254.155 132.71 254.44 132.71 254.76C132.71 255.23 132.54 255.635 132.2 255.975C131.86 256.305 131.45 256.47 130.97 256.47ZM141.665 273.36C140.535 273.36 139.52 273.09 138.62 272.55C137.73 272.01 137.025 271.255 136.505 270.285C135.995 269.305 135.74 268.16 135.74 266.85C135.74 265.54 135.995 264.4 136.505 263.43C137.025 262.45 137.73 261.69 138.62 261.15C139.52 260.6 140.535 260.325 141.665 260.325C142.575 260.325 143.375 260.485 144.065 260.805C144.755 261.115 145.305 261.48 145.715 261.9C146.125 262.32 146.36 262.685 146.42 262.995V252.36H149.045V273H146.465V270.6C146.355 270.94 146.08 271.325 145.64 271.755C145.21 272.185 144.655 272.56 143.975 272.88C143.295 273.2 142.525 273.36 141.665 273.36ZM142.265 271.2C143.025 271.2 143.72 271.02 144.35 270.66C144.98 270.3 145.48 269.795 145.85 269.145C146.23 268.485 146.42 267.72 146.42 266.85C146.42 265.98 146.23 265.22 145.85 264.57C145.48 263.91 144.98 263.4 144.35 263.04C143.72 262.67 143.025 262.485 142.265 262.485C141.565 262.485 140.915 262.665 140.315 263.025C139.715 263.385 139.23 263.89 138.86 264.54C138.5 265.19 138.32 265.96 138.32 266.85C138.32 267.74 138.5 268.51 138.86 269.16C139.23 269.81 139.715 270.315 140.315 270.675C140.915 271.025 141.565 271.2 142.265 271.2ZM161.868 273V270.6C161.788 270.85 161.553 271.195 161.163 271.635C160.783 272.075 160.258 272.475 159.588 272.835C158.928 273.185 158.148 273.36 157.248 273.36C156.108 273.36 155.073 273.09 154.143 272.55C153.223 272.01 152.488 271.255 151.938 270.285C151.398 269.305 151.128 268.16 151.128 266.85C151.128 265.54 151.398 264.4 151.938 263.43C152.488 262.45 153.223 261.69 154.143 261.15C155.073 260.6 156.108 260.325 157.248 260.325C158.138 260.325 158.908 260.485 159.558 260.805C160.218 261.125 160.743 261.495 161.133 261.915C161.533 262.335 161.768 262.695 161.838 262.995V260.685H164.418V273H161.868ZM153.708 266.85C153.708 267.74 153.903 268.51 154.293 269.16C154.683 269.81 155.188 270.315 155.808 270.675C156.438 271.025 157.108 271.2 157.818 271.2C158.578 271.2 159.258 271.02 159.858 270.66C160.458 270.3 160.933 269.795 161.283 269.145C161.633 268.485 161.808 267.72 161.808 266.85C161.808 265.98 161.633 265.22 161.283 264.57C160.933 263.91 160.458 263.4 159.858 263.04C159.258 262.67 158.578 262.485 157.818 262.485C157.108 262.485 156.438 262.665 155.808 263.025C155.188 263.385 154.683 263.89 154.293 264.54C153.903 265.19 153.708 265.96 153.708 266.85ZM173.335 273.36C172.205 273.36 171.19 273.09 170.29 272.55C169.4 272.01 168.695 271.255 168.175 270.285C167.665 269.305 167.41 268.16 167.41 266.85C167.41 265.54 167.665 264.4 168.175 263.43C168.695 262.45 169.4 261.69 170.29 261.15C171.19 260.6 172.205 260.325 173.335 260.325C174.245 260.325 175.045 260.485 175.735 260.805C176.425 261.115 176.975 261.48 177.385 261.9C177.795 262.32 178.03 262.685 178.09 262.995V252.36H180.715V273H178.135V270.6C178.025 270.94 177.75 271.325 177.31 271.755C176.88 272.185 176.325 272.56 175.645 272.88C174.965 273.2 174.195 273.36 173.335 273.36ZM173.935 271.2C174.695 271.2 175.39 271.02 176.02 270.66C176.65 270.3 177.15 269.795 177.52 269.145C177.9 268.485 178.09 267.72 178.09 266.85C178.09 265.98 177.9 265.22 177.52 264.57C177.15 263.91 176.65 263.4 176.02 263.04C175.39 262.67 174.695 262.485 173.935 262.485C173.235 262.485 172.585 262.665 171.985 263.025C171.385 263.385 170.9 263.89 170.53 264.54C170.17 265.19 169.99 265.96 169.99 266.85C169.99 267.74 170.17 268.51 170.53 269.16C170.9 269.81 171.385 270.315 171.985 270.675C172.585 271.025 173.235 271.2 173.935 271.2ZM185.273 267.375C185.283 268.115 185.443 268.79 185.753 269.4C186.063 270.01 186.523 270.495 187.133 270.855C187.753 271.215 188.513 271.395 189.413 271.395C190.173 271.395 190.818 271.285 191.348 271.065C191.888 270.835 192.328 270.565 192.668 270.255C193.008 269.935 193.253 269.65 193.403 269.4L194.678 270.975C194.348 271.455 193.943 271.875 193.463 272.235C192.993 272.595 192.418 272.87 191.738 273.06C191.058 273.26 190.228 273.36 189.248 273.36C187.928 273.36 186.783 273.08 185.812 272.52C184.853 271.95 184.113 271.165 183.593 270.165C183.073 269.155 182.813 268 182.813 266.7C182.813 265.5 183.058 264.42 183.548 263.46C184.038 262.49 184.748 261.725 185.678 261.165C186.618 260.605 187.748 260.325 189.068 260.325C190.278 260.325 191.328 260.58 192.218 261.09C193.118 261.59 193.813 262.3 194.303 263.22C194.803 264.14 195.053 265.24 195.053 266.52C195.053 266.6 195.048 266.745 195.038 266.955C195.028 267.155 195.018 267.295 195.008 267.375H185.273ZM192.563 265.41C192.553 265 192.433 264.55 192.203 264.06C191.983 263.57 191.623 263.15 191.123 262.8C190.623 262.45 189.948 262.275 189.098 262.275C188.218 262.275 187.508 262.445 186.968 262.785C186.438 263.125 186.048 263.54 185.798 264.03C185.548 264.51 185.403 264.97 185.363 265.41H192.563ZM212.29 260.325C213.1 260.325 213.885 260.495 214.645 260.835C215.415 261.175 216.045 261.715 216.535 262.455C217.035 263.185 217.285 264.14 217.285 265.32V273H214.645V265.83C214.645 264.61 214.36 263.725 213.79 263.175C213.22 262.615 212.485 262.335 211.585 262.335C210.995 262.335 210.425 262.505 209.875 262.845C209.335 263.175 208.89 263.635 208.54 264.225C208.19 264.805 208.015 265.465 208.015 266.205V273H205.405V260.685H208.015V262.875C208.105 262.535 208.35 262.165 208.75 261.765C209.15 261.365 209.66 261.025 210.28 260.745C210.9 260.465 211.57 260.325 212.29 260.325ZM230.598 273V270.6C230.518 270.85 230.283 271.195 229.893 271.635C229.513 272.075 228.988 272.475 228.318 272.835C227.658 273.185 226.878 273.36 225.978 273.36C224.838 273.36 223.803 273.09 222.873 272.55C221.953 272.01 221.218 271.255 220.668 270.285C220.128 269.305 219.858 268.16 219.858 266.85C219.858 265.54 220.128 264.4 220.668 263.43C221.218 262.45 221.953 261.69 222.873 261.15C223.803 260.6 224.838 260.325 225.978 260.325C226.868 260.325 227.638 260.485 228.288 260.805C228.948 261.125 229.473 261.495 229.863 261.915C230.263 262.335 230.498 262.695 230.568 262.995V260.685H233.148V273H230.598ZM222.438 266.85C222.438 267.74 222.633 268.51 223.023 269.16C223.413 269.81 223.918 270.315 224.538 270.675C225.168 271.025 225.838 271.2 226.548 271.2C227.308 271.2 227.988 271.02 228.588 270.66C229.188 270.3 229.663 269.795 230.013 269.145C230.363 268.485 230.538 267.72 230.538 266.85C230.538 265.98 230.363 265.22 230.013 264.57C229.663 263.91 229.188 263.4 228.588 263.04C227.988 262.67 227.308 262.485 226.548 262.485C225.838 262.485 225.168 262.665 224.538 263.025C223.918 263.385 223.413 263.89 223.023 264.54C222.633 265.19 222.438 265.96 222.438 266.85ZM221.943 257.94C222.043 257.48 222.213 257.01 222.453 256.53C222.703 256.05 223.023 255.645 223.413 255.315C223.813 254.975 224.278 254.805 224.808 254.805C225.418 254.805 225.933 254.9 226.353 255.09C226.773 255.28 227.168 255.47 227.538 255.66C227.908 255.85 228.318 255.945 228.768 255.945C229.118 255.945 229.398 255.815 229.608 255.555C229.818 255.295 229.953 255.045 230.013 254.805H231.903C231.803 255.245 231.623 255.71 231.363 256.2C231.113 256.68 230.788 257.09 230.388 257.43C229.998 257.77 229.538 257.94 229.008 257.94C228.398 257.94 227.878 257.845 227.448 257.655C227.018 257.465 226.623 257.275 226.263 257.085C225.903 256.895 225.523 256.8 225.123 256.8C224.793 256.8 224.513 256.93 224.283 257.19C224.063 257.44 223.913 257.69 223.833 257.94H221.943ZM242.336 273.36C241.066 273.36 239.936 273.075 238.946 272.505C237.966 271.935 237.196 271.165 236.636 270.195C236.076 269.215 235.796 268.11 235.796 266.88C235.796 265.65 236.076 264.54 236.636 263.55C237.196 262.56 237.966 261.775 238.946 261.195C239.936 260.615 241.066 260.325 242.336 260.325C243.596 260.325 244.711 260.615 245.681 261.195C246.661 261.775 247.426 262.56 247.976 263.55C248.526 264.54 248.801 265.65 248.801 266.88C248.801 268.11 248.526 269.215 247.976 270.195C247.426 271.165 246.661 271.935 245.681 272.505C244.711 273.075 243.596 273.36 242.336 273.36ZM242.336 271.125C243.136 271.125 243.831 270.94 244.421 270.57C245.021 270.2 245.486 269.695 245.816 269.055C246.146 268.405 246.311 267.675 246.311 266.865C246.311 266.055 246.146 265.325 245.816 264.675C245.486 264.025 245.021 263.51 244.421 263.13C243.831 262.75 243.136 262.56 242.336 262.56C241.526 262.56 240.821 262.75 240.221 263.13C239.621 263.51 239.151 264.025 238.811 264.675C238.481 265.325 238.316 266.055 238.316 266.865C238.316 267.675 238.481 268.405 238.811 269.055C239.151 269.695 239.621 270.2 240.221 270.57C240.821 270.94 241.526 271.125 242.336 271.125ZM261.73 273H259.135V260.685H261.73V262.815H261.655C261.705 262.555 261.89 262.23 262.21 261.84C262.53 261.45 262.97 261.1 263.53 260.79C264.09 260.48 264.76 260.325 265.54 260.325C266.11 260.325 266.61 260.405 267.04 260.565C267.48 260.715 267.79 260.865 267.97 261.015L266.905 263.175C266.765 263.035 266.52 262.895 266.17 262.755C265.82 262.605 265.385 262.53 264.865 262.53C264.205 262.53 263.64 262.735 263.17 263.145C262.7 263.555 262.34 264.05 262.09 264.63C261.85 265.2 261.73 265.73 261.73 266.22V273ZM271.024 267.375C271.034 268.115 271.194 268.79 271.504 269.4C271.814 270.01 272.274 270.495 272.884 270.855C273.504 271.215 274.264 271.395 275.164 271.395C275.924 271.395 276.569 271.285 277.099 271.065C277.639 270.835 278.079 270.565 278.419 270.255C278.759 269.935 279.004 269.65 279.154 269.4L280.429 270.975C280.099 271.455 279.694 271.875 279.214 272.235C278.744 272.595 278.169 272.87 277.489 273.06C276.809 273.26 275.979 273.36 274.999 273.36C273.679 273.36 272.534 273.08 271.564 272.52C270.604 271.95 269.864 271.165 269.344 270.165C268.824 269.155 268.564 268 268.564 266.7C268.564 265.5 268.809 264.42 269.299 263.46C269.789 262.49 270.499 261.725 271.429 261.165C272.369 260.605 273.499 260.325 274.819 260.325C276.029 260.325 277.079 260.58 277.969 261.09C278.869 261.59 279.564 262.3 280.054 263.22C280.554 264.14 280.804 265.24 280.804 266.52C280.804 266.6 280.799 266.745 280.789 266.955C280.779 267.155 280.769 267.295 280.759 267.375H271.024ZM278.314 265.41C278.304 265 278.184 264.55 277.954 264.06C277.734 263.57 277.374 263.15 276.874 262.8C276.374 262.45 275.699 262.275 274.849 262.275C273.969 262.275 273.259 262.445 272.719 262.785C272.189 263.125 271.799 263.54 271.549 264.03C271.299 264.51 271.154 264.97 271.114 265.41H278.314ZM293.586 273V270.6C293.506 270.85 293.271 271.195 292.881 271.635C292.501 272.075 291.976 272.475 291.306 272.835C290.646 273.185 289.866 273.36 288.966 273.36C287.826 273.36 286.791 273.09 285.861 272.55C284.941 272.01 284.206 271.255 283.656 270.285C283.116 269.305 282.846 268.16 282.846 266.85C282.846 265.54 283.116 264.4 283.656 263.43C284.206 262.45 284.941 261.69 285.861 261.15C286.791 260.6 287.826 260.325 288.966 260.325C289.856 260.325 290.626 260.485 291.276 260.805C291.936 261.125 292.461 261.495 292.851 261.915C293.251 262.335 293.486 262.695 293.556 262.995V260.685H296.136V273H293.586ZM285.426 266.85C285.426 267.74 285.621 268.51 286.011 269.16C286.401 269.81 286.906 270.315 287.526 270.675C288.156 271.025 288.826 271.2 289.536 271.2C290.296 271.2 290.976 271.02 291.576 270.66C292.176 270.3 292.651 269.795 293.001 269.145C293.351 268.485 293.526 267.72 293.526 266.85C293.526 265.98 293.351 265.22 293.001 264.57C292.651 263.91 292.176 263.4 291.576 263.04C290.976 262.67 290.296 262.485 289.536 262.485C288.826 262.485 288.156 262.665 287.526 263.025C286.906 263.385 286.401 263.89 286.011 264.54C285.621 265.19 285.426 265.96 285.426 266.85ZM302.339 273H299.714V252.36H302.339V273ZM306.383 273V260.685H308.993V273H306.383ZM307.718 256.47C307.248 256.47 306.843 256.305 306.503 255.975C306.173 255.635 306.008 255.23 306.008 254.76C306.008 254.29 306.173 253.885 306.503 253.545C306.843 253.205 307.248 253.035 307.718 253.035C308.028 253.035 308.313 253.115 308.573 253.275C308.843 253.435 309.058 253.645 309.218 253.905C309.378 254.155 309.458 254.44 309.458 254.76C309.458 255.23 309.288 255.635 308.948 255.975C308.608 256.305 308.198 256.47 307.718 256.47ZM312.503 260.685H323.243L315.878 271.02H322.943V273H311.663L319.028 262.65H312.503V260.685ZM335.51 273V270.6C335.43 270.85 335.195 271.195 334.805 271.635C334.425 272.075 333.9 272.475 333.23 272.835C332.57 273.185 331.79 273.36 330.89 273.36C329.75 273.36 328.715 273.09 327.785 272.55C326.865 272.01 326.13 271.255 325.58 270.285C325.04 269.305 324.77 268.16 324.77 266.85C324.77 265.54 325.04 264.4 325.58 263.43C326.13 262.45 326.865 261.69 327.785 261.15C328.715 260.6 329.75 260.325 330.89 260.325C331.78 260.325 332.55 260.485 333.2 260.805C333.86 261.125 334.385 261.495 334.775 261.915C335.175 262.335 335.41 262.695 335.48 262.995V260.685H338.06V273H335.51ZM327.35 266.85C327.35 267.74 327.545 268.51 327.935 269.16C328.325 269.81 328.83 270.315 329.45 270.675C330.08 271.025 330.75 271.2 331.46 271.2C332.22 271.2 332.9 271.02 333.5 270.66C334.1 270.3 334.575 269.795 334.925 269.145C335.275 268.485 335.45 267.72 335.45 266.85C335.45 265.98 335.275 265.22 334.925 264.57C334.575 263.91 334.1 263.4 333.5 263.04C332.9 262.67 332.22 262.485 331.46 262.485C330.75 262.485 330.08 262.665 329.45 263.025C328.83 263.385 328.325 263.89 327.935 264.54C327.545 265.19 327.35 265.96 327.35 266.85ZM346.978 273.36C345.848 273.36 344.833 273.09 343.933 272.55C343.043 272.01 342.338 271.255 341.818 270.285C341.308 269.305 341.053 268.16 341.053 266.85C341.053 265.54 341.308 264.4 341.818 263.43C342.338 262.45 343.043 261.69 343.933 261.15C344.833 260.6 345.848 260.325 346.978 260.325C347.888 260.325 348.688 260.485 349.378 260.805C350.068 261.115 350.618 261.48 351.028 261.9C351.438 262.32 351.673 262.685 351.733 262.995V252.36H354.358V273H351.778V270.6C351.668 270.94 351.393 271.325 350.953 271.755C350.523 272.185 349.968 272.56 349.288 272.88C348.608 273.2 347.838 273.36 346.978 273.36ZM347.578 271.2C348.338 271.2 349.033 271.02 349.663 270.66C350.293 270.3 350.793 269.795 351.163 269.145C351.543 268.485 351.733 267.72 351.733 266.85C351.733 265.98 351.543 265.22 351.163 264.57C350.793 263.91 350.293 263.4 349.663 263.04C349.033 262.67 348.338 262.485 347.578 262.485C346.878 262.485 346.228 262.665 345.628 263.025C345.028 263.385 344.543 263.89 344.173 264.54C343.813 265.19 343.633 265.96 343.633 266.85C343.633 267.74 343.813 268.51 344.173 269.16C344.543 269.81 345.028 270.315 345.628 270.675C346.228 271.025 346.878 271.2 347.578 271.2ZM367.18 273V270.6C367.1 270.85 366.865 271.195 366.475 271.635C366.095 272.075 365.57 272.475 364.9 272.835C364.24 273.185 363.46 273.36 362.56 273.36C361.42 273.36 360.385 273.09 359.455 272.55C358.535 272.01 357.8 271.255 357.25 270.285C356.71 269.305 356.44 268.16 356.44 266.85C356.44 265.54 356.71 264.4 357.25 263.43C357.8 262.45 358.535 261.69 359.455 261.15C360.385 260.6 361.42 260.325 362.56 260.325C363.45 260.325 364.22 260.485 364.87 260.805C365.53 261.125 366.055 261.495 366.445 261.915C366.845 262.335 367.08 262.695 367.15 262.995V260.685H369.73V273H367.18ZM359.02 266.85C359.02 267.74 359.215 268.51 359.605 269.16C359.995 269.81 360.5 270.315 361.12 270.675C361.75 271.025 362.42 271.2 363.13 271.2C363.89 271.2 364.57 271.02 365.17 270.66C365.77 270.3 366.245 269.795 366.595 269.145C366.945 268.485 367.12 267.72 367.12 266.85C367.12 265.98 366.945 265.22 366.595 264.57C366.245 263.91 365.77 263.4 365.17 263.04C364.57 262.67 363.89 262.485 363.13 262.485C362.42 262.485 361.75 262.665 361.12 263.025C360.5 263.385 359.995 263.89 359.605 264.54C359.215 265.19 359.02 265.96 359.02 266.85ZM375.288 263.82C374.738 263.82 374.263 263.625 373.863 263.235C373.473 262.835 373.278 262.36 373.278 261.81C373.278 261.24 373.473 260.76 373.863 260.37C374.263 259.97 374.738 259.77 375.288 259.77C375.858 259.77 376.338 259.97 376.728 260.37C377.118 260.76 377.313 261.24 377.313 261.81C377.313 262.36 377.118 262.835 376.728 263.235C376.338 263.625 375.858 263.82 375.288 263.82ZM375.333 269.235C375.943 269.235 376.463 269.45 376.893 269.88C377.333 270.31 377.553 270.89 377.553 271.62C377.553 272.36 377.403 273.065 377.103 273.735C376.803 274.405 376.408 275 375.918 275.52C375.428 276.04 374.898 276.455 374.328 276.765L373.353 275.76C373.653 275.62 373.978 275.42 374.328 275.16C374.678 274.9 374.993 274.6 375.273 274.26C375.553 273.93 375.743 273.575 375.843 273.195C375.623 273.305 375.363 273.36 375.063 273.36C374.553 273.35 374.113 273.155 373.743 272.775C373.373 272.385 373.188 271.915 373.188 271.365C373.188 270.955 373.283 270.59 373.473 270.27C373.663 269.95 373.918 269.7 374.238 269.52C374.568 269.33 374.933 269.235 375.333 269.235Z" fill="#E27B7B"/>
<path d="M85.65 319.2H88.32L95.64 339H92.895L91.185 334.23H82.785L81.045 339H78.3L85.65 319.2ZM83.61 331.92H90.375L87.015 322.35H86.97L83.61 331.92ZM96.6305 326.685H99.0455V321.63H101.64V326.685H104.805V328.92H101.64V335.01C101.64 335.73 101.765 336.26 102.015 336.6C102.275 336.94 102.62 337.11 103.05 337.11C103.43 337.11 103.725 337.04 103.935 336.9C104.145 336.76 104.27 336.665 104.31 336.615L105.345 338.535C105.285 338.585 105.125 338.68 104.865 338.82C104.605 338.96 104.27 339.085 103.86 339.195C103.45 339.305 102.97 339.36 102.42 339.36C101.46 339.36 100.655 339.07 100.005 338.49C99.3655 337.9 99.0455 336.97 99.0455 335.7V328.92H96.6305V326.685ZM107.897 339V326.685H110.507V339H107.897ZM109.232 322.47C108.762 322.47 108.357 322.305 108.017 321.975C107.687 321.635 107.522 321.23 107.522 320.76C107.522 320.29 107.687 319.885 108.017 319.545C108.357 319.205 108.762 319.035 109.232 319.035C109.542 319.035 109.827 319.115 110.087 319.275C110.357 319.435 110.572 319.645 110.732 319.905C110.892 320.155 110.972 320.44 110.972 320.76C110.972 321.23 110.802 321.635 110.462 321.975C110.122 322.305 109.712 322.47 109.232 322.47ZM113.267 326.685H116.072L120.092 336.585L124.112 326.685H126.902L121.637 339H118.562L113.267 326.685ZM129.635 339V326.685H132.245V339H129.635ZM130.97 322.47C130.5 322.47 130.095 322.305 129.755 321.975C129.425 321.635 129.26 321.23 129.26 320.76C129.26 320.29 129.425 319.885 129.755 319.545C130.095 319.205 130.5 319.035 130.97 319.035C131.28 319.035 131.565 319.115 131.825 319.275C132.095 319.435 132.31 319.645 132.47 319.905C132.63 320.155 132.71 320.44 132.71 320.76C132.71 321.23 132.54 321.635 132.2 321.975C131.86 322.305 131.45 322.47 130.97 322.47ZM141.665 339.36C140.535 339.36 139.52 339.09 138.62 338.55C137.73 338.01 137.025 337.255 136.505 336.285C135.995 335.305 135.74 334.16 135.74 332.85C135.74 331.54 135.995 330.4 136.505 329.43C137.025 328.45 137.73 327.69 138.62 327.15C139.52 326.6 140.535 326.325 141.665 326.325C142.575 326.325 143.375 326.485 144.065 326.805C144.755 327.115 145.305 327.48 145.715 327.9C146.125 328.32 146.36 328.685 146.42 328.995V318.36H149.045V339H146.465V336.6C146.355 336.94 146.08 337.325 145.64 337.755C145.21 338.185 144.655 338.56 143.975 338.88C143.295 339.2 142.525 339.36 141.665 339.36ZM142.265 337.2C143.025 337.2 143.72 337.02 144.35 336.66C144.98 336.3 145.48 335.795 145.85 335.145C146.23 334.485 146.42 333.72 146.42 332.85C146.42 331.98 146.23 331.22 145.85 330.57C145.48 329.91 144.98 329.4 144.35 329.04C143.72 328.67 143.025 328.485 142.265 328.485C141.565 328.485 140.915 328.665 140.315 329.025C139.715 329.385 139.23 329.89 138.86 330.54C138.5 331.19 138.32 331.96 138.32 332.85C138.32 333.74 138.5 334.51 138.86 335.16C139.23 335.81 139.715 336.315 140.315 336.675C140.915 337.025 141.565 337.2 142.265 337.2ZM161.868 339V336.6C161.788 336.85 161.553 337.195 161.163 337.635C160.783 338.075 160.258 338.475 159.588 338.835C158.928 339.185 158.148 339.36 157.248 339.36C156.108 339.36 155.073 339.09 154.143 338.55C153.223 338.01 152.488 337.255 151.938 336.285C151.398 335.305 151.128 334.16 151.128 332.85C151.128 331.54 151.398 330.4 151.938 329.43C152.488 328.45 153.223 327.69 154.143 327.15C155.073 326.6 156.108 326.325 157.248 326.325C158.138 326.325 158.908 326.485 159.558 326.805C160.218 327.125 160.743 327.495 161.133 327.915C161.533 328.335 161.768 328.695 161.838 328.995V326.685H164.418V339H161.868ZM153.708 332.85C153.708 333.74 153.903 334.51 154.293 335.16C154.683 335.81 155.188 336.315 155.808 336.675C156.438 337.025 157.108 337.2 157.818 337.2C158.578 337.2 159.258 337.02 159.858 336.66C160.458 336.3 160.933 335.795 161.283 335.145C161.633 334.485 161.808 333.72 161.808 332.85C161.808 331.98 161.633 331.22 161.283 330.57C160.933 329.91 160.458 329.4 159.858 329.04C159.258 328.67 158.578 328.485 157.818 328.485C157.108 328.485 156.438 328.665 155.808 329.025C155.188 329.385 154.683 329.89 154.293 330.54C153.903 331.19 153.708 331.96 153.708 332.85ZM173.335 339.36C172.205 339.36 171.19 339.09 170.29 338.55C169.4 338.01 168.695 337.255 168.175 336.285C167.665 335.305 167.41 334.16 167.41 332.85C167.41 331.54 167.665 330.4 168.175 329.43C168.695 328.45 169.4 327.69 170.29 327.15C171.19 326.6 172.205 326.325 173.335 326.325C174.245 326.325 175.045 326.485 175.735 326.805C176.425 327.115 176.975 327.48 177.385 327.9C177.795 328.32 178.03 328.685 178.09 328.995V318.36H180.715V339H178.135V336.6C178.025 336.94 177.75 337.325 177.31 337.755C176.88 338.185 176.325 338.56 175.645 338.88C174.965 339.2 174.195 339.36 173.335 339.36ZM173.935 337.2C174.695 337.2 175.39 337.02 176.02 336.66C176.65 336.3 177.15 335.795 177.52 335.145C177.9 334.485 178.09 333.72 178.09 332.85C178.09 331.98 177.9 331.22 177.52 330.57C177.15 329.91 176.65 329.4 176.02 329.04C175.39 328.67 174.695 328.485 173.935 328.485C173.235 328.485 172.585 328.665 171.985 329.025C171.385 329.385 170.9 329.89 170.53 330.54C170.17 331.19 169.99 331.96 169.99 332.85C169.99 333.74 170.17 334.51 170.53 335.16C170.9 335.81 171.385 336.315 171.985 336.675C172.585 337.025 173.235 337.2 173.935 337.2ZM185.273 333.375C185.283 334.115 185.443 334.79 185.753 335.4C186.063 336.01 186.523 336.495 187.133 336.855C187.753 337.215 188.513 337.395 189.413 337.395C190.173 337.395 190.818 337.285 191.348 337.065C191.888 336.835 192.328 336.565 192.668 336.255C193.008 335.935 193.253 335.65 193.403 335.4L194.678 336.975C194.348 337.455 193.943 337.875 193.463 338.235C192.993 338.595 192.418 338.87 191.738 339.06C191.058 339.26 190.228 339.36 189.248 339.36C187.928 339.36 186.783 339.08 185.812 338.52C184.853 337.95 184.113 337.165 183.593 336.165C183.073 335.155 182.813 334 182.813 332.7C182.813 331.5 183.058 330.42 183.548 329.46C184.038 328.49 184.748 327.725 185.678 327.165C186.618 326.605 187.748 326.325 189.068 326.325C190.278 326.325 191.328 326.58 192.218 327.09C193.118 327.59 193.813 328.3 194.303 329.22C194.803 330.14 195.053 331.24 195.053 332.52C195.053 332.6 195.048 332.745 195.038 332.955C195.028 333.155 195.018 333.295 195.008 333.375H185.273ZM192.563 331.41C192.553 331 192.433 330.55 192.203 330.06C191.983 329.57 191.623 329.15 191.123 328.8C190.623 328.45 189.948 328.275 189.098 328.275C188.218 328.275 187.508 328.445 186.968 328.785C186.438 329.125 186.048 329.54 185.798 330.03C185.548 330.51 185.403 330.97 185.363 331.41H192.563ZM208.12 339H205.495V318.36H208.12V339ZM221.78 339V336.6C221.7 336.85 221.465 337.195 221.075 337.635C220.695 338.075 220.17 338.475 219.5 338.835C218.84 339.185 218.06 339.36 217.16 339.36C216.02 339.36 214.985 339.09 214.055 338.55C213.135 338.01 212.4 337.255 211.85 336.285C211.31 335.305 211.04 334.16 211.04 332.85C211.04 331.54 211.31 330.4 211.85 329.43C212.4 328.45 213.135 327.69 214.055 327.15C214.985 326.6 216.02 326.325 217.16 326.325C218.05 326.325 218.82 326.485 219.47 326.805C220.13 327.125 220.655 327.495 221.045 327.915C221.445 328.335 221.68 328.695 221.75 328.995V326.685H224.33V339H221.78ZM213.62 332.85C213.62 333.74 213.815 334.51 214.205 335.16C214.595 335.81 215.1 336.315 215.72 336.675C216.35 337.025 217.02 337.2 217.73 337.2C218.49 337.2 219.17 337.02 219.77 336.66C220.37 336.3 220.845 335.795 221.195 335.145C221.545 334.485 221.72 333.72 221.72 332.85C221.72 331.98 221.545 331.22 221.195 330.57C220.845 329.91 220.37 329.4 219.77 329.04C219.17 328.67 218.49 328.485 217.73 328.485C217.02 328.485 216.35 328.665 215.72 329.025C215.1 329.385 214.595 329.89 214.205 330.54C213.815 331.19 213.62 331.96 213.62 332.85ZM234.702 326.325C235.512 326.325 236.297 326.495 237.057 326.835C237.827 327.175 238.457 327.715 238.947 328.455C239.447 329.185 239.697 330.14 239.697 331.32V339H237.057V331.83C237.057 330.61 236.772 329.725 236.202 329.175C235.632 328.615 234.897 328.335 233.997 328.335C233.407 328.335 232.837 328.505 232.287 328.845C231.747 329.175 231.302 329.635 230.952 330.225C230.602 330.805 230.427 331.465 230.427 332.205V339H227.817V326.685H230.427V328.875C230.517 328.535 230.762 328.165 231.162 327.765C231.562 327.365 232.072 327.025 232.692 326.745C233.312 326.465 233.982 326.325 234.702 326.325ZM248.915 337.2C249.695 337.2 250.325 337.075 250.805 336.825C251.285 336.575 251.585 336.395 251.705 336.285L252.98 338.16C252.88 338.25 252.64 338.395 252.26 338.595C251.89 338.785 251.41 338.96 250.82 339.12C250.24 339.28 249.58 339.36 248.84 339.36C247.71 339.36 246.66 339.11 245.69 338.61C244.72 338.1 243.935 337.36 243.335 336.39C242.745 335.42 242.45 334.235 242.45 332.835C242.45 331.425 242.745 330.24 243.335 329.28C243.935 328.31 244.72 327.575 245.69 327.075C246.66 326.575 247.71 326.325 248.84 326.325C249.57 326.325 250.22 326.415 250.79 326.595C251.36 326.765 251.83 326.955 252.2 327.165C252.57 327.375 252.815 327.535 252.935 327.645L251.645 329.52C251.565 329.44 251.41 329.32 251.18 329.16C250.96 328.99 250.66 328.835 250.28 328.695C249.9 328.555 249.445 328.485 248.915 328.485C248.275 328.485 247.65 328.66 247.04 329.01C246.44 329.35 245.945 329.845 245.555 330.495C245.165 331.145 244.97 331.925 244.97 332.835C244.97 333.745 245.165 334.53 245.555 335.19C245.945 335.84 246.44 336.34 247.04 336.69C247.65 337.03 248.275 337.2 248.915 337.2ZM247.58 345.375C246.85 345.375 246.195 345.26 245.615 345.03C245.045 344.81 244.635 344.595 244.385 344.385L245.42 343.17C245.61 343.34 245.885 343.51 246.245 343.68C246.615 343.86 247.005 343.95 247.415 343.95C247.895 343.95 248.295 343.84 248.615 343.62C248.945 343.41 249.11 343.13 249.11 342.78C249.11 342.4 248.97 342.12 248.69 341.94C248.42 341.76 248.075 341.67 247.655 341.67C247.345 341.67 247.065 341.69 246.815 341.73C246.565 341.78 246.385 341.83 246.275 341.88L245.84 341.625L246.995 338.37L248.165 338.85L247.475 340.77C247.955 340.67 248.46 340.665 248.99 340.755C249.52 340.855 249.97 341.06 250.34 341.37C250.71 341.69 250.895 342.125 250.895 342.675C250.895 343.265 250.73 343.76 250.4 344.16C250.08 344.56 249.665 344.86 249.155 345.06C248.655 345.27 248.13 345.375 247.58 345.375ZM265.227 339V336.6C265.147 336.85 264.912 337.195 264.522 337.635C264.142 338.075 263.617 338.475 262.947 338.835C262.287 339.185 261.507 339.36 260.607 339.36C259.467 339.36 258.432 339.09 257.502 338.55C256.582 338.01 255.847 337.255 255.297 336.285C254.757 335.305 254.487 334.16 254.487 332.85C254.487 331.54 254.757 330.4 255.297 329.43C255.847 328.45 256.582 327.69 257.502 327.15C258.432 326.6 259.467 326.325 260.607 326.325C261.497 326.325 262.267 326.485 262.917 326.805C263.577 327.125 264.102 327.495 264.492 327.915C264.892 328.335 265.127 328.695 265.197 328.995V326.685H267.777V339H265.227ZM257.067 332.85C257.067 333.74 257.262 334.51 257.652 335.16C258.042 335.81 258.547 336.315 259.167 336.675C259.797 337.025 260.467 337.2 261.177 337.2C261.937 337.2 262.617 337.02 263.217 336.66C263.817 336.3 264.292 335.795 264.642 335.145C264.992 334.485 265.167 333.72 265.167 332.85C265.167 331.98 264.992 331.22 264.642 330.57C264.292 329.91 263.817 329.4 263.217 329.04C262.617 328.67 261.937 328.485 261.177 328.485C260.467 328.485 259.797 328.665 259.167 329.025C258.547 329.385 258.042 329.89 257.652 330.54C257.262 331.19 257.067 331.96 257.067 332.85ZM276.694 339.36C275.564 339.36 274.549 339.09 273.649 338.55C272.759 338.01 272.054 337.255 271.534 336.285C271.024 335.305 270.769 334.16 270.769 332.85C270.769 331.54 271.024 330.4 271.534 329.43C272.054 328.45 272.759 327.69 273.649 327.15C274.549 326.6 275.564 326.325 276.694 326.325C277.604 326.325 278.404 326.485 279.094 326.805C279.784 327.115 280.334 327.48 280.744 327.9C281.154 328.32 281.389 328.685 281.449 328.995V318.36H284.074V339H281.494V336.6C281.384 336.94 281.109 337.325 280.669 337.755C280.239 338.185 279.684 338.56 279.004 338.88C278.324 339.2 277.554 339.36 276.694 339.36ZM277.294 337.2C278.054 337.2 278.749 337.02 279.379 336.66C280.009 336.3 280.509 335.795 280.879 335.145C281.259 334.485 281.449 333.72 281.449 332.85C281.449 331.98 281.259 331.22 280.879 330.57C280.509 329.91 280.009 329.4 279.379 329.04C278.749 328.67 278.054 328.485 277.294 328.485C276.594 328.485 275.944 328.665 275.344 329.025C274.744 329.385 274.259 329.89 273.889 330.54C273.529 331.19 273.349 331.96 273.349 332.85C273.349 333.74 273.529 334.51 273.889 335.16C274.259 335.81 274.744 336.315 275.344 336.675C275.944 337.025 276.594 337.2 277.294 337.2ZM296.897 339V336.6C296.817 336.85 296.582 337.195 296.192 337.635C295.812 338.075 295.287 338.475 294.617 338.835C293.957 339.185 293.177 339.36 292.277 339.36C291.137 339.36 290.102 339.09 289.172 338.55C288.252 338.01 287.517 337.255 286.967 336.285C286.427 335.305 286.157 334.16 286.157 332.85C286.157 331.54 286.427 330.4 286.967 329.43C287.517 328.45 288.252 327.69 289.172 327.15C290.102 326.6 291.137 326.325 292.277 326.325C293.167 326.325 293.937 326.485 294.587 326.805C295.247 327.125 295.772 327.495 296.162 327.915C296.562 328.335 296.797 328.695 296.867 328.995V326.685H299.447V339H296.897ZM288.737 332.85C288.737 333.74 288.932 334.51 289.322 335.16C289.712 335.81 290.217 336.315 290.837 336.675C291.467 337.025 292.137 337.2 292.847 337.2C293.607 337.2 294.287 337.02 294.887 336.66C295.487 336.3 295.962 335.795 296.312 335.145C296.662 334.485 296.837 333.72 296.837 332.85C296.837 331.98 296.662 331.22 296.312 330.57C295.962 329.91 295.487 329.4 294.887 329.04C294.287 328.67 293.607 328.485 292.847 328.485C292.137 328.485 291.467 328.665 290.837 329.025C290.217 329.385 289.712 329.89 289.322 330.54C288.932 331.19 288.737 331.96 288.737 332.85ZM82.14 367H79.545V354.685H82.14V356.815H82.065C82.115 356.555 82.3 356.23 82.62 355.84C82.94 355.45 83.38 355.1 83.94 354.79C84.5 354.48 85.17 354.325 85.95 354.325C86.52 354.325 87.02 354.405 87.45 354.565C87.89 354.715 88.2 354.865 88.38 355.015L87.315 357.175C87.175 357.035 86.93 356.895 86.58 356.755C86.23 356.605 85.795 356.53 85.275 356.53C84.615 356.53 84.05 356.735 83.58 357.145C83.11 357.555 82.75 358.05 82.5 358.63C82.26 359.2 82.14 359.73 82.14 360.22V367ZM91.4346 361.375C91.4446 362.115 91.6046 362.79 91.9146 363.4C92.2246 364.01 92.6846 364.495 93.2946 364.855C93.9146 365.215 94.6746 365.395 95.5746 365.395C96.3346 365.395 96.9796 365.285 97.5096 365.065C98.0496 364.835 98.4896 364.565 98.8296 364.255C99.1696 363.935 99.4146 363.65 99.5646 363.4L100.84 364.975C100.51 365.455 100.105 365.875 99.6246 366.235C99.1546 366.595 98.5796 366.87 97.8996 367.06C97.2196 367.26 96.3896 367.36 95.4096 367.36C94.0896 367.36 92.9446 367.08 91.9746 366.52C91.0146 365.95 90.2746 365.165 89.7546 364.165C89.2346 363.155 88.9746 362 88.9746 360.7C88.9746 359.5 89.2196 358.42 89.7096 357.46C90.1996 356.49 90.9096 355.725 91.8396 355.165C92.7796 354.605 93.9096 354.325 95.2296 354.325C96.4396 354.325 97.4896 354.58 98.3796 355.09C99.2796 355.59 99.9746 356.3 100.465 357.22C100.965 358.14 101.215 359.24 101.215 360.52C101.215 360.6 101.21 360.745 101.2 360.955C101.19 361.155 101.18 361.295 101.17 361.375H91.4346ZM98.7246 359.41C98.7146 359 98.5946 358.55 98.3646 358.06C98.1446 357.57 97.7846 357.15 97.2846 356.8C96.7846 356.45 96.1096 356.275 95.2596 356.275C94.3796 356.275 93.6696 356.445 93.1296 356.785C92.5996 357.125 92.2096 357.54 91.9596 358.03C91.7096 358.51 91.5646 358.97 91.5246 359.41H98.7246ZM109.901 365.2C110.681 365.2 111.311 365.075 111.791 364.825C112.271 364.575 112.571 364.395 112.691 364.285L113.966 366.16C113.866 366.25 113.626 366.395 113.246 366.595C112.876 366.785 112.396 366.96 111.806 367.12C111.226 367.28 110.566 367.36 109.826 367.36C108.696 367.36 107.646 367.11 106.676 366.61C105.706 366.1 104.921 365.36 104.321 364.39C103.731 363.42 103.436 362.235 103.436 360.835C103.436 359.425 103.731 358.24 104.321 357.28C104.921 356.31 105.706 355.575 106.676 355.075C107.646 354.575 108.696 354.325 109.826 354.325C110.556 354.325 111.206 354.415 111.776 354.595C112.346 354.765 112.816 354.955 113.186 355.165C113.556 355.375 113.801 355.535 113.921 355.645L112.631 357.52C112.551 357.44 112.396 357.32 112.166 357.16C111.946 356.99 111.646 356.835 111.266 356.695C110.886 356.555 110.431 356.485 109.901 356.485C109.261 356.485 108.636 356.66 108.026 357.01C107.426 357.35 106.931 357.845 106.541 358.495C106.151 359.145 105.956 359.925 105.956 360.835C105.956 361.745 106.151 362.53 106.541 363.19C106.931 363.84 107.426 364.34 108.026 364.69C108.636 365.03 109.261 365.2 109.901 365.2ZM118.183 361.375C118.193 362.115 118.353 362.79 118.663 363.4C118.973 364.01 119.433 364.495 120.043 364.855C120.663 365.215 121.423 365.395 122.323 365.395C123.083 365.395 123.728 365.285 124.258 365.065C124.798 364.835 125.238 364.565 125.578 364.255C125.918 363.935 126.163 363.65 126.313 363.4L127.588 364.975C127.258 365.455 126.853 365.875 126.373 366.235C125.903 366.595 125.328 366.87 124.648 367.06C123.968 367.26 123.138 367.36 122.158 367.36C120.838 367.36 119.693 367.08 118.723 366.52C117.763 365.95 117.023 365.165 116.503 364.165C115.983 363.155 115.723 362 115.723 360.7C115.723 359.5 115.968 358.42 116.458 357.46C116.948 356.49 117.658 355.725 118.588 355.165C119.528 354.605 120.658 354.325 121.978 354.325C123.188 354.325 124.238 354.58 125.128 355.09C126.028 355.59 126.723 356.3 127.213 357.22C127.713 358.14 127.963 359.24 127.963 360.52C127.963 360.6 127.958 360.745 127.948 360.955C127.938 361.155 127.928 361.295 127.918 361.375H118.183ZM125.473 359.41C125.463 359 125.343 358.55 125.113 358.06C124.893 357.57 124.533 357.15 124.033 356.8C123.533 356.45 122.858 356.275 122.008 356.275C121.128 356.275 120.418 356.445 119.878 356.785C119.348 357.125 118.958 357.54 118.708 358.03C118.458 358.51 118.313 358.97 118.273 359.41H125.473ZM137.73 354.325C138.54 354.325 139.325 354.495 140.085 354.835C140.855 355.175 141.485 355.715 141.975 356.455C142.475 357.185 142.725 358.14 142.725 359.32V367H140.085V359.83C140.085 358.61 139.8 357.725 139.23 357.175C138.66 356.615 137.925 356.335 137.025 356.335C136.435 356.335 135.865 356.505 135.315 356.845C134.775 357.175 134.33 357.635 133.98 358.225C133.63 358.805 133.455 359.465 133.455 360.205V367H130.845V354.685H133.455V356.875C133.545 356.535 133.79 356.165 134.19 355.765C134.59 355.365 135.1 355.025 135.72 354.745C136.34 354.465 137.01 354.325 137.73 354.325ZM145.088 354.685H147.503V349.63H150.098V354.685H153.263V356.92H150.098V363.01C150.098 363.73 150.223 364.26 150.473 364.6C150.733 364.94 151.078 365.11 151.508 365.11C151.888 365.11 152.183 365.04 152.393 364.9C152.603 364.76 152.728 364.665 152.768 364.615L153.803 366.535C153.743 366.585 153.583 366.68 153.323 366.82C153.063 366.96 152.728 367.085 152.318 367.195C151.908 367.305 151.428 367.36 150.878 367.36C149.918 367.36 149.113 367.07 148.463 366.49C147.823 365.9 147.503 364.97 147.503 363.7V356.92H145.088V354.685ZM157.704 361.375C157.714 362.115 157.874 362.79 158.184 363.4C158.494 364.01 158.954 364.495 159.564 364.855C160.184 365.215 160.944 365.395 161.844 365.395C162.604 365.395 163.249 365.285 163.779 365.065C164.319 364.835 164.759 364.565 165.099 364.255C165.439 363.935 165.684 363.65 165.834 363.4L167.109 364.975C166.779 365.455 166.374 365.875 165.894 366.235C165.424 366.595 164.849 366.87 164.169 367.06C163.489 367.26 162.659 367.36 161.679 367.36C160.359 367.36 159.214 367.08 158.244 366.52C157.284 365.95 156.544 365.165 156.024 364.165C155.504 363.155 155.244 362 155.244 360.7C155.244 359.5 155.489 358.42 155.979 357.46C156.469 356.49 157.179 355.725 158.109 355.165C159.049 354.605 160.179 354.325 161.499 354.325C162.709 354.325 163.759 354.58 164.649 355.09C165.549 355.59 166.244 356.3 166.734 357.22C167.234 358.14 167.484 359.24 167.484 360.52C167.484 360.6 167.479 360.745 167.469 360.955C167.459 361.155 167.449 361.295 167.439 361.375H157.704ZM164.994 359.41C164.984 359 164.864 358.55 164.634 358.06C164.414 357.57 164.054 357.15 163.554 356.8C163.054 356.45 162.379 356.275 161.529 356.275C160.649 356.275 159.939 356.445 159.399 356.785C158.869 357.125 158.479 357.54 158.229 358.03C157.979 358.51 157.834 358.97 157.794 359.41H164.994ZM185.141 354.325C186.051 354.325 186.831 354.525 187.481 354.925C188.131 355.315 188.626 355.915 188.966 356.725C189.316 357.535 189.491 358.57 189.491 359.83V367H186.911V360.355C186.911 359.025 186.726 358.025 186.356 357.355C185.986 356.685 185.311 356.35 184.331 356.35C183.811 356.35 183.311 356.495 182.831 356.785C182.361 357.065 181.971 357.5 181.661 358.09C181.361 358.68 181.211 359.435 181.211 360.355V367H178.781V360.355C178.781 359.025 178.551 358.025 178.091 357.355C177.631 356.685 176.986 356.35 176.156 356.35C175.626 356.35 175.126 356.49 174.656 356.77C174.196 357.04 173.821 357.47 173.531 358.06C173.241 358.65 173.096 359.415 173.096 360.355V367H170.501V354.685H173.096V356.575C173.206 356.265 173.441 355.935 173.801 355.585C174.171 355.235 174.641 354.94 175.211 354.7C175.791 354.45 176.436 354.325 177.146 354.325C177.886 354.325 178.506 354.475 179.006 354.775C179.506 355.075 179.901 355.445 180.191 355.885C180.481 356.315 180.681 356.73 180.791 357.13C180.931 356.7 181.201 356.27 181.601 355.84C182.001 355.4 182.506 355.04 183.116 354.76C183.726 354.47 184.401 354.325 185.141 354.325ZM194.735 361.375C194.745 362.115 194.905 362.79 195.215 363.4C195.525 364.01 195.985 364.495 196.595 364.855C197.215 365.215 197.975 365.395 198.875 365.395C199.635 365.395 200.28 365.285 200.81 365.065C201.35 364.835 201.79 364.565 202.13 364.255C202.47 363.935 202.715 363.65 202.865 363.4L204.14 364.975C203.81 365.455 203.405 365.875 202.925 366.235C202.455 366.595 201.88 366.87 201.2 367.06C200.52 367.26 199.69 367.36 198.71 367.36C197.39 367.36 196.245 367.08 195.275 366.52C194.315 365.95 193.575 365.165 193.055 364.165C192.535 363.155 192.275 362 192.275 360.7C192.275 359.5 192.52 358.42 193.01 357.46C193.5 356.49 194.21 355.725 195.14 355.165C196.08 354.605 197.21 354.325 198.53 354.325C199.74 354.325 200.79 354.58 201.68 355.09C202.58 355.59 203.275 356.3 203.765 357.22C204.265 358.14 204.515 359.24 204.515 360.52C204.515 360.6 204.51 360.745 204.5 360.955C204.49 361.155 204.48 361.295 204.47 361.375H194.735ZM202.025 359.41C202.015 359 201.895 358.55 201.665 358.06C201.445 357.57 201.085 357.15 200.585 356.8C200.085 356.45 199.41 356.275 198.56 356.275C197.68 356.275 196.97 356.445 196.43 356.785C195.9 357.125 195.51 357.54 195.26 358.03C195.01 358.51 194.865 358.97 194.825 359.41H202.025ZM214.282 354.325C215.092 354.325 215.877 354.495 216.637 354.835C217.407 355.175 218.037 355.715 218.527 356.455C219.027 357.185 219.277 358.14 219.277 359.32V367H216.637V359.83C216.637 358.61 216.352 357.725 215.782 357.175C215.212 356.615 214.477 356.335 213.577 356.335C212.987 356.335 212.417 356.505 211.867 356.845C211.327 357.175 210.882 357.635 210.532 358.225C210.182 358.805 210.007 359.465 210.007 360.205V367H207.397V354.685H210.007V356.875C210.097 356.535 210.342 356.165 210.742 355.765C211.142 355.365 211.652 355.025 212.272 354.745C212.892 354.465 213.562 354.325 214.282 354.325ZM221.64 354.685H224.055V349.63H226.65V354.685H229.815V356.92H226.65V363.01C226.65 363.73 226.775 364.26 227.025 364.6C227.285 364.94 227.63 365.11 228.06 365.11C228.44 365.11 228.735 365.04 228.945 364.9C229.155 364.76 229.28 364.665 229.32 364.615L230.355 366.535C230.295 366.585 230.135 366.68 229.875 366.82C229.615 366.96 229.28 367.085 228.87 367.195C228.46 367.305 227.98 367.36 227.43 367.36C226.47 367.36 225.665 367.07 225.015 366.49C224.375 365.9 224.055 364.97 224.055 363.7V356.92H221.64V354.685ZM234.257 361.375C234.267 362.115 234.427 362.79 234.737 363.4C235.047 364.01 235.507 364.495 236.117 364.855C236.737 365.215 237.497 365.395 238.397 365.395C239.157 365.395 239.802 365.285 240.332 365.065C240.872 364.835 241.312 364.565 241.652 364.255C241.992 363.935 242.237 363.65 242.387 363.4L243.662 364.975C243.332 365.455 242.927 365.875 242.447 366.235C241.977 366.595 241.402 366.87 240.722 367.06C240.042 367.26 239.212 367.36 238.232 367.36C236.912 367.36 235.767 367.08 234.797 366.52C233.837 365.95 233.097 365.165 232.577 364.165C232.057 363.155 231.797 362 231.797 360.7C231.797 359.5 232.042 358.42 232.532 357.46C233.022 356.49 233.732 355.725 234.662 355.165C235.602 354.605 236.732 354.325 238.052 354.325C239.262 354.325 240.312 354.58 241.202 355.09C242.102 355.59 242.797 356.3 243.287 357.22C243.787 358.14 244.037 359.24 244.037 360.52C244.037 360.6 244.032 360.745 244.022 360.955C244.012 361.155 244.002 361.295 243.992 361.375H234.257ZM241.547 359.41C241.537 359 241.417 358.55 241.187 358.06C240.967 357.57 240.607 357.15 240.107 356.8C239.607 356.45 238.932 356.275 238.082 356.275C237.202 356.275 236.492 356.445 235.952 356.785C235.422 357.125 235.032 357.54 234.782 358.03C234.532 358.51 234.387 358.97 234.347 359.41H241.547ZM258.409 373.09C257.829 372.38 257.224 371.375 256.594 370.075C255.974 368.775 255.444 367.255 255.004 365.515C254.574 363.775 254.359 361.895 254.359 359.875C254.359 358.315 254.489 356.825 254.749 355.405C255.009 353.985 255.349 352.675 255.769 351.475C256.189 350.275 256.639 349.215 257.119 348.295C257.609 347.375 258.079 346.63 258.529 346.06L260.209 346.96C259.709 347.6 259.184 348.545 258.634 349.795C258.094 351.035 257.634 352.51 257.254 354.22C256.874 355.93 256.684 357.815 256.684 359.875C256.684 361.805 256.864 363.585 257.224 365.215C257.584 366.845 258.024 368.25 258.544 369.43C259.064 370.62 259.559 371.53 260.029 372.16L258.409 373.09ZM270.415 354.325C271.225 354.325 272.01 354.495 272.77 354.835C273.54 355.175 274.17 355.715 274.66 356.455C275.16 357.185 275.41 358.14 275.41 359.32V367H272.77V359.83C272.77 358.61 272.485 357.725 271.915 357.175C271.345 356.615 270.61 356.335 269.71 356.335C269.12 356.335 268.55 356.505 268 356.845C267.46 357.175 267.015 357.635 266.665 358.225C266.315 358.805 266.14 359.465 266.14 360.205V367H263.53V354.685H266.14V356.875C266.23 356.535 266.475 356.165 266.875 355.765C267.275 355.365 267.785 355.025 268.405 354.745C269.025 354.465 269.695 354.325 270.415 354.325ZM284.523 367.36C283.253 367.36 282.123 367.075 281.133 366.505C280.153 365.935 279.383 365.165 278.823 364.195C278.263 363.215 277.983 362.11 277.983 360.88C277.983 359.65 278.263 358.54 278.823 357.55C279.383 356.56 280.153 355.775 281.133 355.195C282.123 354.615 283.253 354.325 284.523 354.325C285.783 354.325 286.898 354.615 287.868 355.195C288.848 355.775 289.613 356.56 290.163 357.55C290.713 358.54 290.988 359.65 290.988 360.88C290.988 362.11 290.713 363.215 290.163 364.195C289.613 365.165 288.848 365.935 287.868 366.505C286.898 367.075 285.783 367.36 284.523 367.36ZM284.523 365.125C285.323 365.125 286.018 364.94 286.608 364.57C287.208 364.2 287.673 363.695 288.003 363.055C288.333 362.405 288.498 361.675 288.498 360.865C288.498 360.055 288.333 359.325 288.003 358.675C287.673 358.025 287.208 357.51 286.608 357.13C286.018 356.75 285.323 356.56 284.523 356.56C283.713 356.56 283.008 356.75 282.408 357.13C281.808 357.51 281.338 358.025 280.998 358.675C280.668 359.325 280.503 360.055 280.503 360.865C280.503 361.675 280.668 362.405 280.998 363.055C281.338 363.695 281.808 364.2 282.408 364.57C283.008 364.94 283.713 365.125 284.523 365.125ZM292.652 354.685H295.457L299.477 364.585L303.497 354.685H306.287L301.022 367H297.947L292.652 354.685ZM318.635 367V364.6C318.555 364.85 318.32 365.195 317.93 365.635C317.55 366.075 317.025 366.475 316.355 366.835C315.695 367.185 314.915 367.36 314.015 367.36C312.875 367.36 311.84 367.09 310.91 366.55C309.99 366.01 309.255 365.255 308.705 364.285C308.165 363.305 307.895 362.16 307.895 360.85C307.895 359.54 308.165 358.4 308.705 357.43C309.255 356.45 309.99 355.69 310.91 355.15C311.84 354.6 312.875 354.325 314.015 354.325C314.905 354.325 315.675 354.485 316.325 354.805C316.985 355.125 317.51 355.495 317.9 355.915C318.3 356.335 318.535 356.695 318.605 356.995V354.685H321.185V367H318.635ZM310.475 360.85C310.475 361.74 310.67 362.51 311.06 363.16C311.45 363.81 311.955 364.315 312.575 364.675C313.205 365.025 313.875 365.2 314.585 365.2C315.345 365.2 316.025 365.02 316.625 364.66C317.225 364.3 317.7 363.795 318.05 363.145C318.4 362.485 318.575 361.72 318.575 360.85C318.575 359.98 318.4 359.22 318.05 358.57C317.7 357.91 317.225 357.4 316.625 357.04C316.025 356.67 315.345 356.485 314.585 356.485C313.875 356.485 313.205 356.665 312.575 357.025C311.955 357.385 311.45 357.89 311.06 358.54C310.67 359.19 310.475 359.96 310.475 360.85ZM325.903 373.09L324.283 372.16C324.763 371.53 325.258 370.62 325.768 369.43C326.288 368.25 326.728 366.845 327.088 365.215C327.448 363.585 327.628 361.805 327.628 359.875C327.628 357.815 327.438 355.93 327.058 354.22C326.678 352.51 326.213 351.035 325.663 349.795C325.123 348.545 324.603 347.6 324.103 346.96L325.783 346.06C326.233 346.63 326.698 347.375 327.178 348.295C327.668 349.215 328.123 350.275 328.543 351.475C328.963 352.675 329.303 353.985 329.563 355.405C329.823 356.825 329.953 358.315 329.953 359.875C329.953 361.895 329.733 363.775 329.293 365.515C328.863 367.255 328.333 368.775 327.703 370.075C327.083 371.375 326.483 372.38 325.903 373.09ZM335.883 357.82C335.333 357.82 334.858 357.625 334.458 357.235C334.068 356.835 333.873 356.36 333.873 355.81C333.873 355.24 334.068 354.76 334.458 354.37C334.858 353.97 335.333 353.77 335.883 353.77C336.453 353.77 336.933 353.97 337.323 354.37C337.713 354.76 337.908 355.24 337.908 355.81C337.908 356.36 337.713 356.835 337.323 357.235C336.933 357.625 336.453 357.82 335.883 357.82ZM335.928 363.235C336.538 363.235 337.058 363.45 337.488 363.88C337.928 364.31 338.148 364.89 338.148 365.62C338.148 366.36 337.998 367.065 337.698 367.735C337.398 368.405 337.003 369 336.513 369.52C336.023 370.04 335.493 370.455 334.923 370.765L333.948 369.76C334.248 369.62 334.573 369.42 334.923 369.16C335.273 368.9 335.588 368.6 335.868 368.26C336.148 367.93 336.338 367.575 336.438 367.195C336.218 367.305 335.958 367.36 335.658 367.36C335.148 367.35 334.708 367.155 334.338 366.775C333.968 366.385 333.783 365.915 333.783 365.365C333.783 364.955 333.878 364.59 334.068 364.27C334.258 363.95 334.513 363.7 334.833 363.52C335.163 363.33 335.528 363.235 335.928 363.235Z" fill="#3F6CCD"/>
</g>
<defs>
<clipPath id="clip0_548_4742">
<rect width="443" height="428" rx="50" fill="white"/>
</clipPath>
</defs>
</svg>
